Bungee_Rotated-Regular.ufo
<glyph name="exclam" format="1">
  <advance width="830"/>
  <unicode hex="0021"/>
  <outline>
    <contour>
      <point x="775" y="453" type="line" smooth="yes"/>
      <point x="775" y="478"/>
      <point x="764" y="489"/>
      <point x="739" y="489" type="curve" smooth="yes"/>
      <point x="608" y="489" type="line" smooth="yes"/>
      <point x="582" y="489"/>
      <point x="572" y="478"/>
      <point x="572" y="453" type="curve" smooth="yes"/>
      <point x="572" y="269" type="line" smooth="yes"/>
      <point x="572" y="244"/>
      <point x="582" y="233"/>
      <point x="608" y="233" type="curve"/>
      <point x="739" y="233" type="line"/>
      <point x="764" y="233"/>
      <point x="775" y="244"/>
      <point x="775" y="269" type="curve" smooth="yes"/>
    </contour>
    <contour>
      <point x="513" y="438" type="line" smooth="yes"/>
      <point x="513" y="463"/>
      <point x="502" y="475"/>
      <point x="477" y="476" type="curve" smooth="yes"/>
      <point x="91" y="490" type="line" smooth="yes"/>
      <point x="66" y="491"/>
      <point x="55" y="481"/>
      <point x="55" y="456" type="curve" smooth="yes"/>
      <point x="55" y="265" type="line" smooth="yes"/>
      <point x="55" y="240"/>
      <point x="66" y="230"/>
      <point x="91" y="231" type="curve" smooth="yes"/>
      <point x="477" y="246" type="line" smooth="yes"/>
      <point x="502" y="247"/>
      <point x="513" y="258"/>
      <point x="513" y="283" type="curve" smooth="yes"/>
    </contour>
  </outline>
</glyph>
<glyph name="numbersign" format="1">
  <advance width="880"/>
  <unicode hex="0023"/>
  <outline>
    <contour>
      <point x="764" y="80" type="line"/>
      <point x="789" y="77"/>
      <point x="800" y="91"/>
      <point x="800" y="116" type="curve" smooth="yes"/>
      <point x="800" y="221" type="line" smooth="yes"/>
      <point x="800" y="246"/>
      <point x="789" y="254"/>
      <point x="764" y="257" type="curve" smooth="yes"/>
      <point x="116" y="350" type="line" smooth="yes"/>
      <point x="91" y="353"/>
      <point x="80" y="339"/>
      <point x="80" y="314" type="curve" smooth="yes"/>
      <point x="80" y="209" type="line" smooth="yes"/>
      <point x="80" y="184"/>
      <point x="91" y="176"/>
      <point x="116" y="173" type="curve" smooth="yes"/>
    </contour>
    <contour>
      <point x="764" y="370" type="line" smooth="yes"/>
      <point x="789" y="367"/>
      <point x="800" y="381"/>
      <point x="800" y="406" type="curve" smooth="yes"/>
      <point x="800" y="511" type="line" smooth="yes"/>
      <point x="800" y="536"/>
      <point x="789" y="544"/>
      <point x="764" y="547" type="curve" smooth="yes"/>
      <point x="116" y="640" type="line" smooth="yes"/>
      <point x="91" y="643"/>
      <point x="80" y="629"/>
      <point x="80" y="604" type="curve" smooth="yes"/>
      <point x="80" y="499" type="line" smooth="yes"/>
      <point x="80" y="474"/>
      <point x="91" y="466"/>
      <point x="116" y="463" type="curve" smooth="yes"/>
    </contour>
    <contour>
      <point x="665" y="56" type="curve"/>
      <point x="665" y="628" type="line" smooth="yes"/>
      <point x="665" y="653"/>
      <point x="655" y="664"/>
      <point x="629" y="664" type="curve" smooth="yes"/>
      <point x="522" y="664" type="line" smooth="yes"/>
      <point x="496" y="664"/>
      <point x="486" y="653"/>
      <point x="486" y="628" type="curve" smooth="yes"/>
      <point x="486" y="56" type="line" smooth="yes"/>
      <point x="486" y="31"/>
      <point x="497" y="20"/>
      <point x="522" y="20" type="curve" smooth="yes"/>
      <point x="629" y="20" type="line" smooth="yes"/>
      <point x="655" y="20"/>
      <point x="665" y="31"/>
    </contour>
    <contour>
      <point x="389" y="92" type="curve"/>
      <point x="389" y="664" type="line" smooth="yes"/>
      <point x="389" y="689"/>
      <point x="379" y="700"/>
      <point x="353" y="700" type="curve" smooth="yes"/>
      <point x="246" y="700" type="line" smooth="yes"/>
      <point x="220" y="700"/>
      <point x="210" y="689"/>
      <point x="210" y="664" type="curve" smooth="yes"/>
      <point x="210" y="92" type="line" smooth="yes"/>
      <point x="210" y="67"/>
      <point x="221" y="56"/>
      <point x="246" y="56" type="curve" smooth="yes"/>
      <point x="353" y="56" type="line" smooth="yes"/>
      <point x="379" y="56"/>
      <point x="389" y="67"/>
    </contour>
  </outline>
</glyph>
<glyph name="dollar" format="1">
  <advance width="1010"/>
  <unicode hex="0024"/>
  <outline>
    <contour>
      <point x="782" y="259" type="line"/>
      <point x="919" y="259" type="line" smooth="yes"/>
      <point x="944" y="259"/>
      <point x="955" y="270"/>
      <point x="955" y="295" type="curve" smooth="yes"/>
      <point x="955" y="440" type="line" smooth="yes"/>
      <point x="955" y="465"/>
      <point x="944" y="476"/>
      <point x="919" y="476" type="curve" smooth="yes"/>
      <point x="782" y="476" type="line"/>
    </contour>
    <contour>
      <point x="243" y="476" type="line"/>
      <point x="91" y="476" type="line" smooth="yes"/>
      <point x="66" y="476"/>
      <point x="55" y="465"/>
      <point x="55" y="440" type="curve" smooth="yes"/>
      <point x="55" y="295" type="line" smooth="yes"/>
      <point x="55" y="270"/>
      <point x="66" y="259"/>
      <point x="91" y="259" type="curve" smooth="yes"/>
      <point x="243" y="259" type="line"/>
    </contour>
    <contour>
      <point x="865" y="438" type="line" smooth="yes"/>
      <point x="865" y="567"/>
      <point x="803" y="645"/>
      <point x="689" y="645" type="curve" smooth="yes"/>
      <point x="584" y="645" type="line" smooth="yes"/>
      <point x="472" y="645"/>
      <point x="432" y="583"/>
      <point x="418" y="489" type="curve" smooth="yes"/>
      <point x="398" y="340" type="line" smooth="yes"/>
      <point x="396" y="323"/>
      <point x="384" y="313"/>
      <point x="366" y="313" type="curve" smooth="yes"/>
      <point x="348" y="313"/>
      <point x="336" y="323"/>
      <point x="336" y="340" type="curve" smooth="yes"/>
      <point x="336" y="573" type="line" smooth="yes"/>
      <point x="336" y="598"/>
      <point x="325" y="609"/>
      <point x="300" y="609" type="curve" smooth="yes"/>
      <point x="181" y="609" type="line" smooth="yes"/>
      <point x="156" y="609"/>
      <point x="145" y="598"/>
      <point x="145" y="573" type="curve" smooth="yes"/>
      <point x="145" y="293" type="line" smooth="yes"/>
      <point x="145" y="163"/>
      <point x="207" y="86"/>
      <point x="321" y="86" type="curve" smooth="yes"/>
      <point x="426" y="86" type="line" smooth="yes"/>
      <point x="538" y="86"/>
      <point x="578" y="147"/>
      <point x="592" y="241" type="curve" smooth="yes"/>
      <point x="613" y="391" type="line" smooth="yes"/>
      <point x="615" y="408"/>
      <point x="624" y="417"/>
      <point x="647" y="417" type="curve" smooth="yes"/>
      <point x="663" y="417"/>
      <point x="676" y="408"/>
      <point x="676" y="391" type="curve" smooth="yes"/>
      <point x="676" y="122" type="line" smooth="yes"/>
      <point x="676" y="97"/>
      <point x="687" y="86"/>
      <point x="712" y="86" type="curve" smooth="yes"/>
      <point x="829" y="86" type="line" smooth="yes"/>
      <point x="854" y="86"/>
      <point x="865" y="97"/>
      <point x="865" y="122" type="curve" smooth="yes"/>
    </contour>
  </outline>
</glyph>
<glyph name="percent" format="2">
  <advance width="890"/>
  <unicode hex="0025"/>
  <outline>
    <contour>
      <point x="769" y="66" type="line" smooth="yes"/>
      <point x="790" y="52"/>
      <point x="805" y="62"/>
      <point x="805" y="87" type="curve" smooth="yes"/>
      <point x="805" y="172" type="line" smooth="yes"/>
      <point x="805" y="197"/>
      <point x="790" y="209"/>
      <point x="769" y="223" type="curve" smooth="yes"/>
      <point x="121" y="655" type="line" smooth="yes"/>
      <point x="100" y="669"/>
      <point x="85" y="659"/>
      <point x="85" y="634" type="curve" smooth="yes"/>
      <point x="85" y="549" type="line" smooth="yes"/>
      <point x="85" y="524"/>
      <point x="100" y="512"/>
      <point x="121" y="498" type="curve" smooth="yes"/>
    </contour>
    <contour>
      <point x="339" y="374" type="curve"/>
      <point x="199" y="374" type="line" smooth="yes"/>
      <point x="128" y="374"/>
      <point x="80" y="342"/>
      <point x="80" y="207" type="curve" smooth="yes"/>
      <point x="80" y="72"/>
      <point x="128" y="38"/>
      <point x="199" y="38" type="curve" smooth="yes"/>
      <point x="339" y="38" type="line" smooth="yes"/>
      <point x="410" y="38"/>
      <point x="458" y="72"/>
      <point x="458" y="207" type="curve" smooth="yes"/>
      <point x="458" y="342"/>
      <point x="410" y="374"/>
    </contour>
    <contour>
      <point x="308" y="183" type="curve"/>
      <point x="230" y="183" type="line" smooth="yes"/>
      <point x="222" y="183"/>
      <point x="213" y="186"/>
      <point x="213" y="207" type="curve" smooth="yes"/>
      <point x="213" y="227"/>
      <point x="222" y="230"/>
      <point x="230" y="230" type="curve" smooth="yes"/>
      <point x="308" y="230" type="line" smooth="yes"/>
      <point x="318" y="230"/>
      <point x="326" y="227"/>
      <point x="326" y="207" type="curve" smooth="yes"/>
      <point x="326" y="187"/>
      <point x="318" y="183"/>
    </contour>
    <contour>
      <point x="691" y="681" type="curve"/>
      <point x="551" y="681" type="line" smooth="yes"/>
      <point x="480" y="681"/>
      <point x="432" y="649"/>
      <point x="432" y="514" type="curve" smooth="yes"/>
      <point x="432" y="379"/>
      <point x="480" y="345"/>
      <point x="551" y="345" type="curve" smooth="yes"/>
      <point x="691" y="345" type="line" smooth="yes"/>
      <point x="762" y="345"/>
      <point x="810" y="379"/>
      <point x="810" y="514" type="curve" smooth="yes"/>
      <point x="810" y="663"/>
      <point x="762" y="681"/>
    </contour>
    <contour>
      <point x="660" y="490" type="curve"/>
      <point x="582" y="490" type="line" smooth="yes"/>
      <point x="574" y="490"/>
      <point x="565" y="493"/>
      <point x="565" y="514" type="curve" smooth="yes"/>
      <point x="565" y="534"/>
      <point x="574" y="537"/>
      <point x="582" y="537" type="curve" smooth="yes"/>
      <point x="660" y="537" type="line" smooth="yes"/>
      <point x="670" y="537"/>
      <point x="678" y="534"/>
      <point x="678" y="514" type="curve" smooth="yes"/>
      <point x="678" y="494"/>
      <point x="670" y="490"/>
    </contour>
  </outline>
</glyph>
<glyph name="ampersand" format="1">
  <advance width="834"/>
  <unicode hex="0026"/>
  <unicode hex="FF06"/>
  <outline>
    <contour>
      <point x="585" y="303" type="line" smooth="yes"/>
      <point x="585" y="271"/>
      <point x="571" y="265"/>
      <point x="555" y="265" type="curve" smooth="yes"/>
      <point x="524" y="265" type="line" smooth="yes"/>
      <point x="508" y="265"/>
      <point x="495" y="271"/>
      <point x="495" y="303" type="curve" smooth="yes"/>
      <point x="495" y="378" type="line" smooth="yes"/>
      <point x="495" y="403"/>
      <point x="484" y="414"/>
      <point x="459" y="414" type="curve" smooth="yes"/>
      <point x="356" y="414" type="line" smooth="yes"/>
      <point x="331" y="414"/>
      <point x="320" y="403"/>
      <point x="320" y="378" type="curve" smooth="yes"/>
      <point x="320" y="368" type="line" smooth="yes"/>
      <point x="320" y="336"/>
      <point x="306" y="330"/>
      <point x="290" y="330" type="curve" smooth="yes"/>
      <point x="269" y="330" type="line" smooth="yes"/>
      <point x="253" y="330"/>
      <point x="239" y="336"/>
      <point x="239" y="368" type="curve" smooth="yes"/>
      <point x="239" y="484" type="line" smooth="yes"/>
      <point x="239" y="509"/>
      <point x="228" y="520"/>
      <point x="203" y="520" type="curve" smooth="yes"/>
      <point x="88" y="520" type="line" smooth="yes"/>
      <point x="63" y="520"/>
      <point x="52" y="509"/>
      <point x="52" y="484" type="curve" smooth="yes"/>
      <point x="52" y="303" type="line" smooth="yes"/>
      <point x="52" y="167"/>
      <point x="117" y="111"/>
      <point x="205" y="111" type="curve" smooth="yes"/>
      <point x="253" y="111" type="line" smooth="yes"/>
      <point x="304" y="111"/>
      <point x="342" y="126"/>
      <point x="361" y="170" type="curve"/>
      <point x="368" y="98"/>
      <point x="422" y="44"/>
      <point x="516" y="44" type="curve" smooth="yes"/>
      <point x="596" y="44" type="line" smooth="yes"/>
      <point x="703" y="44"/>
      <point x="772" y="110"/>
      <point x="772" y="233" type="curve" smooth="yes"/>
      <point x="772" y="481" type="line" smooth="yes"/>
      <point x="772" y="597"/>
      <point x="703" y="660"/>
      <point x="596" y="660" type="curve" smooth="yes"/>
      <point x="551" y="660" type="line"/>
      <point x="551" y="683" type="line" smooth="yes"/>
      <point x="551" y="708"/>
      <point x="540" y="719"/>
      <point x="515" y="719" type="curve" smooth="yes"/>
      <point x="407" y="719" type="line" smooth="yes"/>
      <point x="381" y="719"/>
      <point x="371" y="708"/>
      <point x="371" y="683" type="curve" smooth="yes"/>
      <point x="371" y="499" type="line" smooth="yes"/>
      <point x="371" y="474"/>
      <point x="382" y="463"/>
      <point x="407" y="463" type="curve" smooth="yes"/>
      <point x="545" y="463" type="line" smooth="yes"/>
      <point x="572" y="463"/>
      <point x="585" y="454"/>
      <point x="585" y="425" type="curve" smooth="yes"/>
    </contour>
  </outline>
</glyph>
<glyph name="quotesingle" format="1">
  <advance width="519"/>
  <unicode hex="0027"/>
  <unicode hex="FF07"/>
  <outline>
    <contour>
      <point x="447" y="433" type="line" smooth="yes"/>
      <point x="447" y="468"/>
      <point x="441" y="473"/>
      <point x="406" y="475" type="curve" smooth="yes"/>
      <point x="113" y="483" type="line" smooth="yes"/>
      <point x="78" y="484"/>
      <point x="72" y="478"/>
      <point x="72" y="444" type="curve" smooth="yes"/>
      <point x="72" y="279" type="line" smooth="yes"/>
      <point x="72" y="244"/>
      <point x="78" y="238"/>
      <point x="113" y="239" type="curve" smooth="yes"/>
      <point x="406" y="247" type="line" smooth="yes"/>
      <point x="441" y="248"/>
      <point x="447" y="254"/>
      <point x="447" y="289" type="curve" smooth="yes"/>
    </contour>
  </outline>
</glyph>
<glyph name="parenleft" format="1">
  <advance width="429"/>
  <unicode hex="0028"/>
  <outline>
    <contour>
      <point x="294" y="801" type="line" smooth="yes"/>
      <point x="105" y="801"/>
      <point x="48" y="718"/>
      <point x="48" y="597" type="curve" smooth="yes"/>
      <point x="48" y="126" type="line" smooth="yes"/>
      <point x="48" y="4"/>
      <point x="105" y="-80"/>
      <point x="294" y="-80" type="curve" smooth="yes"/>
      <point x="348" y="-80" type="line" smooth="yes"/>
      <point x="373" y="-80"/>
      <point x="384" y="-69"/>
      <point x="384" y="-44" type="curve" smooth="yes"/>
      <point x="384" y="78" type="line" smooth="yes"/>
      <point x="384" y="103"/>
      <point x="373" y="114"/>
      <point x="348" y="114" type="curve" smooth="yes"/>
      <point x="317" y="114" type="line" smooth="yes"/>
      <point x="285" y="114"/>
      <point x="276" y="129"/>
      <point x="276" y="164" type="curve" smooth="yes"/>
      <point x="276" y="560" type="line"/>
      <point x="276" y="595"/>
      <point x="285" y="610"/>
      <point x="317" y="610" type="curve" smooth="yes"/>
      <point x="348" y="610" type="line" smooth="yes"/>
      <point x="373" y="610"/>
      <point x="384" y="621"/>
      <point x="384" y="646" type="curve" smooth="yes"/>
      <point x="384" y="765" type="line" smooth="yes"/>
      <point x="384" y="790"/>
      <point x="373" y="801"/>
      <point x="348" y="801" type="curve" smooth="yes"/>
    </contour>
  </outline>
</glyph>
<glyph name="parenright" format="1">
  <advance width="429"/>
  <unicode hex="0029"/>
  <outline>
    <contour>
      <point x="81" y="801" type="line" smooth="yes"/>
      <point x="56" y="801"/>
      <point x="45" y="790"/>
      <point x="45" y="765" type="curve" smooth="yes"/>
      <point x="45" y="646" type="line" smooth="yes"/>
      <point x="45" y="621"/>
      <point x="56" y="610"/>
      <point x="81" y="610" type="curve" smooth="yes"/>
      <point x="112" y="610" type="line" smooth="yes"/>
      <point x="144" y="610"/>
      <point x="153" y="595"/>
      <point x="153" y="560" type="curve"/>
      <point x="153" y="164" type="line" smooth="yes"/>
      <point x="153" y="129"/>
      <point x="144" y="114"/>
      <point x="112" y="114" type="curve" smooth="yes"/>
      <point x="81" y="114" type="line" smooth="yes"/>
      <point x="56" y="114"/>
      <point x="45" y="103"/>
      <point x="45" y="78" type="curve" smooth="yes"/>
      <point x="45" y="-44" type="line" smooth="yes"/>
      <point x="45" y="-69"/>
      <point x="56" y="-80"/>
      <point x="81" y="-80" type="curve" smooth="yes"/>
      <point x="135" y="-80" type="line" smooth="yes"/>
      <point x="324" y="-80"/>
      <point x="381" y="4"/>
      <point x="381" y="126" type="curve" smooth="yes"/>
      <point x="381" y="597" type="line" smooth="yes"/>
      <point x="381" y="718"/>
      <point x="324" y="801"/>
      <point x="135" y="801" type="curve" smooth="yes"/>
    </contour>
  </outline>
</glyph>
<glyph name="asterisk" format="1">
  <advance width="742"/>
  <unicode hex="002A"/>
  <unicode hex="FF0A"/>
  <outline>
    <contour>
      <point x="635" y="288" type="curve" smooth="yes"/>
      <point x="494" y="361" type="line"/>
      <point x="635" y="435" type="line" smooth="yes"/>
      <point x="663" y="451"/>
      <point x="666" y="458"/>
      <point x="647" y="487" type="curve" smooth="yes"/>
      <point x="579" y="581" type="line" smooth="yes"/>
      <point x="559" y="609"/>
      <point x="550" y="610"/>
      <point x="525" y="587" type="curve" smooth="yes"/>
      <point x="410" y="477" type="line"/>
      <point x="385" y="630" type="line" smooth="yes"/>
      <point x="379" y="664"/>
      <point x="372" y="669"/>
      <point x="339" y="658" type="curve" smooth="yes"/>
      <point x="228" y="621" type="line" smooth="yes"/>
      <point x="195" y="610"/>
      <point x="191" y="602"/>
      <point x="206" y="572" type="curve" smooth="yes"/>
      <point x="270" y="435" type="line"/>
      <point x="121" y="455" type="line" smooth="yes"/>
      <point x="87" y="461"/>
      <point x="80" y="455"/>
      <point x="80" y="421" type="curve" smooth="yes"/>
      <point x="80" y="304" type="line" smooth="yes"/>
      <point x="80" y="270"/>
      <point x="87" y="263"/>
      <point x="121" y="268" type="curve" smooth="yes"/>
      <point x="270" y="291" type="line"/>
      <point x="206" y="149" type="line" smooth="yes"/>
      <point x="191" y="119"/>
      <point x="195" y="110"/>
      <point x="228" y="100" type="curve" smooth="yes"/>
      <point x="339" y="64" type="line" smooth="yes"/>
      <point x="372" y="53"/>
      <point x="379" y="58"/>
      <point x="385" y="92" type="curve" smooth="yes"/>
      <point x="410" y="244" type="line"/>
      <point x="525" y="135" type="line" smooth="yes"/>
      <point x="550" y="112"/>
      <point x="559" y="113"/>
      <point x="579" y="141" type="curve" smooth="yes"/>
      <point x="647" y="235" type="line"/>
      <point x="666" y="264"/>
      <point x="663" y="272"/>
    </contour>
  </outline>
</glyph>
<glyph name="plus" format="1">
  <advance width="718"/>
  <unicode hex="002B"/>
  <outline>
    <contour>
      <point x="452" y="99" type="curve"/>
      <point x="452" y="621" type="line" smooth="yes"/>
      <point x="452" y="646"/>
      <point x="442" y="657"/>
      <point x="416" y="657" type="curve" smooth="yes"/>
      <point x="302" y="657" type="line" smooth="yes"/>
      <point x="276" y="657"/>
      <point x="266" y="646"/>
      <point x="266" y="621" type="curve" smooth="yes"/>
      <point x="266" y="99" type="line" smooth="yes"/>
      <point x="266" y="74"/>
      <point x="277" y="63"/>
      <point x="302" y="63" type="curve" smooth="yes"/>
      <point x="416" y="63" type="line" smooth="yes"/>
      <point x="442" y="63"/>
      <point x="452" y="74"/>
    </contour>
    <contour>
      <point x="98" y="262" type="curve"/>
      <point x="620" y="262" type="line" smooth="yes"/>
      <point x="645" y="262"/>
      <point x="656" y="272"/>
      <point x="656" y="298" type="curve" smooth="yes"/>
      <point x="656" y="422" type="line" smooth="yes"/>
      <point x="656" y="448"/>
      <point x="645" y="458"/>
      <point x="620" y="458" type="curve" smooth="yes"/>
      <point x="98" y="458" type="line" smooth="yes"/>
      <point x="73" y="458"/>
      <point x="62" y="447"/>
      <point x="62" y="422" type="curve" smooth="yes"/>
      <point x="62" y="298" type="line" smooth="yes"/>
      <point x="62" y="272"/>
      <point x="73" y="262"/>
    </contour>
  </outline>
</glyph>
<glyph name="comma" format="1">
  <advance width="499"/>
  <unicode hex="002C"/>
  <outline>
    <contour>
      <point x="447" y="349" type="line" smooth="yes"/>
      <point x="447" y="439"/>
      <point x="398" y="497"/>
      <point x="296" y="497" type="curve" smooth="yes"/>
      <point x="108" y="497" type="line" smooth="yes"/>
      <point x="83" y="497"/>
      <point x="72" y="486"/>
      <point x="72" y="461" type="curve" smooth="yes"/>
      <point x="72" y="259" type="line" smooth="yes"/>
      <point x="72" y="234"/>
      <point x="83" y="223"/>
      <point x="108" y="223" type="curve" smooth="yes"/>
      <point x="256" y="223" type="line" smooth="yes"/>
      <point x="281" y="223"/>
      <point x="292" y="234"/>
      <point x="292" y="259" type="curve" smooth="yes"/>
      <point x="292" y="368" type="line"/>
      <point x="307" y="368" type="line" smooth="yes"/>
      <point x="325" y="368"/>
      <point x="335" y="359"/>
      <point x="335" y="341" type="curve" smooth="yes"/>
      <point x="335" y="272" type="line" smooth="yes"/>
      <point x="335" y="247"/>
      <point x="346" y="236"/>
      <point x="371" y="236" type="curve" smooth="yes"/>
      <point x="411" y="236" type="line" smooth="yes"/>
      <point x="437" y="236"/>
      <point x="447" y="247"/>
      <point x="447" y="272" type="curve" smooth="yes"/>
    </contour>
  </outline>
</glyph>
<glyph name="hyphen" format="2">
  <advance width="420"/>
  <unicode hex="002D"/>
  <unicode hex="00AD"/>
  <unicode hex="2010"/>
  <outline>
    <contour>
      <point x="76" y="258" type="curve"/>
      <point x="344" y="258" type="line" smooth="yes"/>
      <point x="369" y="258"/>
      <point x="380" y="268"/>
      <point x="380" y="294" type="curve" smooth="yes"/>
      <point x="380" y="428" type="line" smooth="yes"/>
      <point x="380" y="454"/>
      <point x="369" y="464"/>
      <point x="344" y="464" type="curve" smooth="yes"/>
      <point x="76" y="464" type="line" smooth="yes"/>
      <point x="51" y="464"/>
      <point x="40" y="453"/>
      <point x="40" y="428" type="curve" smooth="yes"/>
      <point x="40" y="294" type="line" smooth="yes"/>
      <point x="40" y="268"/>
      <point x="51" y="258"/>
    </contour>
  </outline>
</glyph>
<glyph name="slash" format="1">
  <advance width="909"/>
  <unicode hex="002F"/>
  <outline>
    <contour>
      <point x="869" y="191" type="line"/>
      <point x="894" y="188"/>
      <point x="905" y="202"/>
      <point x="905" y="227" type="curve" smooth="yes"/>
      <point x="905" y="372" type="line" smooth="yes"/>
      <point x="905" y="397"/>
      <point x="894" y="405"/>
      <point x="869" y="408" type="curve" smooth="yes"/>
      <point x="41" y="528" type="line" smooth="yes"/>
      <point x="16" y="531"/>
      <point x="5" y="517"/>
      <point x="5" y="492" type="curve" smooth="yes"/>
      <point x="5" y="347" type="line" smooth="yes"/>
      <point x="5" y="322"/>
      <point x="16" y="314"/>
      <point x="41" y="311" type="curve" smooth="yes"/>
    </contour>
  </outline>
</glyph>
<glyph name="zero" format="1">
  <advance width="864"/>
  <unicode hex="0030"/>
  <unicode hex="FF10"/>
  <outline>
    <contour>
      <point x="603" y="660" type="curve" smooth="yes"/>
      <point x="262" y="660" type="line" smooth="yes"/>
      <point x="140" y="660"/>
      <point x="57" y="598"/>
      <point x="57" y="360" type="curve" smooth="yes"/>
      <point x="57" y="122"/>
      <point x="140" y="60"/>
      <point x="262" y="60" type="curve" smooth="yes"/>
      <point x="603" y="60" type="line" smooth="yes"/>
      <point x="725" y="60"/>
      <point x="807" y="122"/>
      <point x="807" y="360" type="curve" smooth="yes"/>
      <point x="807" y="598"/>
      <point x="725" y="660"/>
    </contour>
    <contour>
      <point x="567" y="286" type="curve" smooth="yes"/>
      <point x="298" y="286" type="line" smooth="yes"/>
      <point x="272" y="286"/>
      <point x="252" y="300"/>
      <point x="252" y="360" type="curve" smooth="yes"/>
      <point x="252" y="420"/>
      <point x="272" y="435"/>
      <point x="298" y="435" type="curve" smooth="yes"/>
      <point x="567" y="435" type="line" smooth="yes"/>
      <point x="594" y="435"/>
      <point x="614" y="420"/>
      <point x="614" y="360" type="curve" smooth="yes"/>
      <point x="614" y="300"/>
      <point x="594" y="286"/>
    </contour>
    <contour>
      <point x="45" y="365" type="move" name="top"/>
    </contour>
    <contour>
      <point x="792" y="365" type="move" name="bottom"/>
    </contour>
  </outline>
</glyph>
<glyph name="one" format="1">
  <advance width="872"/>
  <unicode hex="0031"/>
  <unicode hex="FF11"/>
  <outline>
    <contour>
      <point x="792" y="623" type="line" smooth="yes"/>
      <point x="792" y="648"/>
      <point x="781" y="659"/>
      <point x="756" y="659" type="curve"/>
      <point x="635" y="659" type="line" smooth="yes"/>
      <point x="610" y="659"/>
      <point x="599" y="648"/>
      <point x="599" y="623" type="curve"/>
      <point x="599" y="489" type="line"/>
      <point x="108" y="489" type="line" smooth="yes"/>
      <point x="83" y="489"/>
      <point x="72" y="478"/>
      <point x="72" y="453" type="curve" smooth="yes"/>
      <point x="72" y="113" type="line" smooth="yes"/>
      <point x="72" y="88"/>
      <point x="83" y="77"/>
      <point x="108" y="77" type="curve" smooth="yes"/>
      <point x="229" y="77" type="line" smooth="yes"/>
      <point x="254" y="77"/>
      <point x="265" y="88"/>
      <point x="265" y="113" type="curve" smooth="yes"/>
      <point x="265" y="255" type="line"/>
      <point x="599" y="255" type="line"/>
      <point x="599" y="96" type="line" smooth="yes"/>
      <point x="599" y="71"/>
      <point x="610" y="60"/>
      <point x="635" y="60" type="curve"/>
      <point x="756" y="60" type="line"/>
      <point x="781" y="60"/>
      <point x="792" y="71"/>
      <point x="792" y="96" type="curve" smooth="yes"/>
    </contour>
  </outline>
</glyph>
<glyph name="two" format="1">
  <advance width="872"/>
  <unicode hex="0032"/>
  <unicode hex="FF12"/>
  <outline>
    <contour>
      <point x="792" y="624" type="line" smooth="yes"/>
      <point x="792" y="649"/>
      <point x="781" y="660"/>
      <point x="756" y="660" type="curve" smooth="yes"/>
      <point x="639" y="660" type="line" smooth="yes"/>
      <point x="614" y="660"/>
      <point x="603" y="649"/>
      <point x="603" y="624" type="curve"/>
      <point x="603" y="287" type="line"/>
      <point x="577" y="287" type="line" smooth="yes"/>
      <point x="555" y="287"/>
      <point x="553" y="293"/>
      <point x="547" y="313" type="curve" smooth="yes"/>
      <point x="504" y="503" type="line" smooth="yes"/>
      <point x="482" y="602"/>
      <point x="428" y="659"/>
      <point x="327" y="659" type="curve" smooth="yes"/>
      <point x="238" y="659" type="line" smooth="yes"/>
      <point x="130" y="659"/>
      <point x="72" y="597"/>
      <point x="72" y="483" type="curve" smooth="yes"/>
      <point x="72" y="116" type="line" smooth="yes"/>
      <point x="72" y="91"/>
      <point x="83" y="80"/>
      <point x="108" y="80" type="curve" smooth="yes"/>
      <point x="227" y="80" type="line" smooth="yes"/>
      <point x="252" y="80"/>
      <point x="263" y="91"/>
      <point x="263" y="116" type="curve" smooth="yes"/>
      <point x="263" y="405" type="line" smooth="yes"/>
      <point x="263" y="425"/>
      <point x="267" y="432"/>
      <point x="287" y="432" type="curve" smooth="yes"/>
      <point x="309" y="432"/>
      <point x="312" y="426"/>
      <point x="318" y="405" type="curve" smooth="yes"/>
      <point x="360" y="217" type="line" smooth="yes"/>
      <point x="388" y="125"/>
      <point x="424" y="60"/>
      <point x="579" y="60" type="curve" smooth="yes"/>
      <point x="756" y="60" type="line" smooth="yes"/>
      <point x="781" y="60"/>
      <point x="792" y="71"/>
      <point x="792" y="96" type="curve" smooth="yes"/>
    </contour>
  </outline>
</glyph>
<glyph name="three" format="1">
  <advance width="864"/>
  <unicode hex="0033"/>
  <outline>
    <contour>
      <point x="603" y="96" type="line" smooth="yes"/>
      <point x="603" y="71"/>
      <point x="614" y="60"/>
      <point x="639" y="60" type="curve" smooth="yes"/>
      <point x="756" y="60" type="line" smooth="yes"/>
      <point x="781" y="60"/>
      <point x="792" y="71"/>
      <point x="792" y="96" type="curve" smooth="yes"/>
      <point x="792" y="468" type="line" smooth="yes"/>
      <point x="792" y="596"/>
      <point x="729" y="662"/>
      <point x="626" y="662" type="curve" smooth="yes"/>
      <point x="526" y="662" type="line" smooth="yes"/>
      <point x="438" y="662"/>
      <point x="392" y="631"/>
      <point x="381" y="536" type="curve"/>
      <point x="362" y="580"/>
      <point x="324" y="595"/>
      <point x="273" y="595" type="curve" smooth="yes"/>
      <point x="215" y="595" type="line" smooth="yes"/>
      <point x="127" y="595"/>
      <point x="72" y="542"/>
      <point x="72" y="431" type="curve" smooth="yes"/>
      <point x="72" y="96" type="line" smooth="yes"/>
      <point x="72" y="71"/>
      <point x="83" y="60"/>
      <point x="108" y="60" type="curve" smooth="yes"/>
      <point x="227" y="60" type="line" smooth="yes"/>
      <point x="252" y="60"/>
      <point x="263" y="71"/>
      <point x="263" y="96" type="curve" smooth="yes"/>
      <point x="263" y="338" type="line" smooth="yes"/>
      <point x="263" y="370"/>
      <point x="277" y="376"/>
      <point x="293" y="376" type="curve" smooth="yes"/>
      <point x="308" y="376" type="line" smooth="yes"/>
      <point x="324" y="376"/>
      <point x="338" y="370"/>
      <point x="338" y="338" type="curve" smooth="yes"/>
      <point x="338" y="177" type="line" smooth="yes"/>
      <point x="338" y="152"/>
      <point x="349" y="141"/>
      <point x="374" y="141" type="curve" smooth="yes"/>
      <point x="481" y="141" type="line" smooth="yes"/>
      <point x="506" y="141"/>
      <point x="517" y="152"/>
      <point x="517" y="177" type="curve" smooth="yes"/>
      <point x="517" y="403" type="line" smooth="yes"/>
      <point x="517" y="435"/>
      <point x="530" y="441"/>
      <point x="546" y="441" type="curve" smooth="yes"/>
      <point x="573" y="441" type="line" smooth="yes"/>
      <point x="589" y="441"/>
      <point x="603" y="435"/>
      <point x="603" y="403" type="curve" smooth="yes"/>
    </contour>
  </outline>
</glyph>
<glyph name="four" format="1">
  <advance width="842"/>
  <unicode hex="0034"/>
  <unicode hex="FF14"/>
  <outline>
    <contour>
      <point x="620" y="434" type="line"/>
      <point x="751" y="434" type="line" smooth="yes"/>
      <point x="776" y="434"/>
      <point x="787" y="445"/>
      <point x="787" y="470" type="curve" smooth="yes"/>
      <point x="787" y="624" type="line" smooth="yes"/>
      <point x="787" y="649"/>
      <point x="776" y="660"/>
      <point x="751" y="660" type="curve" smooth="yes"/>
      <point x="103" y="660" type="line" smooth="yes"/>
      <point x="78" y="660"/>
      <point x="67" y="649"/>
      <point x="67" y="624" type="curve" smooth="yes"/>
      <point x="67" y="470" type="line" smooth="yes"/>
      <point x="67" y="445"/>
      <point x="78" y="434"/>
      <point x="103" y="434" type="curve" smooth="yes"/>
      <point x="411" y="434" type="line"/>
      <point x="411" y="318" type="line" smooth="yes"/>
      <point x="411" y="299"/>
      <point x="398" y="287"/>
      <point x="377" y="287" type="curve" smooth="yes"/>
      <point x="103" y="287" type="line" smooth="yes"/>
      <point x="78" y="287"/>
      <point x="67" y="276"/>
      <point x="67" y="251" type="curve" smooth="yes"/>
      <point x="67" y="96" type="line" smooth="yes"/>
      <point x="67" y="71"/>
      <point x="78" y="60"/>
      <point x="103" y="60" type="curve" smooth="yes"/>
      <point x="454" y="60" type="line" smooth="yes"/>
      <point x="568" y="60"/>
      <point x="620" y="112"/>
      <point x="620" y="242" type="curve" smooth="yes"/>
    </contour>
  </outline>
</glyph>
<glyph name="five" format="1">
  <advance width="872"/>
  <unicode hex="0035"/>
  <unicode hex="FF15"/>
  <outline>
    <contour>
      <point x="800" y="467" type="line" smooth="yes"/>
      <point x="800" y="587"/>
      <point x="736" y="662"/>
      <point x="634" y="662" type="curve" smooth="yes"/>
      <point x="495" y="662" type="line" smooth="yes"/>
      <point x="389" y="662"/>
      <point x="336" y="595"/>
      <point x="336" y="487" type="curve" smooth="yes"/>
      <point x="336" y="297" type="line"/>
      <point x="271" y="297" type="line"/>
      <point x="271" y="590" type="line" smooth="yes"/>
      <point x="271" y="615"/>
      <point x="260" y="626"/>
      <point x="235" y="626" type="curve" smooth="yes"/>
      <point x="116" y="626" type="line" smooth="yes"/>
      <point x="91" y="626"/>
      <point x="80" y="615"/>
      <point x="80" y="590" type="curve" smooth="yes"/>
      <point x="80" y="106" type="line" smooth="yes"/>
      <point x="80" y="81"/>
      <point x="91" y="70"/>
      <point x="116" y="70" type="curve" smooth="yes"/>
      <point x="490" y="70" type="line" smooth="yes"/>
      <point x="515" y="70"/>
      <point x="526" y="81"/>
      <point x="526" y="106" type="curve" smooth="yes"/>
      <point x="526" y="407" type="line" smooth="yes"/>
      <point x="526" y="423"/>
      <point x="533" y="434"/>
      <point x="549" y="434" type="curve" smooth="yes"/>
      <point x="588" y="434" type="line" smooth="yes"/>
      <point x="604" y="434"/>
      <point x="611" y="423"/>
      <point x="611" y="407" type="curve" smooth="yes"/>
      <point x="611" y="96" type="line" smooth="yes"/>
      <point x="611" y="71"/>
      <point x="622" y="60"/>
      <point x="647" y="60" type="curve" smooth="yes"/>
      <point x="764" y="60" type="line" smooth="yes"/>
      <point x="789" y="60"/>
      <point x="800" y="71"/>
      <point x="800" y="96" type="curve" smooth="yes"/>
    </contour>
  </outline>
</glyph>
<glyph name="six" format="2">
  <advance width="859"/>
  <unicode hex="0036"/>
  <outline>
    <contour>
      <point x="455" y="281" type="line"/>
      <point x="317" y="281" type="line" smooth="yes"/>
      <point x="268" y="281"/>
      <point x="257" y="295"/>
      <point x="257" y="344" type="curve" smooth="yes"/>
      <point x="257" y="553" type="line" smooth="yes"/>
      <point x="257" y="578"/>
      <point x="246" y="589"/>
      <point x="221" y="589" type="curve" smooth="yes"/>
      <point x="103" y="589" type="line" smooth="yes"/>
      <point x="78" y="589"/>
      <point x="67" y="579"/>
      <point x="67" y="553" type="curve" smooth="yes"/>
      <point x="67" y="301" type="line" smooth="yes"/>
      <point x="67" y="112"/>
      <point x="150" y="55"/>
      <point x="272" y="55" type="curve" smooth="yes"/>
      <point x="600" y="55" type="line" smooth="yes"/>
      <point x="722" y="55"/>
      <point x="802" y="116"/>
      <point x="802" y="362" type="curve" smooth="yes"/>
      <point x="802" y="592"/>
      <point x="722" y="665"/>
      <point x="600" y="665" type="curve" smooth="yes"/>
      <point x="504" y="665" type="line" smooth="yes"/>
      <point x="385" y="665"/>
      <point x="324" y="612"/>
      <point x="324" y="431" type="curve" smooth="yes"/>
      <point x="324" y="241"/>
      <point x="391" y="176"/>
      <point x="489" y="176" type="curve"/>
    </contour>
    <contour>
      <point x="532" y="281" type="line" smooth="yes"/>
      <point x="505" y="281"/>
      <point x="489" y="297"/>
      <point x="489" y="355" type="curve" smooth="yes"/>
      <point x="489" y="415"/>
      <point x="505" y="439"/>
      <point x="532" y="439" type="curve" smooth="yes"/>
      <point x="579" y="439" type="line" smooth="yes"/>
      <point x="605" y="439"/>
      <point x="621" y="415"/>
      <point x="621" y="355" type="curve" smooth="yes"/>
      <point x="621" y="297"/>
      <point x="605" y="281"/>
      <point x="580" y="281" type="curve" smooth="yes"/>
    </contour>
  </outline>
</glyph>
<glyph name="seven" format="1">
  <advance width="857"/>
  <unicode hex="0037"/>
  <unicode hex="FF17"/>
  <outline>
    <contour>
      <point x="80" y="624" type="curve"/>
      <point x="80" y="96" type="line" smooth="yes"/>
      <point x="80" y="71"/>
      <point x="91" y="60"/>
      <point x="116" y="60" type="curve" smooth="yes"/>
      <point x="237" y="60" type="line" smooth="yes"/>
      <point x="262" y="60"/>
      <point x="273" y="71"/>
      <point x="273" y="96" type="curve" smooth="yes"/>
      <point x="273" y="433" type="line"/>
      <point x="363" y="433" type="line"/>
      <point x="385" y="313" type="line" smooth="yes"/>
      <point x="405" y="203"/>
      <point x="456" y="157"/>
      <point x="583" y="157" type="curve" smooth="yes"/>
      <point x="764" y="157" type="line" smooth="yes"/>
      <point x="789" y="157"/>
      <point x="800" y="168"/>
      <point x="800" y="193" type="curve" smooth="yes"/>
      <point x="800" y="355" type="line" smooth="yes"/>
      <point x="800" y="380"/>
      <point x="789" y="391"/>
      <point x="764" y="391" type="curve" smooth="yes"/>
      <point x="589" y="391" type="line"/>
      <point x="567" y="504" type="line" smooth="yes"/>
      <point x="546" y="614"/>
      <point x="496" y="660"/>
      <point x="369" y="660" type="curve" smooth="yes"/>
      <point x="116" y="660" type="line" smooth="yes"/>
      <point x="91" y="660"/>
      <point x="80" y="649"/>
    </contour>
  </outline>
</glyph>
<glyph name="eight" format="2">
  <advance width="864"/>
  <unicode hex="0038"/>
  <outline>
    <contour>
      <point x="312" y="298" type="curve"/>
      <point x="268" y="298" type="line" smooth="yes"/>
      <point x="248" y="298"/>
      <point x="232" y="305"/>
      <point x="232" y="361" type="curve" smooth="yes"/>
      <point x="232" y="418"/>
      <point x="248" y="423"/>
      <point x="268" y="423" type="curve" smooth="yes"/>
      <point x="312" y="423" type="line" smooth="yes"/>
      <point x="333" y="423"/>
      <point x="349" y="418"/>
      <point x="349" y="361" type="curve" smooth="yes"/>
      <point x="349" y="305"/>
      <point x="333" y="298"/>
    </contour>
    <contour>
      <point x="595" y="276" type="curve" smooth="yes"/>
      <point x="542" y="276" type="line" smooth="yes"/>
      <point x="522" y="276"/>
      <point x="506" y="289"/>
      <point x="506" y="361" type="curve" smooth="yes"/>
      <point x="506" y="434"/>
      <point x="522" y="445"/>
      <point x="542" y="445" type="curve" smooth="yes"/>
      <point x="595" y="445" type="line" smooth="yes"/>
      <point x="616" y="445"/>
      <point x="632" y="434"/>
      <point x="632" y="361" type="curve" smooth="yes"/>
      <point x="632" y="289"/>
      <point x="616" y="276"/>
    </contour>
    <contour>
      <point x="536" y="666" type="line" smooth="yes"/>
      <point x="442" y="666"/>
      <point x="393" y="623"/>
      <point x="381" y="563" type="curve"/>
      <point x="362" y="607"/>
      <point x="324" y="622"/>
      <point x="273" y="622" type="curve" smooth="yes"/>
      <point x="215" y="622" type="line" smooth="yes"/>
      <point x="117" y="622"/>
      <point x="57" y="563"/>
      <point x="57" y="362" type="curve" smooth="yes"/>
      <point x="57" y="161"/>
      <point x="117" y="99"/>
      <point x="215" y="99" type="curve" smooth="yes"/>
      <point x="273" y="99" type="line" smooth="yes"/>
      <point x="324" y="99"/>
      <point x="362" y="114"/>
      <point x="381" y="158" type="curve"/>
      <point x="393" y="98"/>
      <point x="442" y="55"/>
      <point x="536" y="55" type="curve" smooth="yes"/>
      <point x="633" y="55" type="line" smooth="yes"/>
      <point x="737" y="55"/>
      <point x="807" y="120"/>
      <point x="807" y="361" type="curve" smooth="yes"/>
      <point x="807" y="602"/>
      <point x="737" y="666"/>
      <point x="633" y="666" type="curve" smooth="yes"/>
    </contour>
  </outline>
</glyph>
<glyph name="nine" format="1">
  <advance width="860"/>
  <unicode hex="0039"/>
  <unicode hex="FF19"/>
  <outline>
    <contour>
      <point x="327" y="439" type="line" smooth="yes"/>
      <point x="354" y="439"/>
      <point x="370" y="423"/>
      <point x="370" y="365" type="curve" smooth="yes"/>
      <point x="370" y="305"/>
      <point x="354" y="281"/>
      <point x="327" y="281" type="curve" smooth="yes"/>
      <point x="280" y="281" type="line" smooth="yes"/>
      <point x="254" y="281"/>
      <point x="238" y="305"/>
      <point x="238" y="365" type="curve" smooth="yes"/>
      <point x="238" y="423"/>
      <point x="254" y="439"/>
      <point x="279" y="439" type="curve" smooth="yes"/>
    </contour>
    <contour>
      <point x="404" y="439" type="line"/>
      <point x="542" y="439" type="line" smooth="yes"/>
      <point x="591" y="439"/>
      <point x="602" y="425"/>
      <point x="602" y="376" type="curve" smooth="yes"/>
      <point x="602" y="167" type="line" smooth="yes"/>
      <point x="602" y="142"/>
      <point x="613" y="131"/>
      <point x="638" y="131" type="curve" smooth="yes"/>
      <point x="756" y="131" type="line" smooth="yes"/>
      <point x="781" y="131"/>
      <point x="793" y="141"/>
      <point x="793" y="167" type="curve" smooth="yes"/>
      <point x="793" y="419" type="line" smooth="yes"/>
      <point x="793" y="608"/>
      <point x="709" y="665"/>
      <point x="587" y="665" type="curve" smooth="yes"/>
      <point x="259" y="665" type="line" smooth="yes"/>
      <point x="137" y="665"/>
      <point x="57" y="604"/>
      <point x="57" y="358" type="curve" smooth="yes"/>
      <point x="57" y="128"/>
      <point x="137" y="55"/>
      <point x="259" y="55" type="curve" smooth="yes"/>
      <point x="355" y="55" type="line" smooth="yes"/>
      <point x="474" y="55"/>
      <point x="535" y="108"/>
      <point x="535" y="289" type="curve" smooth="yes"/>
      <point x="535" y="479"/>
      <point x="468" y="544"/>
      <point x="370" y="544" type="curve"/>
    </contour>
  </outline>
</glyph>
<glyph name="colon" format="2">
  <advance width="784"/>
  <unicode hex="003A"/>
  <outline>
    <contour>
      <point x="705" y="461" type="line" smooth="yes"/>
      <point x="705" y="486"/>
      <point x="694" y="497"/>
      <point x="669" y="497" type="curve" smooth="yes"/>
      <point x="466" y="497" type="line" smooth="yes"/>
      <point x="440" y="497"/>
      <point x="430" y="486"/>
      <point x="430" y="461" type="curve" smooth="yes"/>
      <point x="430" y="259" type="line" smooth="yes"/>
      <point x="430" y="234"/>
      <point x="440" y="223"/>
      <point x="466" y="223" type="curve"/>
      <point x="669" y="223" type="line"/>
      <point x="694" y="223"/>
      <point x="705" y="234"/>
      <point x="705" y="259" type="curve" smooth="yes"/>
    </contour>
    <contour>
      <point x="350" y="461" type="line" smooth="yes"/>
      <point x="350" y="486"/>
      <point x="339" y="497"/>
      <point x="314" y="497" type="curve" smooth="yes"/>
      <point x="111" y="497" type="line" smooth="yes"/>
      <point x="85" y="497"/>
      <point x="75" y="486"/>
      <point x="75" y="461" type="curve" smooth="yes"/>
      <point x="75" y="259" type="line" smooth="yes"/>
      <point x="75" y="234"/>
      <point x="85" y="223"/>
      <point x="111" y="223" type="curve"/>
      <point x="314" y="223" type="line"/>
      <point x="339" y="223"/>
      <point x="350" y="234"/>
      <point x="350" y="259" type="curve" smooth="yes"/>
    </contour>
  </outline>
</glyph>
<glyph name="semicolon" format="2">
  <advance width="859"/>
  <unicode hex="003B"/>
  <outline>
    <contour>
      <point x="350" y="461" type="line" smooth="yes"/>
      <point x="350" y="486"/>
      <point x="339" y="497"/>
      <point x="314" y="497" type="curve" smooth="yes"/>
      <point x="111" y="497" type="line" smooth="yes"/>
      <point x="85" y="497"/>
      <point x="75" y="486"/>
      <point x="75" y="461" type="curve" smooth="yes"/>
      <point x="75" y="259" type="line" smooth="yes"/>
      <point x="75" y="234"/>
      <point x="85" y="223"/>
      <point x="111" y="223" type="curve"/>
      <point x="314" y="223" type="line"/>
      <point x="339" y="223"/>
      <point x="350" y="234"/>
      <point x="350" y="259" type="curve" smooth="yes"/>
    </contour>
    <contour>
      <point x="797" y="349" type="line" smooth="yes"/>
      <point x="797" y="439"/>
      <point x="748" y="497"/>
      <point x="646" y="497" type="curve" smooth="yes"/>
      <point x="458" y="497" type="line" smooth="yes"/>
      <point x="433" y="497"/>
      <point x="422" y="486"/>
      <point x="422" y="461" type="curve" smooth="yes"/>
      <point x="422" y="259" type="line" smooth="yes"/>
      <point x="422" y="234"/>
      <point x="433" y="223"/>
      <point x="458" y="223" type="curve" smooth="yes"/>
      <point x="606" y="223" type="line" smooth="yes"/>
      <point x="631" y="223"/>
      <point x="642" y="234"/>
      <point x="642" y="259" type="curve" smooth="yes"/>
      <point x="642" y="368" type="line"/>
      <point x="657" y="368" type="line" smooth="yes"/>
      <point x="675" y="368"/>
      <point x="685" y="359"/>
      <point x="685" y="341" type="curve" smooth="yes"/>
      <point x="685" y="272" type="line" smooth="yes"/>
      <point x="685" y="247"/>
      <point x="696" y="236"/>
      <point x="721" y="236" type="curve" smooth="yes"/>
      <point x="761" y="236" type="line" smooth="yes"/>
      <point x="787" y="236"/>
      <point x="797" y="247"/>
      <point x="797" y="272" type="curve" smooth="yes"/>
    </contour>
  </outline>
</glyph>
<glyph name="less" format="2">
  <advance width="726"/>
  <unicode hex="003C"/>
  <outline>
    <contour>
      <point x="663" y="591" type="line" smooth="yes"/>
      <point x="668" y="616"/>
      <point x="658" y="627"/>
      <point x="632" y="627" type="curve" smooth="yes"/>
      <point x="500" y="627" type="line" smooth="yes"/>
      <point x="474" y="627"/>
      <point x="463" y="616"/>
      <point x="459" y="591" type="curve" smooth="yes"/>
      <point x="382" y="304" type="line" smooth="yes"/>
      <point x="379" y="290"/>
      <point x="375" y="287"/>
      <point x="363" y="287" type="curve" smooth="yes"/>
      <point x="351" y="287"/>
      <point x="347" y="290"/>
      <point x="344" y="304" type="curve" smooth="yes"/>
      <point x="267" y="591" type="line" smooth="yes"/>
      <point x="263" y="616"/>
      <point x="252" y="627"/>
      <point x="226" y="627" type="curve" smooth="yes"/>
      <point x="94" y="627" type="line" smooth="yes"/>
      <point x="68" y="627"/>
      <point x="58" y="616"/>
      <point x="63" y="591" type="curve" smooth="yes"/>
      <point x="172" y="210" type="line" smooth="yes"/>
      <point x="196" y="127"/>
      <point x="228" y="83"/>
      <point x="327" y="83" type="curve" smooth="yes"/>
      <point x="399" y="83" type="line" smooth="yes"/>
      <point x="498" y="83"/>
      <point x="530" y="127"/>
      <point x="554" y="210" type="curve"/>
    </contour>
  </outline>
</glyph>
<glyph name="equal" format="1">
  <advance width="646"/>
  <unicode hex="003D"/>
  <outline>
    <contour>
      <point x="266" y="99" type="curve"/>
      <point x="266" y="621" type="line" smooth="yes"/>
      <point x="266" y="646"/>
      <point x="256" y="657"/>
      <point x="230" y="657" type="curve" smooth="yes"/>
      <point x="116" y="657" type="line" smooth="yes"/>
      <point x="90" y="657"/>
      <point x="80" y="646"/>
      <point x="80" y="621" type="curve" smooth="yes"/>
      <point x="80" y="99" type="line" smooth="yes"/>
      <point x="80" y="74"/>
      <point x="91" y="63"/>
      <point x="116" y="63" type="curve" smooth="yes"/>
      <point x="230" y="63" type="line" smooth="yes"/>
      <point x="256" y="63"/>
      <point x="266" y="74"/>
    </contour>
    <contour>
      <point x="566" y="99" type="curve"/>
      <point x="566" y="621" type="line" smooth="yes"/>
      <point x="566" y="646"/>
      <point x="556" y="657"/>
      <point x="530" y="657" type="curve" smooth="yes"/>
      <point x="416" y="657" type="line" smooth="yes"/>
      <point x="390" y="657"/>
      <point x="380" y="646"/>
      <point x="380" y="621" type="curve" smooth="yes"/>
      <point x="380" y="99" type="line" smooth="yes"/>
      <point x="380" y="74"/>
      <point x="391" y="63"/>
      <point x="416" y="63" type="curve" smooth="yes"/>
      <point x="530" y="63" type="line" smooth="yes"/>
      <point x="556" y="63"/>
      <point x="566" y="74"/>
    </contour>
  </outline>
</glyph>
<glyph name="greater" format="1">
  <advance width="726"/>
  <unicode hex="003E"/>
  <outline>
    <contour>
      <point x="554" y="510" type="line"/>
      <point x="530" y="593"/>
      <point x="498" y="637"/>
      <point x="399" y="637" type="curve" smooth="yes"/>
      <point x="327" y="637" type="line" smooth="yes"/>
      <point x="228" y="637"/>
      <point x="196" y="593"/>
      <point x="172" y="510" type="curve" smooth="yes"/>
      <point x="63" y="129" type="line" smooth="yes"/>
      <point x="58" y="104"/>
      <point x="68" y="93"/>
      <point x="94" y="93" type="curve" smooth="yes"/>
      <point x="226" y="93" type="line" smooth="yes"/>
      <point x="252" y="93"/>
      <point x="263" y="104"/>
      <point x="267" y="129" type="curve" smooth="yes"/>
      <point x="344" y="416" type="line" smooth="yes"/>
      <point x="347" y="430"/>
      <point x="351" y="433"/>
      <point x="363" y="433" type="curve" smooth="yes"/>
      <point x="375" y="433"/>
      <point x="379" y="430"/>
      <point x="382" y="416" type="curve" smooth="yes"/>
      <point x="459" y="129" type="line" smooth="yes"/>
      <point x="463" y="104"/>
      <point x="474" y="93"/>
      <point x="500" y="93" type="curve" smooth="yes"/>
      <point x="632" y="93" type="line" smooth="yes"/>
      <point x="658" y="93"/>
      <point x="668" y="104"/>
      <point x="663" y="129" type="curve" smooth="yes"/>
    </contour>
  </outline>
</glyph>
<glyph name="question" format="1">
  <advance width="847"/>
  <unicode hex="003F"/>
  <unicode hex="FF1F"/>
  <outline>
    <contour>
      <point x="519" y="488" type="line" smooth="yes"/>
      <point x="506" y="583"/>
      <point x="465" y="643"/>
      <point x="353" y="643" type="curve" smooth="yes"/>
      <point x="248" y="643" type="line" smooth="yes"/>
      <point x="134" y="643"/>
      <point x="72" y="566"/>
      <point x="72" y="436" type="curve" smooth="yes"/>
      <point x="72" y="113" type="line" smooth="yes"/>
      <point x="72" y="88"/>
      <point x="83" y="77"/>
      <point x="108" y="77" type="curve"/>
      <point x="229" y="77" type="line" smooth="yes"/>
      <point x="255" y="77"/>
      <point x="265" y="88"/>
      <point x="265" y="113" type="curve" smooth="yes"/>
      <point x="265" y="389" type="line" smooth="yes"/>
      <point x="265" y="406"/>
      <point x="274" y="416"/>
      <point x="293" y="416" type="curve" smooth="yes"/>
      <point x="313" y="416"/>
      <point x="321" y="409"/>
      <point x="324" y="389" type="curve" smooth="yes"/>
      <point x="352" y="190" type="line" smooth="yes"/>
      <point x="355" y="165"/>
      <point x="367" y="153"/>
      <point x="393" y="157" type="curve" smooth="yes"/>
      <point x="525" y="178" type="line" smooth="yes"/>
      <point x="550" y="182"/>
      <point x="559" y="192"/>
      <point x="556" y="217" type="curve" smooth="yes"/>
    </contour>
    <contour>
      <point x="792" y="376" type="line" smooth="yes"/>
      <point x="792" y="401"/>
      <point x="781" y="412"/>
      <point x="756" y="412" type="curve" smooth="yes"/>
      <point x="625" y="412" type="line" smooth="yes"/>
      <point x="599" y="412"/>
      <point x="589" y="401"/>
      <point x="589" y="376" type="curve" smooth="yes"/>
      <point x="589" y="193" type="line" smooth="yes"/>
      <point x="589" y="167"/>
      <point x="599" y="157"/>
      <point x="625" y="157" type="curve" smooth="yes"/>
      <point x="756" y="157" type="line" smooth="yes"/>
      <point x="781" y="157"/>
      <point x="792" y="167"/>
      <point x="792" y="193" type="curve" smooth="yes"/>
    </contour>
  </outline>
</glyph>
<glyph name="at" format="1">
  <advance width="1026"/>
  <unicode hex="0040"/>
  <outline>
    <contour>
      <point x="636" y="483" type="line" smooth="yes"/>
      <point x="636" y="341" type="line"/>
      <point x="636" y="314"/>
      <point x="622" y="307"/>
      <point x="602" y="307" type="curve" smooth="yes"/>
      <point x="451" y="307" type="line" smooth="yes"/>
      <point x="433" y="307"/>
      <point x="415" y="313"/>
      <point x="415" y="351" type="curve" smooth="yes"/>
      <point x="415" y="408" type="line"/>
      <point x="739" y="408" type="line" smooth="yes"/>
      <point x="764" y="408"/>
      <point x="773" y="417"/>
      <point x="773" y="442" type="curve" smooth="yes"/>
      <point x="773" y="509" type="line" smooth="yes"/>
      <point x="773" y="697"/>
      <point x="691" y="733"/>
      <point x="569" y="733" type="curve" smooth="yes"/>
      <point x="309" y="733" type="line" smooth="yes"/>
      <point x="162" y="733"/>
      <point x="62" y="661"/>
      <point x="62" y="360" type="curve" smooth="yes"/>
      <point x="62" y="60"/>
      <point x="162" y="-14"/>
      <point x="309" y="-14" type="curve" smooth="yes"/>
      <point x="719" y="-14" type="line" smooth="yes"/>
      <point x="865" y="-14"/>
      <point x="964" y="60"/>
      <point x="964" y="360" type="curve" smooth="yes"/>
      <point x="964" y="550" type="line" smooth="yes"/>
      <point x="964" y="575"/>
      <point x="955" y="584"/>
      <point x="930" y="584" type="curve" smooth="yes"/>
      <point x="902" y="584" type="line" smooth="yes"/>
      <point x="877" y="584"/>
      <point x="868" y="575"/>
      <point x="868" y="550" type="curve" smooth="yes"/>
      <point x="868" y="360" type="line" smooth="yes"/>
      <point x="868" y="140"/>
      <point x="809" y="86"/>
      <point x="723" y="86" type="curve" smooth="yes"/>
      <point x="305" y="86" type="line" smooth="yes"/>
      <point x="218" y="86"/>
      <point x="158" y="140"/>
      <point x="158" y="360" type="curve" smooth="yes"/>
      <point x="158" y="580"/>
      <point x="218" y="633"/>
      <point x="305" y="633" type="curve" smooth="yes"/>
      <point x="571" y="633" type="line" smooth="yes"/>
      <point x="624" y="633"/>
      <point x="662" y="623"/>
      <point x="662" y="571" type="curve"/>
      <point x="313" y="571" type="line" smooth="yes"/>
      <point x="295" y="571"/>
      <point x="287" y="563"/>
      <point x="287" y="545" type="curve" smooth="yes"/>
      <point x="287" y="320" type="line" smooth="yes"/>
      <point x="287" y="184"/>
      <point x="346" y="144"/>
      <point x="434" y="144" type="curve" smooth="yes"/>
      <point x="627" y="144" type="line" smooth="yes"/>
      <point x="714" y="144"/>
      <point x="773" y="184"/>
      <point x="773" y="320" type="curve" smooth="yes"/>
      <point x="773" y="449" type="line" smooth="yes"/>
      <point x="773" y="474"/>
      <point x="764" y="483"/>
      <point x="739" y="483" type="curve"/>
    </contour>
  </outline>
</glyph>
<glyph name="A" format="2">
  <advance width="849"/>
  <unicode hex="0041"/>
  <outline>
    <contour>
      <point x="62" y="226" type="line"/>
      <point x="62" y="200"/>
      <point x="70" y="184"/>
      <point x="95" y="175" type="curve" smooth="yes"/>
      <point x="322" y="98" type="line"/>
      <point x="398" y="69"/>
      <point x="413" y="59"/>
      <point x="482" y="59" type="curve" smooth="yes"/>
      <point x="746" y="59" type="line" smooth="yes"/>
      <point x="771" y="59"/>
      <point x="782" y="69"/>
      <point x="782" y="95" type="curve" smooth="yes"/>
      <point x="782" y="242" type="line" smooth="yes"/>
      <point x="782" y="267"/>
      <point x="771" y="278"/>
      <point x="746" y="278" type="curve" smooth="yes"/>
      <point x="471" y="278" type="line" smooth="yes"/>
      <point x="457" y="278"/>
      <point x="445" y="280"/>
      <point x="430" y="286" type="curve" smooth="yes"/>
      <point x="272" y="335" type="line"/>
      <point x="259" y="341"/>
      <point x="255" y="343"/>
      <point x="255" y="354" type="curve" smooth="yes"/>
      <point x="255" y="359" type="line" smooth="yes"/>
      <point x="255" y="370"/>
      <point x="259" y="372"/>
      <point x="272" y="378" type="curve"/>
      <point x="429" y="427" type="line" smooth="yes"/>
      <point x="444" y="433"/>
      <point x="456" y="435"/>
      <point x="470" y="435" type="curve" smooth="yes"/>
      <point x="746" y="435" type="line" smooth="yes"/>
      <point x="771" y="435"/>
      <point x="782" y="449"/>
      <point x="782" y="474" type="curve" smooth="yes"/>
      <point x="782" y="625" type="line" smooth="yes"/>
      <point x="782" y="650"/>
      <point x="771" y="661"/>
      <point x="746" y="661" type="curve" smooth="yes"/>
      <point x="482" y="661" type="line" smooth="yes"/>
      <point x="413" y="661"/>
      <point x="398" y="651"/>
      <point x="322" y="622" type="curve"/>
      <point x="95" y="535" type="line" smooth="yes"/>
      <point x="70" y="526"/>
      <point x="62" y="511"/>
      <point x="62" y="485" type="curve" smooth="yes"/>
    </contour>
    <contour>
      <point x="606" y="476" type="line"/>
      <point x="424" y="476" type="line"/>
      <point x="424" y="237" type="line"/>
      <point x="606" y="237" type="line"/>
    </contour>
  </outline>
</glyph>
<glyph name="B" format="1">
  <advance width="861"/>
  <unicode hex="0042"/>
  <unicode hex="FF22"/>
  <outline>
    <contour>
      <point x="789" y="472" type="line" smooth="yes"/>
      <point x="789" y="600"/>
      <point x="726" y="666"/>
      <point x="625" y="666" type="curve" smooth="yes"/>
      <point x="533" y="666" type="line" smooth="yes"/>
      <point x="439" y="666"/>
      <point x="385" y="612"/>
      <point x="378" y="540" type="curve"/>
      <point x="359" y="584"/>
      <point x="321" y="599"/>
      <point x="270" y="599" type="curve" smooth="yes"/>
      <point x="222" y="599" type="line" smooth="yes"/>
      <point x="134" y="599"/>
      <point x="69" y="543"/>
      <point x="69" y="407" type="curve" smooth="yes"/>
      <point x="69" y="97" type="line" smooth="yes"/>
      <point x="69" y="72"/>
      <point x="80" y="61"/>
      <point x="105" y="61" type="curve"/>
      <point x="753" y="61" type="line"/>
      <point x="778" y="61"/>
      <point x="789" y="72"/>
      <point x="789" y="97" type="curve" smooth="yes"/>
    </contour>
    <contour>
      <point x="501" y="286" type="line"/>
      <point x="501" y="407" type="line" smooth="yes"/>
      <point x="501" y="439"/>
      <point x="519" y="445"/>
      <point x="540" y="445" type="curve" smooth="yes"/>
      <point x="579" y="445" type="line" smooth="yes"/>
      <point x="600" y="445"/>
      <point x="619" y="439"/>
      <point x="619" y="407" type="curve" smooth="yes"/>
      <point x="619" y="286" type="line"/>
    </contour>
    <contour>
      <point x="239" y="286" type="line"/>
      <point x="239" y="362" type="line" smooth="yes"/>
      <point x="239" y="394"/>
      <point x="258" y="400"/>
      <point x="279" y="400" type="curve" smooth="yes"/>
      <point x="307" y="400" type="line" smooth="yes"/>
      <point x="328" y="400"/>
      <point x="347" y="394"/>
      <point x="347" y="362" type="curve" smooth="yes"/>
      <point x="347" y="286" type="line"/>
    </contour>
  </outline>
</glyph>
<glyph name="C" format="1">
  <advance width="864"/>
  <unicode hex="0043"/>
  <unicode hex="FF23"/>
  <outline>
    <contour>
      <point x="792" y="615" type="line" smooth="yes"/>
      <point x="792" y="640"/>
      <point x="781" y="651"/>
      <point x="756" y="651" type="curve" smooth="yes"/>
      <point x="637" y="651" type="line" smooth="yes"/>
      <point x="612" y="651"/>
      <point x="601" y="640"/>
      <point x="601" y="615" type="curve" smooth="yes"/>
      <point x="601" y="345" type="line" smooth="yes"/>
      <point x="601" y="293"/>
      <point x="581" y="284"/>
      <point x="553" y="284" type="curve" smooth="yes"/>
      <point x="315" y="284" type="line" smooth="yes"/>
      <point x="289" y="284"/>
      <point x="265" y="293"/>
      <point x="265" y="345" type="curve" smooth="yes"/>
      <point x="265" y="615" type="line" smooth="yes"/>
      <point x="265" y="640"/>
      <point x="254" y="651"/>
      <point x="229" y="651" type="curve" smooth="yes"/>
      <point x="108" y="651" type="line" smooth="yes"/>
      <point x="83" y="651"/>
      <point x="72" y="640"/>
      <point x="72" y="615" type="curve" smooth="yes"/>
      <point x="72" y="302" type="line" smooth="yes"/>
      <point x="72" y="113"/>
      <point x="155" y="56"/>
      <point x="277" y="56" type="curve" smooth="yes"/>
      <point x="588" y="56" type="line" smooth="yes"/>
      <point x="709" y="56"/>
      <point x="792" y="113"/>
      <point x="792" y="302" type="curve" smooth="yes"/>
    </contour>
  </outline>
</glyph>
<glyph name="D" format="1">
  <advance width="864"/>
  <unicode hex="0044"/>
  <unicode hex="FF24"/>
  <outline>
    <contour>
      <point x="792" y="419" type="line" smooth="yes"/>
      <point x="792" y="608"/>
      <point x="709" y="665"/>
      <point x="588" y="665" type="curve" smooth="yes"/>
      <point x="276" y="665" type="line" smooth="yes"/>
      <point x="155" y="665"/>
      <point x="72" y="608"/>
      <point x="72" y="419" type="curve" smooth="yes"/>
      <point x="72" y="96" type="line" smooth="yes"/>
      <point x="72" y="71"/>
      <point x="83" y="60"/>
      <point x="108" y="60" type="curve"/>
      <point x="756" y="60" type="line"/>
      <point x="781" y="60"/>
      <point x="792" y="71"/>
      <point x="792" y="96" type="curve" smooth="yes"/>
    </contour>
    <contour>
      <point x="263" y="287" type="line"/>
      <point x="263" y="392" type="line" smooth="yes"/>
      <point x="263" y="432"/>
      <point x="285" y="439"/>
      <point x="311" y="439" type="curve" smooth="yes"/>
      <point x="554" y="439" type="line" smooth="yes"/>
      <point x="581" y="439"/>
      <point x="603" y="432"/>
      <point x="603" y="392" type="curve" smooth="yes"/>
      <point x="603" y="287" type="line"/>
    </contour>
  </outline>
</glyph>
<glyph name="E" format="1">
  <advance width="880"/>
  <unicode hex="0045"/>
  <unicode hex="FF25"/>
  <outline>
    <contour>
      <point x="800" y="615" type="line" smooth="yes"/>
      <point x="800" y="640"/>
      <point x="789" y="651"/>
      <point x="764" y="651" type="curve" smooth="yes"/>
      <point x="647" y="651" type="line" smooth="yes"/>
      <point x="622" y="651"/>
      <point x="611" y="640"/>
      <point x="611" y="615" type="curve" smooth="yes"/>
      <point x="611" y="285" type="line"/>
      <point x="525" y="285" type="line"/>
      <point x="525" y="534" type="line" smooth="yes"/>
      <point x="525" y="559"/>
      <point x="514" y="570"/>
      <point x="489" y="570" type="curve" smooth="yes"/>
      <point x="382" y="570" type="line" smooth="yes"/>
      <point x="356" y="570"/>
      <point x="346" y="559"/>
      <point x="346" y="534" type="curve" smooth="yes"/>
      <point x="346" y="285" type="line"/>
      <point x="269" y="285" type="line"/>
      <point x="269" y="615" type="line" smooth="yes"/>
      <point x="269" y="640"/>
      <point x="258" y="651"/>
      <point x="233" y="651" type="curve" smooth="yes"/>
      <point x="116" y="651" type="line" smooth="yes"/>
      <point x="91" y="651"/>
      <point x="80" y="640"/>
      <point x="80" y="615" type="curve" smooth="yes"/>
      <point x="80" y="97" type="line" smooth="yes"/>
      <point x="80" y="72"/>
      <point x="91" y="61"/>
      <point x="116" y="61" type="curve"/>
      <point x="764" y="61" type="line"/>
      <point x="789" y="61"/>
      <point x="800" y="72"/>
      <point x="800" y="97" type="curve" smooth="yes"/>
    </contour>
  </outline>
</glyph>
<glyph name="F" format="1">
  <advance width="856"/>
  <unicode hex="0046"/>
  <outline>
    <contour>
      <point x="801" y="252" type="line" smooth="yes"/>
      <point x="801" y="277"/>
      <point x="789" y="288"/>
      <point x="764" y="288" type="curve" smooth="yes"/>
      <point x="567" y="288" type="line"/>
      <point x="567" y="534" type="line" smooth="yes"/>
      <point x="567" y="559"/>
      <point x="556" y="570"/>
      <point x="531" y="570" type="curve" smooth="yes"/>
      <point x="411" y="570" type="line" smooth="yes"/>
      <point x="386" y="570"/>
      <point x="375" y="559"/>
      <point x="375" y="534" type="curve" smooth="yes"/>
      <point x="375" y="288" type="line"/>
      <point x="271" y="288" type="line"/>
      <point x="271" y="615" type="line" smooth="yes"/>
      <point x="271" y="640"/>
      <point x="260" y="651"/>
      <point x="235" y="651" type="curve" smooth="yes"/>
      <point x="116" y="651" type="line" smooth="yes"/>
      <point x="91" y="651"/>
      <point x="80" y="640"/>
      <point x="80" y="615" type="curve" smooth="yes"/>
      <point x="80" y="97" type="line" smooth="yes"/>
      <point x="80" y="72"/>
      <point x="91" y="61"/>
      <point x="116" y="61" type="curve"/>
      <point x="764" y="61" type="line"/>
      <point x="789" y="61"/>
      <point x="801" y="72"/>
      <point x="801" y="97" type="curve" smooth="yes"/>
    </contour>
  </outline>
</glyph>
<glyph name="G" format="1">
  <advance width="859"/>
  <unicode hex="0047"/>
  <unicode hex="FF27"/>
  <outline>
    <contour>
      <point x="787" y="624" type="line" smooth="yes"/>
      <point x="787" y="649"/>
      <point x="776" y="660"/>
      <point x="751" y="660" type="curve" smooth="yes"/>
      <point x="442" y="660" type="line" smooth="yes"/>
      <point x="417" y="660"/>
      <point x="406" y="649"/>
      <point x="406" y="624" type="curve" smooth="yes"/>
      <point x="406" y="469" type="line" smooth="yes"/>
      <point x="406" y="444"/>
      <point x="417" y="433"/>
      <point x="442" y="433" type="curve" smooth="yes"/>
      <point x="598" y="433" type="line"/>
      <point x="598" y="328" type="line" smooth="yes"/>
      <point x="598" y="288"/>
      <point x="576" y="282"/>
      <point x="549" y="282" type="curve" smooth="yes"/>
      <point x="310" y="282" type="line" smooth="yes"/>
      <point x="284" y="282"/>
      <point x="260" y="291"/>
      <point x="260" y="343" type="curve" smooth="yes"/>
      <point x="260" y="559" type="line" smooth="yes"/>
      <point x="260" y="584"/>
      <point x="249" y="595"/>
      <point x="224" y="595" type="curve" smooth="yes"/>
      <point x="103" y="595" type="line" smooth="yes"/>
      <point x="78" y="595"/>
      <point x="67" y="584"/>
      <point x="67" y="559" type="curve" smooth="yes"/>
      <point x="67" y="301" type="line" smooth="yes"/>
      <point x="67" y="112"/>
      <point x="150" y="55"/>
      <point x="271" y="55" type="curve" smooth="yes"/>
      <point x="583" y="55" type="line" smooth="yes"/>
      <point x="704" y="55"/>
      <point x="787" y="112"/>
      <point x="787" y="301" type="curve" smooth="yes"/>
    </contour>
    <contour>
      <point x="40" y="351" type="move" name="top"/>
    </contour>
    <contour>
      <point x="787" y="351" type="move" name="bottom"/>
    </contour>
  </outline>
</glyph>
<glyph name="H" format="1">
  <advance width="854"/>
  <unicode hex="0048"/>
  <unicode hex="FF28"/>
  <outline>
    <contour>
      <point x="787" y="251" type="line" smooth="yes"/>
      <point x="787" y="276"/>
      <point x="776" y="287"/>
      <point x="751" y="287" type="curve" smooth="yes"/>
      <point x="529" y="287" type="line"/>
      <point x="529" y="433" type="line"/>
      <point x="751" y="433" type="line" smooth="yes"/>
      <point x="776" y="433"/>
      <point x="787" y="444"/>
      <point x="787" y="469" type="curve" smooth="yes"/>
      <point x="787" y="624" type="line" smooth="yes"/>
      <point x="787" y="649"/>
      <point x="776" y="660"/>
      <point x="751" y="660" type="curve" smooth="yes"/>
      <point x="103" y="660" type="line" smooth="yes"/>
      <point x="78" y="660"/>
      <point x="67" y="649"/>
      <point x="67" y="624" type="curve" smooth="yes"/>
      <point x="67" y="469" type="line" smooth="yes"/>
      <point x="67" y="444"/>
      <point x="78" y="433"/>
      <point x="103" y="433" type="curve" smooth="yes"/>
      <point x="320" y="433" type="line"/>
      <point x="320" y="287" type="line"/>
      <point x="103" y="287" type="line" smooth="yes"/>
      <point x="78" y="287"/>
      <point x="67" y="276"/>
      <point x="67" y="251" type="curve" smooth="yes"/>
      <point x="67" y="96" type="line" smooth="yes"/>
      <point x="67" y="71"/>
      <point x="78" y="60"/>
      <point x="103" y="60" type="curve" smooth="yes"/>
      <point x="751" y="60" type="line" smooth="yes"/>
      <point x="776" y="60"/>
      <point x="787" y="71"/>
      <point x="787" y="96" type="curve" smooth="yes"/>
    </contour>
  </outline>
</glyph>
<glyph name="I" format="1">
  <advance width="880"/>
  <unicode hex="0049"/>
  <unicode hex="FF29"/>
  <outline>
    <contour>
      <point x="800" y="105" type="curve" smooth="yes"/>
      <point x="800" y="615" type="line" smooth="yes"/>
      <point x="800" y="640"/>
      <point x="789" y="651"/>
      <point x="764" y="651" type="curve" smooth="yes"/>
      <point x="645" y="651" type="line" smooth="yes"/>
      <point x="620" y="651"/>
      <point x="609" y="640"/>
      <point x="609" y="615" type="curve" smooth="yes"/>
      <point x="609" y="481" type="line"/>
      <point x="273" y="481" type="line"/>
      <point x="273" y="615" type="line" smooth="yes"/>
      <point x="273" y="640"/>
      <point x="262" y="651"/>
      <point x="237" y="651" type="curve" smooth="yes"/>
      <point x="116" y="651" type="line" smooth="yes"/>
      <point x="91" y="651"/>
      <point x="80" y="640"/>
      <point x="80" y="615" type="curve" smooth="yes"/>
      <point x="80" y="105" type="line" smooth="yes"/>
      <point x="80" y="80"/>
      <point x="91" y="69"/>
      <point x="116" y="69" type="curve"/>
      <point x="237" y="69" type="line"/>
      <point x="262" y="69"/>
      <point x="273" y="80"/>
      <point x="273" y="105" type="curve" smooth="yes"/>
      <point x="273" y="239" type="line"/>
      <point x="609" y="239" type="line"/>
      <point x="609" y="105" type="line" smooth="yes"/>
      <point x="609" y="80"/>
      <point x="620" y="69"/>
      <point x="645" y="69" type="curve"/>
      <point x="764" y="69" type="line"/>
      <point x="789" y="69"/>
      <point x="800" y="80"/>
    </contour>
  </outline>
</glyph>
<glyph name="J" format="1">
  <advance width="848"/>
  <unicode hex="004A"/>
  <unicode hex="FF2A"/>
  <outline>
    <contour>
      <point x="586" y="660" type="curve"/>
      <point x="91" y="660" type="line" smooth="yes"/>
      <point x="66" y="660"/>
      <point x="55" y="649"/>
      <point x="55" y="624" type="curve" smooth="yes"/>
      <point x="55" y="467" type="line" smooth="yes"/>
      <point x="55" y="442"/>
      <point x="66" y="431"/>
      <point x="91" y="431" type="curve" smooth="yes"/>
      <point x="546" y="431" type="line" smooth="yes"/>
      <point x="573" y="431"/>
      <point x="593" y="422"/>
      <point x="593" y="355" type="curve" smooth="yes"/>
      <point x="593" y="284"/>
      <point x="573" y="277"/>
      <point x="546" y="277" type="curve" smooth="yes"/>
      <point x="424" y="277" type="line" smooth="yes"/>
      <point x="398" y="277"/>
      <point x="388" y="266"/>
      <point x="388" y="241" type="curve" smooth="yes"/>
      <point x="388" y="96" type="line" smooth="yes"/>
      <point x="388" y="71"/>
      <point x="398" y="60"/>
      <point x="424" y="60" type="curve"/>
      <point x="586" y="60" type="line" smooth="yes"/>
      <point x="708" y="60"/>
      <point x="791" y="116"/>
      <point x="791" y="357" type="curve" smooth="yes"/>
      <point x="791" y="600"/>
      <point x="708" y="660"/>
    </contour>
  </outline>
</glyph>
<glyph name="K" format="1">
  <advance width="854"/>
  <unicode hex="004B"/>
  <unicode hex="FF2B"/>
  <outline>
    <contour>
      <point x="787" y="252" type="line" smooth="yes"/>
      <point x="787" y="277"/>
      <point x="776" y="288"/>
      <point x="751" y="288" type="curve" smooth="yes"/>
      <point x="522" y="288" type="line"/>
      <point x="522" y="403" type="line" smooth="yes"/>
      <point x="522" y="424"/>
      <point x="534" y="435"/>
      <point x="556" y="435" type="curve" smooth="yes"/>
      <point x="751" y="435" type="line" smooth="yes"/>
      <point x="776" y="435"/>
      <point x="787" y="446"/>
      <point x="787" y="471" type="curve" smooth="yes"/>
      <point x="787" y="625" type="line" smooth="yes"/>
      <point x="787" y="650"/>
      <point x="776" y="661"/>
      <point x="751" y="661" type="curve" smooth="yes"/>
      <point x="469" y="661" type="line" smooth="yes"/>
      <point x="389" y="661"/>
      <point x="337" y="613"/>
      <point x="333" y="538" type="curve"/>
      <point x="100" y="640" type="line" smooth="yes"/>
      <point x="79" y="649"/>
      <point x="67" y="641"/>
      <point x="67" y="618" type="curve" smooth="yes"/>
      <point x="67" y="464" type="line" smooth="yes"/>
      <point x="67" y="438"/>
      <point x="76" y="424"/>
      <point x="100" y="414" type="curve" smooth="yes"/>
      <point x="333" y="311" type="line"/>
      <point x="333" y="288" type="line"/>
      <point x="103" y="288" type="line" smooth="yes"/>
      <point x="78" y="288"/>
      <point x="67" y="277"/>
      <point x="67" y="252" type="curve" smooth="yes"/>
      <point x="67" y="97" type="line" smooth="yes"/>
      <point x="67" y="72"/>
      <point x="78" y="61"/>
      <point x="103" y="61" type="curve"/>
      <point x="751" y="61" type="line"/>
      <point x="776" y="61"/>
      <point x="787" y="72"/>
      <point x="787" y="97" type="curve" smooth="yes"/>
    </contour>
  </outline>
</glyph>
<glyph name="M" format="1">
  <advance width="854"/>
  <unicode hex="004D"/>
  <outline>
    <contour>
      <point x="787" y="207" type="line" smooth="yes"/>
      <point x="787" y="232"/>
      <point x="776" y="243"/>
      <point x="751" y="243" type="curve" smooth="yes"/>
      <point x="458" y="246" type="line"/>
      <point x="416" y="246" type="line"/>
      <point x="526" y="285" type="line"/>
      <point x="549" y="298"/>
      <point x="558" y="312"/>
      <point x="558" y="338" type="curve" smooth="yes"/>
      <point x="558" y="365" type="line" smooth="yes"/>
      <point x="558" y="391"/>
      <point x="549" y="405"/>
      <point x="526" y="418" type="curve"/>
      <point x="416" y="456" type="line"/>
      <point x="458" y="456" type="line"/>
      <point x="751" y="460" type="line" smooth="yes"/>
      <point x="776" y="460"/>
      <point x="787" y="471"/>
      <point x="787" y="496" type="curve" smooth="yes"/>
      <point x="787" y="647" type="line" smooth="yes"/>
      <point x="787" y="673"/>
      <point x="776" y="683"/>
      <point x="751" y="683" type="curve" smooth="yes"/>
      <point x="103" y="679" type="line" smooth="yes"/>
      <point x="78" y="679"/>
      <point x="67" y="669"/>
      <point x="67" y="643" type="curve" smooth="yes"/>
      <point x="67" y="503" type="line" smooth="yes"/>
      <point x="67" y="477"/>
      <point x="75" y="461"/>
      <point x="97" y="447" type="curve"/>
      <point x="273" y="369" type="line"/>
      <point x="273" y="345" type="line"/>
      <point x="97" y="275" type="line"/>
      <point x="74" y="262"/>
      <point x="67" y="236"/>
      <point x="67" y="210" type="curve" smooth="yes"/>
      <point x="67" y="79" type="line" smooth="yes"/>
      <point x="67" y="54"/>
      <point x="78" y="43"/>
      <point x="103" y="43" type="curve" smooth="yes"/>
      <point x="751" y="39" type="line" smooth="yes"/>
      <point x="776" y="39"/>
      <point x="787" y="50"/>
      <point x="787" y="75" type="curve" smooth="yes"/>
    </contour>
  </outline>
</glyph>
<glyph name="N" format="1">
  <advance width="854"/>
  <unicode hex="004E"/>
  <unicode hex="FF2E"/>
  <outline>
    <contour>
      <point x="787" y="246" type="line" smooth="yes"/>
      <point x="787" y="271"/>
      <point x="776" y="282"/>
      <point x="751" y="282" type="curve" smooth="yes"/>
      <point x="421" y="282" type="line"/>
      <point x="628" y="439" type="line"/>
      <point x="751" y="439" type="line" smooth="yes"/>
      <point x="776" y="439"/>
      <point x="787" y="450"/>
      <point x="787" y="475" type="curve" smooth="yes"/>
      <point x="787" y="625" type="line" smooth="yes"/>
      <point x="787" y="650"/>
      <point x="776" y="661"/>
      <point x="751" y="661" type="curve" smooth="yes"/>
      <point x="103" y="661" type="line" smooth="yes"/>
      <point x="78" y="661"/>
      <point x="67" y="650"/>
      <point x="67" y="625" type="curve" smooth="yes"/>
      <point x="67" y="475" type="line" smooth="yes"/>
      <point x="67" y="450"/>
      <point x="78" y="439"/>
      <point x="103" y="439" type="curve" smooth="yes"/>
      <point x="316" y="439" type="line"/>
      <point x="94" y="259" type="line" smooth="yes"/>
      <point x="74" y="242"/>
      <point x="67" y="226"/>
      <point x="67" y="200" type="curve" smooth="yes"/>
      <point x="67" y="96" type="line" smooth="yes"/>
      <point x="67" y="71"/>
      <point x="78" y="60"/>
      <point x="103" y="60" type="curve"/>
      <point x="751" y="60" type="line"/>
      <point x="776" y="60"/>
      <point x="787" y="71"/>
      <point x="787" y="96" type="curve" smooth="yes"/>
    </contour>
  </outline>
</glyph>
<glyph name="O" format="2">
  <advance width="864"/>
  <unicode hex="004F"/>
  <outline>
    <contour>
      <point x="603" y="664" type="curve" smooth="yes"/>
      <point x="262" y="664" type="line" smooth="yes"/>
      <point x="140" y="664"/>
      <point x="57" y="605"/>
      <point x="57" y="360" type="curve" smooth="yes"/>
      <point x="57" y="115"/>
      <point x="140" y="56"/>
      <point x="262" y="56" type="curve" smooth="yes"/>
      <point x="603" y="56" type="line" smooth="yes"/>
      <point x="725" y="56"/>
      <point x="807" y="115"/>
      <point x="807" y="360" type="curve" smooth="yes"/>
      <point x="807" y="605"/>
      <point x="725" y="664"/>
    </contour>
    <contour>
      <point x="567" y="283" type="curve" smooth="yes"/>
      <point x="298" y="283" type="line" smooth="yes"/>
      <point x="272" y="283"/>
      <point x="252" y="294"/>
      <point x="252" y="360" type="curve" smooth="yes"/>
      <point x="252" y="427"/>
      <point x="272" y="438"/>
      <point x="298" y="438" type="curve" smooth="yes"/>
      <point x="567" y="438" type="line" smooth="yes"/>
      <point x="594" y="438"/>
      <point x="614" y="427"/>
      <point x="614" y="360" type="curve" smooth="yes"/>
      <point x="614" y="294"/>
      <point x="594" y="283"/>
    </contour>
  </outline>
</glyph>
<glyph name="P" format="1">
  <advance width="847"/>
  <unicode hex="0050"/>
  <unicode hex="FF30"/>
  <outline>
    <contour>
      <point x="792" y="251" type="line" smooth="yes"/>
      <point x="792" y="276"/>
      <point x="781" y="287"/>
      <point x="756" y="287" type="curve" smooth="yes"/>
      <point x="590" y="287" type="line"/>
      <point x="590" y="428" type="line" smooth="yes"/>
      <point x="590" y="610"/>
      <point x="511" y="664"/>
      <point x="395" y="664" type="curve" smooth="yes"/>
      <point x="267" y="664" type="line" smooth="yes"/>
      <point x="151" y="664"/>
      <point x="72" y="610"/>
      <point x="72" y="428" type="curve" smooth="yes"/>
      <point x="72" y="96" type="line" smooth="yes"/>
      <point x="72" y="71"/>
      <point x="83" y="60"/>
      <point x="108" y="60" type="curve"/>
      <point x="756" y="60" type="line"/>
      <point x="781" y="60"/>
      <point x="792" y="71"/>
      <point x="792" y="96" type="curve" smooth="yes"/>
    </contour>
    <contour>
      <point x="259" y="285" type="line"/>
      <point x="259" y="401" type="line" smooth="yes"/>
      <point x="259" y="440"/>
      <point x="282" y="448"/>
      <point x="308" y="448" type="curve" smooth="yes"/>
      <point x="361" y="448" type="line" smooth="yes"/>
      <point x="387" y="448"/>
      <point x="410" y="440"/>
      <point x="410" y="401" type="curve" smooth="yes"/>
      <point x="410" y="285" type="line"/>
    </contour>
  </outline>
</glyph>
<glyph name="Q" format="1">
  <advance width="934"/>
  <unicode hex="0051"/>
  <unicode hex="FF31"/>
  <outline>
    <contour>
      <point x="594" y="664" type="curve" smooth="yes"/>
      <point x="262" y="664" type="line" smooth="yes"/>
      <point x="140" y="664"/>
      <point x="57" y="605"/>
      <point x="57" y="360" type="curve" smooth="yes"/>
      <point x="57" y="115"/>
      <point x="140" y="56"/>
      <point x="262" y="56" type="curve" smooth="yes"/>
      <point x="594" y="56" type="line" smooth="yes"/>
      <point x="716" y="56"/>
      <point x="798" y="115"/>
      <point x="798" y="360" type="curve" smooth="yes"/>
      <point x="798" y="605"/>
      <point x="716" y="664"/>
    </contour>
    <contour>
      <point x="572" y="283" type="curve"/>
      <point x="299" y="283" type="line" smooth="yes"/>
      <point x="273" y="283"/>
      <point x="253" y="294"/>
      <point x="253" y="360" type="curve" smooth="yes"/>
      <point x="253" y="427"/>
      <point x="273" y="438"/>
      <point x="299" y="438" type="curve" smooth="yes"/>
      <point x="572" y="438" type="line" smooth="yes"/>
      <point x="599" y="438"/>
      <point x="619" y="427"/>
      <point x="619" y="360" type="curve" smooth="yes"/>
      <point x="619" y="294"/>
      <point x="599" y="283"/>
    </contour>
    <contour>
      <point x="882" y="436" type="line" smooth="yes"/>
      <point x="882" y="461"/>
      <point x="871" y="472"/>
      <point x="846" y="472" type="curve" smooth="yes"/>
      <point x="726" y="472" type="line"/>
      <point x="726" y="246" type="line"/>
      <point x="846" y="246" type="line" smooth="yes"/>
      <point x="871" y="246"/>
      <point x="882" y="257"/>
      <point x="882" y="282" type="curve" smooth="yes"/>
    </contour>
  </outline>
</glyph>
<glyph name="R" format="2">
  <advance width="859"/>
  <unicode hex="0052"/>
  <outline>
    <contour>
      <point x="792" y="250" type="line" smooth="yes"/>
      <point x="792" y="275"/>
      <point x="781" y="286"/>
      <point x="756" y="286" type="curve" smooth="yes"/>
      <point x="560" y="286" type="line"/>
      <point x="560" y="405" type="line" smooth="yes"/>
      <point x="560" y="433"/>
      <point x="573" y="443"/>
      <point x="603" y="443" type="curve" smooth="yes"/>
      <point x="756" y="443" type="line" smooth="yes"/>
      <point x="781" y="443"/>
      <point x="792" y="454"/>
      <point x="792" y="479" type="curve" smooth="yes"/>
      <point x="792" y="634" type="line" smooth="yes"/>
      <point x="792" y="659"/>
      <point x="781" y="670"/>
      <point x="756" y="670" type="curve" smooth="yes"/>
      <point x="544" y="670" type="line" smooth="yes"/>
      <point x="460" y="670"/>
      <point x="407" y="620"/>
      <point x="399" y="559" type="curve"/>
      <point x="381" y="601"/>
      <point x="341" y="615"/>
      <point x="285" y="615" type="curve" smooth="yes"/>
      <point x="239" y="615" type="line" smooth="yes"/>
      <point x="140" y="615"/>
      <point x="72" y="568"/>
      <point x="72" y="418" type="curve" smooth="yes"/>
      <point x="72" y="96" type="line" smooth="yes"/>
      <point x="72" y="71"/>
      <point x="83" y="60"/>
      <point x="108" y="60" type="curve" smooth="yes"/>
      <point x="756" y="60" type="line" smooth="yes"/>
      <point x="781" y="60"/>
      <point x="792" y="71"/>
      <point x="792" y="96" type="curve" smooth="yes"/>
    </contour>
    <contour>
      <point x="252" y="286" type="line"/>
      <point x="252" y="350" type="line" smooth="yes"/>
      <point x="252" y="385"/>
      <point x="272" y="394"/>
      <point x="299" y="394" type="curve" smooth="yes"/>
      <point x="333" y="394" type="line" smooth="yes"/>
      <point x="360" y="394"/>
      <point x="380" y="385"/>
      <point x="380" y="350" type="curve" smooth="yes"/>
      <point x="380" y="286" type="line"/>
    </contour>
  </outline>
</glyph>
<glyph name="S" format="1">
  <advance width="864"/>
  <unicode hex="0053"/>
  <outline>
    <contour>
      <point x="792" y="454" type="line" smooth="yes"/>
      <point x="792" y="583"/>
      <point x="730" y="661"/>
      <point x="616" y="661" type="curve" smooth="yes"/>
      <point x="511" y="661" type="line" smooth="yes"/>
      <point x="399" y="661"/>
      <point x="359" y="599"/>
      <point x="345" y="505" type="curve" smooth="yes"/>
      <point x="325" y="314" type="line" smooth="yes"/>
      <point x="323" y="297"/>
      <point x="311" y="287"/>
      <point x="293" y="287" type="curve" smooth="yes"/>
      <point x="275" y="287"/>
      <point x="263" y="297"/>
      <point x="263" y="314" type="curve" smooth="yes"/>
      <point x="263" y="599" type="line" smooth="yes"/>
      <point x="263" y="624"/>
      <point x="252" y="635"/>
      <point x="227" y="635" type="curve" smooth="yes"/>
      <point x="108" y="635" type="line" smooth="yes"/>
      <point x="83" y="635"/>
      <point x="72" y="624"/>
      <point x="72" y="599" type="curve" smooth="yes"/>
      <point x="72" y="267" type="line" smooth="yes"/>
      <point x="72" y="137"/>
      <point x="134" y="60"/>
      <point x="248" y="60" type="curve" smooth="yes"/>
      <point x="353" y="60" type="line" smooth="yes"/>
      <point x="465" y="60"/>
      <point x="505" y="121"/>
      <point x="519" y="215" type="curve" smooth="yes"/>
      <point x="540" y="407" type="line" smooth="yes"/>
      <point x="542" y="424"/>
      <point x="551" y="433"/>
      <point x="574" y="433" type="curve" smooth="yes"/>
      <point x="590" y="433"/>
      <point x="603" y="424"/>
      <point x="603" y="407" type="curve" smooth="yes"/>
      <point x="603" y="96" type="line" smooth="yes"/>
      <point x="603" y="71"/>
      <point x="614" y="60"/>
      <point x="639" y="60" type="curve" smooth="yes"/>
      <point x="756" y="60" type="line" smooth="yes"/>
      <point x="781" y="60"/>
      <point x="792" y="71"/>
      <point x="792" y="96" type="curve" smooth="yes"/>
    </contour>
  </outline>
</glyph>
<glyph name="T" format="1">
  <advance width="855"/>
  <unicode hex="0054"/>
  <unicode hex="FF34"/>
  <outline>
    <contour>
      <point x="800" y="444" type="line" smooth="yes"/>
      <point x="800" y="469"/>
      <point x="789" y="480"/>
      <point x="764" y="480" type="curve" smooth="yes"/>
      <point x="273" y="480" type="line"/>
      <point x="273" y="624" type="line" smooth="yes"/>
      <point x="273" y="649"/>
      <point x="262" y="660"/>
      <point x="237" y="660" type="curve" smooth="yes"/>
      <point x="116" y="660" type="line" smooth="yes"/>
      <point x="91" y="660"/>
      <point x="80" y="649"/>
      <point x="80" y="624" type="curve" smooth="yes"/>
      <point x="80" y="96" type="line" smooth="yes"/>
      <point x="80" y="71"/>
      <point x="91" y="60"/>
      <point x="116" y="60" type="curve" smooth="yes"/>
      <point x="237" y="60" type="line" smooth="yes"/>
      <point x="262" y="60"/>
      <point x="273" y="71"/>
      <point x="273" y="96" type="curve" smooth="yes"/>
      <point x="273" y="240" type="line"/>
      <point x="764" y="240" type="line" smooth="yes"/>
      <point x="789" y="240"/>
      <point x="800" y="251"/>
      <point x="800" y="276" type="curve" smooth="yes"/>
    </contour>
  </outline>
</glyph>
<glyph name="U" format="1">
  <advance width="859"/>
  <unicode hex="0055"/>
  <unicode hex="FF35"/>
  <outline>
    <contour>
      <point x="598" y="660" type="curve" smooth="yes"/>
      <point x="103" y="660" type="line" smooth="yes"/>
      <point x="78" y="660"/>
      <point x="67" y="649"/>
      <point x="67" y="624" type="curve" smooth="yes"/>
      <point x="67" y="472" type="line" smooth="yes"/>
      <point x="67" y="446"/>
      <point x="78" y="436"/>
      <point x="103" y="436" type="curve" smooth="yes"/>
      <point x="559" y="436" type="line" smooth="yes"/>
      <point x="586" y="436"/>
      <point x="606" y="424"/>
      <point x="606" y="362" type="curve" smooth="yes"/>
      <point x="606" y="301"/>
      <point x="586" y="289"/>
      <point x="559" y="289" type="curve" smooth="yes"/>
      <point x="103" y="289" type="line" smooth="yes"/>
      <point x="78" y="289"/>
      <point x="67" y="278"/>
      <point x="67" y="253" type="curve" smooth="yes"/>
      <point x="67" y="96" type="line" smooth="yes"/>
      <point x="67" y="71"/>
      <point x="78" y="60"/>
      <point x="103" y="60" type="curve"/>
      <point x="598" y="60" type="line" smooth="yes"/>
      <point x="720" y="60"/>
      <point x="802" y="120"/>
      <point x="802" y="360" type="curve" smooth="yes"/>
      <point x="802" y="600"/>
      <point x="720" y="660"/>
    </contour>
  </outline>
</glyph>
<glyph name="V" format="1">
  <advance width="849"/>
  <unicode hex="0056"/>
  <unicode hex="FF36"/>
  <outline>
    <contour>
      <point x="787" y="487" type="line" smooth="yes"/>
      <point x="787" y="517"/>
      <point x="779" y="531"/>
      <point x="754" y="541" type="curve" smooth="yes"/>
      <point x="509" y="639" type="line" smooth="yes"/>
      <point x="449" y="663"/>
      <point x="430" y="661"/>
      <point x="367" y="661" type="curve" smooth="yes"/>
      <point x="103" y="661" type="line" smooth="yes"/>
      <point x="78" y="661"/>
      <point x="67" y="651"/>
      <point x="67" y="625" type="curve" smooth="yes"/>
      <point x="67" y="476" type="line" smooth="yes"/>
      <point x="67" y="451"/>
      <point x="78" y="440"/>
      <point x="103" y="440" type="curve" smooth="yes"/>
      <point x="378" y="440" type="line" smooth="yes"/>
      <point x="392" y="440"/>
      <point x="404" y="438"/>
      <point x="419" y="432" type="curve" smooth="yes"/>
      <point x="560" y="389" type="line" smooth="yes"/>
      <point x="573" y="384"/>
      <point x="577" y="381"/>
      <point x="577" y="370" type="curve" smooth="yes"/>
      <point x="577" y="355" type="line" smooth="yes"/>
      <point x="577" y="344"/>
      <point x="573" y="341"/>
      <point x="560" y="336" type="curve" smooth="yes"/>
      <point x="420" y="293" type="line" smooth="yes"/>
      <point x="405" y="287"/>
      <point x="393" y="285"/>
      <point x="379" y="285" type="curve" smooth="yes"/>
      <point x="103" y="285" type="line" smooth="yes"/>
      <point x="78" y="285"/>
      <point x="67" y="271"/>
      <point x="67" y="246" type="curve" smooth="yes"/>
      <point x="67" y="95" type="line" smooth="yes"/>
      <point x="67" y="70"/>
      <point x="78" y="59"/>
      <point x="103" y="59" type="curve" smooth="yes"/>
      <point x="367" y="59" type="line" smooth="yes"/>
      <point x="430" y="59"/>
      <point x="449" y="67"/>
      <point x="509" y="91" type="curve" smooth="yes"/>
      <point x="754" y="179" type="line" smooth="yes"/>
      <point x="779" y="189"/>
      <point x="787" y="204"/>
      <point x="787" y="234" type="curve" smooth="yes"/>
    </contour>
  </outline>
</glyph>
<glyph name="W" format="1">
  <advance width="854"/>
  <unicode hex="0057"/>
  <outline>
    <contour>
      <point x="67" y="513" type="line" smooth="yes"/>
      <point x="67" y="488"/>
      <point x="78" y="482"/>
      <point x="103" y="482" type="curve" smooth="yes"/>
      <point x="415" y="479" type="line"/>
      <point x="446" y="479" type="line"/>
      <point x="328" y="439" type="line"/>
      <point x="306" y="426"/>
      <point x="297" y="412"/>
      <point x="297" y="386" type="curve" smooth="yes"/>
      <point x="297" y="355" type="line" smooth="yes"/>
      <point x="297" y="329"/>
      <point x="306" y="315"/>
      <point x="328" y="302" type="curve"/>
      <point x="446" y="262" type="line"/>
      <point x="415" y="262" type="line"/>
      <point x="103" y="258" type="line" smooth="yes"/>
      <point x="78" y="258"/>
      <point x="67" y="247"/>
      <point x="67" y="222" type="curve" smooth="yes"/>
      <point x="67" y="74" type="line" smooth="yes"/>
      <point x="67" y="49"/>
      <point x="78" y="38"/>
      <point x="103" y="38" type="curve" smooth="yes"/>
      <point x="469" y="42" type="line"/>
      <point x="531" y="42"/>
      <point x="545" y="42"/>
      <point x="613" y="60" type="curve" smooth="yes"/>
      <point x="751" y="96" type="line" smooth="yes"/>
      <point x="775" y="102"/>
      <point x="787" y="117"/>
      <point x="787" y="142" type="curve" smooth="yes"/>
      <point x="787" y="250" type="line" smooth="yes"/>
      <point x="787" y="281"/>
      <point x="777" y="294"/>
      <point x="757" y="300" type="curve" smooth="yes"/>
      <point x="581" y="353" type="line"/>
      <point x="581" y="377" type="line"/>
      <point x="757" y="430" type="line" smooth="yes"/>
      <point x="778" y="436"/>
      <point x="787" y="449"/>
      <point x="787" y="480" type="curve" smooth="yes"/>
      <point x="787" y="580" type="line" smooth="yes"/>
      <point x="787" y="605"/>
      <point x="775" y="618"/>
      <point x="751" y="624" type="curve" smooth="yes"/>
      <point x="615" y="660" type="line" smooth="yes"/>
      <point x="547" y="678"/>
      <point x="532" y="678"/>
      <point x="471" y="678" type="curve"/>
      <point x="103" y="682" type="line" smooth="yes"/>
      <point x="78" y="682"/>
      <point x="67" y="672"/>
      <point x="67" y="646" type="curve" smooth="yes"/>
    </contour>
    <contour>
      <point x="40" y="365" type="move" name="top"/>
    </contour>
    <contour>
      <point x="787" y="365" type="move" name="bottom"/>
    </contour>
  </outline>
</glyph>
<glyph name="X" format="1">
  <advance width="854"/>
  <unicode hex="0058"/>
  <unicode hex="FF38"/>
  <outline>
    <contour>
      <point x="751" y="284" type="curve" smooth="yes"/>
      <point x="652" y="284" type="line" smooth="yes"/>
      <point x="638" y="284"/>
      <point x="624" y="285"/>
      <point x="610" y="293" type="curve" smooth="yes"/>
      <point x="547" y="330" type="line" smooth="yes"/>
      <point x="535" y="337"/>
      <point x="530" y="343"/>
      <point x="530" y="354" type="curve" smooth="yes"/>
      <point x="530" y="368" type="line" smooth="yes"/>
      <point x="530" y="379"/>
      <point x="534" y="385"/>
      <point x="547" y="392" type="curve" smooth="yes"/>
      <point x="610" y="427" type="line" smooth="yes"/>
      <point x="625" y="435"/>
      <point x="638" y="436"/>
      <point x="652" y="436" type="curve" smooth="yes"/>
      <point x="751" y="436" type="line" smooth="yes"/>
      <point x="776" y="436"/>
      <point x="787" y="447"/>
      <point x="787" y="472" type="curve" smooth="yes"/>
      <point x="787" y="624" type="line" smooth="yes"/>
      <point x="787" y="649"/>
      <point x="776" y="660"/>
      <point x="751" y="660" type="curve" smooth="yes"/>
      <point x="644" y="660" type="line" smooth="yes"/>
      <point x="582" y="660"/>
      <point x="564" y="648"/>
      <point x="521" y="622" type="curve" smooth="yes"/>
      <point x="413" y="556" type="line"/>
      <point x="303" y="622" type="line" smooth="yes"/>
      <point x="260" y="648"/>
      <point x="242" y="660"/>
      <point x="180" y="660" type="curve" smooth="yes"/>
      <point x="103" y="660" type="line" smooth="yes"/>
      <point x="78" y="660"/>
      <point x="67" y="649"/>
      <point x="67" y="624" type="curve" smooth="yes"/>
      <point x="67" y="472" type="line" smooth="yes"/>
      <point x="67" y="447"/>
      <point x="78" y="436"/>
      <point x="103" y="436" type="curve" smooth="yes"/>
      <point x="172" y="436" type="line" smooth="yes"/>
      <point x="186" y="436"/>
      <point x="200" y="435"/>
      <point x="214" y="427" type="curve" smooth="yes"/>
      <point x="277" y="391" type="line" smooth="yes"/>
      <point x="289" y="384"/>
      <point x="294" y="378"/>
      <point x="294" y="367" type="curve" smooth="yes"/>
      <point x="294" y="355" type="line" smooth="yes"/>
      <point x="294" y="344"/>
      <point x="288" y="337"/>
      <point x="277" y="331" type="curve" smooth="yes"/>
      <point x="214" y="295" type="line" smooth="yes"/>
      <point x="201" y="287"/>
      <point x="186" y="286"/>
      <point x="172" y="286" type="curve" smooth="yes"/>
      <point x="103" y="286" type="line" smooth="yes"/>
      <point x="78" y="286"/>
      <point x="67" y="275"/>
      <point x="67" y="250" type="curve" smooth="yes"/>
      <point x="67" y="96" type="line" smooth="yes"/>
      <point x="67" y="71"/>
      <point x="78" y="60"/>
      <point x="103" y="60" type="curve" smooth="yes"/>
      <point x="180" y="60" type="line" smooth="yes"/>
      <point x="242" y="60"/>
      <point x="260" y="72"/>
      <point x="303" y="98" type="curve" smooth="yes"/>
      <point x="412" y="164" type="line"/>
      <point x="521" y="98" type="line" smooth="yes"/>
      <point x="564" y="72"/>
      <point x="582" y="60"/>
      <point x="644" y="60" type="curve" smooth="yes"/>
      <point x="751" y="60" type="line" smooth="yes"/>
      <point x="776" y="60"/>
      <point x="787" y="71"/>
      <point x="787" y="96" type="curve" smooth="yes"/>
      <point x="787" y="248" type="line" smooth="yes"/>
      <point x="787" y="273"/>
      <point x="776" y="284"/>
    </contour>
    <contour>
      <point x="40" y="368" type="move" name="top"/>
    </contour>
    <contour>
      <point x="787" y="368" type="move" name="bottom"/>
    </contour>
  </outline>
</glyph>
<glyph name="Y" format="1">
  <advance width="842"/>
  <unicode hex="0059"/>
  <unicode hex="FF39"/>
  <outline>
    <contour>
      <point x="644" y="462" type="line"/>
      <point x="418" y="623" type="line" smooth="yes"/>
      <point x="377" y="653"/>
      <point x="347" y="661"/>
      <point x="295" y="661" type="curve" smooth="yes"/>
      <point x="103" y="661" type="line" smooth="yes"/>
      <point x="78" y="661"/>
      <point x="67" y="650"/>
      <point x="67" y="625" type="curve" smooth="yes"/>
      <point x="67" y="476" type="line" smooth="yes"/>
      <point x="67" y="451"/>
      <point x="78" y="440"/>
      <point x="103" y="440" type="curve" smooth="yes"/>
      <point x="267" y="440" type="line" smooth="yes"/>
      <point x="281" y="440"/>
      <point x="295" y="440"/>
      <point x="309" y="431" type="curve" smooth="yes"/>
      <point x="381" y="391" type="line" smooth="yes"/>
      <point x="393" y="384"/>
      <point x="398" y="378"/>
      <point x="398" y="367" type="curve"/>
      <point x="398" y="357" type="line" smooth="yes"/>
      <point x="398" y="346"/>
      <point x="393" y="340"/>
      <point x="381" y="333" type="curve" smooth="yes"/>
      <point x="309" y="294" type="line" smooth="yes"/>
      <point x="295" y="285"/>
      <point x="281" y="285"/>
      <point x="267" y="285" type="curve" smooth="yes"/>
      <point x="103" y="285" type="line" smooth="yes"/>
      <point x="78" y="285"/>
      <point x="67" y="274"/>
      <point x="67" y="249" type="curve" smooth="yes"/>
      <point x="67" y="95" type="line" smooth="yes"/>
      <point x="67" y="70"/>
      <point x="78" y="59"/>
      <point x="103" y="59" type="curve" smooth="yes"/>
      <point x="295" y="59" type="line" smooth="yes"/>
      <point x="347" y="59"/>
      <point x="377" y="66"/>
      <point x="418" y="97" type="curve" smooth="yes"/>
      <point x="644" y="259" type="line"/>
    </contour>
    <contour>
      <point x="787" y="441" type="line" smooth="yes"/>
      <point x="787" y="466"/>
      <point x="776" y="477"/>
      <point x="751" y="477" type="curve" smooth="yes"/>
      <point x="563" y="477" type="line"/>
      <point x="563" y="243" type="line"/>
      <point x="751" y="243" type="line" smooth="yes"/>
      <point x="776" y="243"/>
      <point x="787" y="253"/>
      <point x="787" y="279" type="curve" smooth="yes"/>
    </contour>
    <contour>
      <point x="40" y="212" type="move" name="top"/>
    </contour>
    <contour>
      <point x="40" y="212" type="move" name="top"/>
    </contour>
    <contour>
      <point x="787" y="212" type="move" name="bottom"/>
    </contour>
    <contour>
      <point x="787" y="212" type="move" name="bottom"/>
    </contour>
  </outline>
</glyph>
<glyph name="Z" format="1">
  <advance width="880"/>
  <unicode hex="005A"/>
  <outline>
    <contour>
      <point x="800" y="624" type="line" smooth="yes"/>
      <point x="800" y="649"/>
      <point x="789" y="660"/>
      <point x="764" y="660" type="curve" smooth="yes"/>
      <point x="645" y="660" type="line" smooth="yes"/>
      <point x="620" y="660"/>
      <point x="609" y="649"/>
      <point x="609" y="624" type="curve" smooth="yes"/>
      <point x="609" y="353" type="line"/>
      <point x="328" y="627" type="line" smooth="yes"/>
      <point x="309" y="645"/>
      <point x="292" y="652"/>
      <point x="265" y="652" type="curve" smooth="yes"/>
      <point x="116" y="652" type="line" smooth="yes"/>
      <point x="91" y="652"/>
      <point x="80" y="641"/>
      <point x="80" y="616" type="curve" smooth="yes"/>
      <point x="80" y="104" type="line" smooth="yes"/>
      <point x="80" y="79"/>
      <point x="91" y="68"/>
      <point x="116" y="68" type="curve"/>
      <point x="237" y="68" type="line"/>
      <point x="262" y="68"/>
      <point x="273" y="79"/>
      <point x="273" y="104" type="curve" smooth="yes"/>
      <point x="273" y="370" type="line"/>
      <point x="568" y="85" type="line" smooth="yes"/>
      <point x="587" y="67"/>
      <point x="604" y="60"/>
      <point x="630" y="60" type="curve"/>
      <point x="764" y="60" type="line"/>
      <point x="789" y="60"/>
      <point x="800" y="71"/>
      <point x="800" y="96" type="curve" smooth="yes"/>
    </contour>
  </outline>
</glyph>
<glyph name="bracketleft" format="1">
  <advance width="429"/>
  <unicode hex="005B"/>
  <outline>
    <contour>
      <point x="276" y="610" type="line"/>
      <point x="348" y="610" type="line" smooth="yes"/>
      <point x="373" y="610"/>
      <point x="384" y="621"/>
      <point x="384" y="646" type="curve" smooth="yes"/>
      <point x="384" y="765" type="line" smooth="yes"/>
      <point x="384" y="790"/>
      <point x="373" y="801"/>
      <point x="348" y="801" type="curve" smooth="yes"/>
      <point x="84" y="801" type="line" smooth="yes"/>
      <point x="59" y="801"/>
      <point x="48" y="790"/>
      <point x="48" y="765" type="curve" smooth="yes"/>
      <point x="48" y="-44" type="line" smooth="yes"/>
      <point x="48" y="-69"/>
      <point x="59" y="-80"/>
      <point x="84" y="-80" type="curve" smooth="yes"/>
      <point x="348" y="-80" type="line" smooth="yes"/>
      <point x="373" y="-80"/>
      <point x="384" y="-69"/>
      <point x="384" y="-44" type="curve" smooth="yes"/>
      <point x="384" y="78" type="line" smooth="yes"/>
      <point x="384" y="103"/>
      <point x="373" y="114"/>
      <point x="348" y="114" type="curve" smooth="yes"/>
      <point x="276" y="114" type="line"/>
    </contour>
  </outline>
</glyph>
<glyph name="backslash" format="2">
  <advance width="909"/>
  <unicode hex="005C"/>
  <outline>
    <contour>
      <point x="41" y="408" type="line" smooth="yes"/>
      <point x="16" y="405"/>
      <point x="5" y="397"/>
      <point x="5" y="372" type="curve" smooth="yes"/>
      <point x="5" y="227" type="line" smooth="yes"/>
      <point x="5" y="202"/>
      <point x="16" y="188"/>
      <point x="41" y="191" type="curve" smooth="yes"/>
      <point x="869" y="311" type="line" smooth="yes"/>
      <point x="894" y="314"/>
      <point x="905" y="322"/>
      <point x="905" y="347" type="curve" smooth="yes"/>
      <point x="905" y="492" type="line" smooth="yes"/>
      <point x="905" y="517"/>
      <point x="894" y="531"/>
      <point x="869" y="528" type="curve" smooth="yes"/>
    </contour>
  </outline>
</glyph>
<glyph name="bracketright" format="1">
  <advance width="429"/>
  <unicode hex="005D"/>
  <outline>
    <contour>
      <point x="153" y="114" type="line"/>
      <point x="81" y="114" type="line" smooth="yes"/>
      <point x="56" y="114"/>
      <point x="45" y="103"/>
      <point x="45" y="78" type="curve" smooth="yes"/>
      <point x="45" y="-44" type="line" smooth="yes"/>
      <point x="45" y="-69"/>
      <point x="56" y="-80"/>
      <point x="81" y="-80" type="curve" smooth="yes"/>
      <point x="345" y="-80" type="line" smooth="yes"/>
      <point x="370" y="-80"/>
      <point x="381" y="-69"/>
      <point x="381" y="-44" type="curve" smooth="yes"/>
      <point x="381" y="765" type="line" smooth="yes"/>
      <point x="381" y="790"/>
      <point x="370" y="801"/>
      <point x="345" y="801" type="curve" smooth="yes"/>
      <point x="81" y="801" type="line" smooth="yes"/>
      <point x="56" y="801"/>
      <point x="45" y="790"/>
      <point x="45" y="765" type="curve" smooth="yes"/>
      <point x="45" y="646" type="line" smooth="yes"/>
      <point x="45" y="621"/>
      <point x="56" y="610"/>
      <point x="81" y="610" type="curve" smooth="yes"/>
      <point x="153" y="610" type="line"/>
    </contour>
  </outline>
</glyph>
<glyph name="asciicircum" format="1">
  <advance width="686"/>
  <unicode hex="005E"/>
  <outline>
    <contour>
      <point x="569" y="43" type="line"/>
      <point x="594" y="38"/>
      <point x="605" y="48"/>
      <point x="605" y="73" type="curve" smooth="yes"/>
      <point x="606" y="205" type="line" smooth="yes"/>
      <point x="607" y="231"/>
      <point x="596" y="243"/>
      <point x="571" y="246" type="curve" smooth="yes"/>
      <point x="282" y="324" type="line" smooth="yes"/>
      <point x="268" y="327"/>
      <point x="264" y="330"/>
      <point x="265" y="343" type="curve" smooth="yes"/>
      <point x="264" y="355"/>
      <point x="268" y="358"/>
      <point x="282" y="361" type="curve" smooth="yes"/>
      <point x="571" y="439" type="line" smooth="yes"/>
      <point x="596" y="442"/>
      <point x="607" y="454"/>
      <point x="606" y="480" type="curve" smooth="yes"/>
      <point x="605" y="612" type="line" smooth="yes"/>
      <point x="605" y="637"/>
      <point x="594" y="647"/>
      <point x="569" y="642" type="curve" smooth="yes"/>
      <point x="188" y="534" type="line" smooth="yes"/>
      <point x="105" y="509"/>
      <point x="60" y="478"/>
      <point x="60" y="379" type="curve" smooth="yes"/>
      <point x="60" y="306" type="line" smooth="yes"/>
      <point x="60" y="207"/>
      <point x="105" y="175"/>
      <point x="188" y="151" type="curve" smooth="yes"/>
    </contour>
  </outline>
</glyph>
<glyph name="underscore" format="1">
  <advance width="346"/>
  <unicode hex="005F"/>
  <outline>
    <contour>
      <point x="276" y="99" type="curve"/>
      <point x="276" y="621" type="line" smooth="yes"/>
      <point x="276" y="646"/>
      <point x="266" y="657"/>
      <point x="240" y="657" type="curve" smooth="yes"/>
      <point x="106" y="657" type="line" smooth="yes"/>
      <point x="80" y="657"/>
      <point x="70" y="646"/>
      <point x="70" y="621" type="curve" smooth="yes"/>
      <point x="70" y="99" type="line" smooth="yes"/>
      <point x="70" y="74"/>
      <point x="81" y="63"/>
      <point x="106" y="63" type="curve" smooth="yes"/>
      <point x="240" y="63" type="line" smooth="yes"/>
      <point x="266" y="63"/>
      <point x="276" y="74"/>
    </contour>
  </outline>
</glyph>
<glyph name="braceleft" format="1">
  <advance width="455"/>
  <unicode hex="007B"/>
  <outline>
    <contour>
      <point x="312" y="560" type="line"/>
      <point x="312" y="595"/>
      <point x="321" y="610"/>
      <point x="353" y="610" type="curve" smooth="yes"/>
      <point x="374" y="610" type="line" smooth="yes"/>
      <point x="399" y="610"/>
      <point x="410" y="621"/>
      <point x="410" y="646" type="curve" smooth="yes"/>
      <point x="410" y="765" type="line" smooth="yes"/>
      <point x="410" y="790"/>
      <point x="399" y="801"/>
      <point x="374" y="801" type="curve" smooth="yes"/>
      <point x="330" y="801" type="line" smooth="yes"/>
      <point x="141" y="801"/>
      <point x="84" y="718"/>
      <point x="84" y="597" type="curve" smooth="yes"/>
      <point x="84" y="467" type="line"/>
      <point x="41" y="454"/>
      <point x="20" y="428"/>
      <point x="20" y="380" type="curve" smooth="yes"/>
      <point x="20" y="345" type="line" smooth="yes"/>
      <point x="20" y="297"/>
      <point x="41" y="272"/>
      <point x="84" y="259" type="curve"/>
      <point x="84" y="126" type="line" smooth="yes"/>
      <point x="84" y="4"/>
      <point x="141" y="-80"/>
      <point x="330" y="-80" type="curve" smooth="yes"/>
      <point x="374" y="-80" type="line" smooth="yes"/>
      <point x="399" y="-80"/>
      <point x="410" y="-69"/>
      <point x="410" y="-44" type="curve" smooth="yes"/>
      <point x="410" y="78" type="line" smooth="yes"/>
      <point x="410" y="103"/>
      <point x="399" y="114"/>
      <point x="374" y="114" type="curve" smooth="yes"/>
      <point x="353" y="114" type="line" smooth="yes"/>
      <point x="321" y="114"/>
      <point x="312" y="129"/>
      <point x="312" y="164" type="curve" smooth="yes"/>
      <point x="312" y="281" type="line" smooth="yes"/>
      <point x="312" y="321"/>
      <point x="302" y="337"/>
      <point x="267" y="343" type="curve" smooth="yes"/>
      <point x="234" y="349" type="line"/>
      <point x="224" y="350"/>
      <point x="221" y="354"/>
      <point x="221" y="363" type="curve" smooth="yes"/>
      <point x="221" y="372"/>
      <point x="224" y="375"/>
      <point x="234" y="377" type="curve" smooth="yes"/>
      <point x="267" y="383" type="line" smooth="yes"/>
      <point x="302" y="389"/>
      <point x="312" y="405"/>
      <point x="312" y="445" type="curve" smooth="yes"/>
    </contour>
  </outline>
</glyph>
<glyph name="bar" format="1">
  <advance width="1030"/>
  <unicode hex="007C"/>
  <outline>
    <contour>
      <point x="101" y="468" type="line" smooth="yes"/>
      <point x="76" y="468"/>
      <point x="65" y="457"/>
      <point x="65" y="432" type="curve" smooth="yes"/>
      <point x="65" y="287" type="line" smooth="yes"/>
      <point x="65" y="262"/>
      <point x="76" y="251"/>
      <point x="101" y="251" type="curve" smooth="yes"/>
      <point x="929" y="251" type="line" smooth="yes"/>
      <point x="954" y="251"/>
      <point x="965" y="262"/>
      <point x="965" y="287" type="curve" smooth="yes"/>
      <point x="965" y="432" type="line" smooth="yes"/>
      <point x="965" y="457"/>
      <point x="954" y="468"/>
      <point x="929" y="468" type="curve"/>
    </contour>
  </outline>
</glyph>
<glyph name="braceright" format="1">
  <advance width="455"/>
  <unicode hex="007D"/>
  <outline>
    <contour>
      <point x="143" y="560" type="curve"/>
      <point x="143" y="445" type="line"/>
      <point x="143" y="405"/>
      <point x="153" y="389"/>
      <point x="188" y="383" type="curve" smooth="yes"/>
      <point x="221" y="377" type="line" smooth="yes"/>
      <point x="231" y="375"/>
      <point x="234" y="372"/>
      <point x="234" y="363" type="curve" smooth="yes"/>
      <point x="234" y="354"/>
      <point x="231" y="350"/>
      <point x="221" y="349" type="curve"/>
      <point x="188" y="343" type="line" smooth="yes"/>
      <point x="153" y="337"/>
      <point x="143" y="321"/>
      <point x="143" y="281" type="curve" smooth="yes"/>
      <point x="143" y="164" type="line" smooth="yes"/>
      <point x="143" y="129"/>
      <point x="134" y="114"/>
      <point x="102" y="114" type="curve" smooth="yes"/>
      <point x="81" y="114" type="line" smooth="yes"/>
      <point x="56" y="114"/>
      <point x="45" y="103"/>
      <point x="45" y="78" type="curve" smooth="yes"/>
      <point x="45" y="-44" type="line" smooth="yes"/>
      <point x="45" y="-69"/>
      <point x="56" y="-80"/>
      <point x="81" y="-80" type="curve" smooth="yes"/>
      <point x="125" y="-80" type="line" smooth="yes"/>
      <point x="314" y="-80"/>
      <point x="371" y="4"/>
      <point x="371" y="126" type="curve" smooth="yes"/>
      <point x="371" y="259" type="line"/>
      <point x="414" y="272"/>
      <point x="435" y="297"/>
      <point x="435" y="345" type="curve" smooth="yes"/>
      <point x="435" y="380" type="line" smooth="yes"/>
      <point x="435" y="428"/>
      <point x="414" y="454"/>
      <point x="371" y="467" type="curve"/>
      <point x="371" y="597" type="line" smooth="yes"/>
      <point x="371" y="718"/>
      <point x="314" y="801"/>
      <point x="125" y="801" type="curve" smooth="yes"/>
      <point x="81" y="801" type="line" smooth="yes"/>
      <point x="56" y="801"/>
      <point x="45" y="790"/>
      <point x="45" y="765" type="curve" smooth="yes"/>
      <point x="45" y="646" type="line" smooth="yes"/>
      <point x="45" y="621"/>
      <point x="56" y="610"/>
      <point x="81" y="610" type="curve" smooth="yes"/>
      <point x="102" y="610" type="line" smooth="yes"/>
      <point x="134" y="610"/>
      <point x="143" y="595"/>
    </contour>
  </outline>
</glyph>
<glyph name="asciitilde" format="2">
  <advance width="363"/>
  <unicode hex="007E"/>
  <outline>
    <contour>
      <point x="274" y="360" type="line"/>
      <point x="277" y="383" type="line" smooth="yes"/>
      <point x="294" y="496"/>
      <point x="301" y="517"/>
      <point x="265" y="620" type="curve" smooth="yes"/>
      <point x="258" y="638"/>
      <point x="247" y="657"/>
      <point x="212" y="657" type="curve" smooth="yes"/>
      <point x="113" y="657" type="line" smooth="yes"/>
      <point x="83" y="657"/>
      <point x="72" y="640"/>
      <point x="82" y="605" type="curve" smooth="yes"/>
      <point x="107" y="522"/>
      <point x="111" y="516"/>
      <point x="93" y="391" type="curve" smooth="yes"/>
      <point x="89" y="360" type="line"/>
      <point x="86" y="336" type="line" smooth="yes"/>
      <point x="69" y="222"/>
      <point x="62" y="203"/>
      <point x="98" y="100" type="curve" smooth="yes"/>
      <point x="105" y="80"/>
      <point x="116" y="63"/>
      <point x="151" y="63" type="curve" smooth="yes"/>
      <point x="257" y="63" type="line" smooth="yes"/>
      <point x="280" y="63"/>
      <point x="291" y="80"/>
      <point x="282" y="114" type="curve"/>
      <point x="259" y="189"/>
      <point x="253" y="212"/>
      <point x="269" y="320" type="curve"/>
    </contour>
  </outline>
</glyph>
<glyph name="exclamdown" format="2">
  <advance width="830"/>
  <unicode hex="00A1"/>
  <outline>
    <contour>
      <point x="55" y="453" type="line" smooth="yes"/>
      <point x="55" y="478"/>
      <point x="66" y="489"/>
      <point x="91" y="489" type="curve" smooth="yes"/>
      <point x="222" y="489" type="line" smooth="yes"/>
      <point x="248" y="489"/>
      <point x="258" y="478"/>
      <point x="258" y="453" type="curve" smooth="yes"/>
      <point x="258" y="269" type="line" smooth="yes"/>
      <point x="258" y="244"/>
      <point x="248" y="233"/>
      <point x="222" y="233" type="curve"/>
      <point x="91" y="233" type="line"/>
      <point x="66" y="233"/>
      <point x="55" y="244"/>
      <point x="55" y="269" type="curve" smooth="yes"/>
    </contour>
    <contour>
      <point x="317" y="438" type="line" smooth="yes"/>
      <point x="317" y="463"/>
      <point x="328" y="475"/>
      <point x="353" y="476" type="curve" smooth="yes"/>
      <point x="739" y="490" type="line" smooth="yes"/>
      <point x="764" y="491"/>
      <point x="775" y="481"/>
      <point x="775" y="456" type="curve" smooth="yes"/>
      <point x="775" y="265" type="line" smooth="yes"/>
      <point x="775" y="240"/>
      <point x="764" y="230"/>
      <point x="739" y="231" type="curve" smooth="yes"/>
      <point x="353" y="246" type="line" smooth="yes"/>
      <point x="328" y="247"/>
      <point x="317" y="258"/>
      <point x="317" y="283" type="curve" smooth="yes"/>
    </contour>
  </outline>
</glyph>
<glyph name="cent" format="1">
  <advance width="930"/>
  <unicode hex="00A2"/>
  <outline>
    <contour>
      <point x="785" y="594" type="line" smooth="yes"/>
      <point x="785" y="619"/>
      <point x="774" y="630"/>
      <point x="749" y="630" type="curve" smooth="yes"/>
      <point x="630" y="630" type="line" smooth="yes"/>
      <point x="605" y="630"/>
      <point x="594" y="619"/>
      <point x="594" y="594" type="curve" smooth="yes"/>
      <point x="594" y="393" type="line" smooth="yes"/>
      <point x="594" y="341"/>
      <point x="574" y="332"/>
      <point x="546" y="332" type="curve" smooth="yes"/>
      <point x="388" y="332" type="line" smooth="yes"/>
      <point x="362" y="332"/>
      <point x="338" y="341"/>
      <point x="338" y="393" type="curve" smooth="yes"/>
      <point x="338" y="594" type="line" smooth="yes"/>
      <point x="338" y="619"/>
      <point x="327" y="630"/>
      <point x="302" y="630" type="curve" smooth="yes"/>
      <point x="181" y="630" type="line" smooth="yes"/>
      <point x="156" y="630"/>
      <point x="145" y="619"/>
      <point x="145" y="594" type="curve" smooth="yes"/>
      <point x="145" y="350" type="line" smooth="yes"/>
      <point x="145" y="161"/>
      <point x="228" y="104"/>
      <point x="350" y="104" type="curve" smooth="yes"/>
      <point x="581" y="104" type="line" smooth="yes"/>
      <point x="702" y="104"/>
      <point x="785" y="161"/>
      <point x="785" y="350" type="curve" smooth="yes"/>
    </contour>
    <contour>
      <point x="702" y="300" type="line"/>
      <point x="839" y="300" type="line" smooth="yes"/>
      <point x="864" y="300"/>
      <point x="875" y="311"/>
      <point x="875" y="336" type="curve" smooth="yes"/>
      <point x="875" y="481" type="line" smooth="yes"/>
      <point x="875" y="506"/>
      <point x="864" y="517"/>
      <point x="839" y="517" type="curve" smooth="yes"/>
      <point x="702" y="517" type="line"/>
    </contour>
    <contour>
      <point x="243" y="517" type="line"/>
      <point x="91" y="517" type="line" smooth="yes"/>
      <point x="66" y="517"/>
      <point x="55" y="506"/>
      <point x="55" y="481" type="curve" smooth="yes"/>
      <point x="55" y="336" type="line" smooth="yes"/>
      <point x="55" y="311"/>
      <point x="66" y="300"/>
      <point x="91" y="300" type="curve" smooth="yes"/>
      <point x="243" y="300" type="line"/>
    </contour>
  </outline>
</glyph>
<glyph name="sterling" format="1">
  <advance width="880"/>
  <unicode hex="00A3"/>
  <outline>
    <contour>
      <point x="800" y="626" type="line" smooth="yes"/>
      <point x="800" y="651"/>
      <point x="789" y="662"/>
      <point x="764" y="662" type="curve" smooth="yes"/>
      <point x="509" y="662" type="line" smooth="yes"/>
      <point x="484" y="662"/>
      <point x="473" y="651"/>
      <point x="473" y="626" type="curve" smooth="yes"/>
      <point x="473" y="481" type="line" smooth="yes"/>
      <point x="473" y="456"/>
      <point x="484" y="445"/>
      <point x="509" y="445" type="curve" smooth="yes"/>
      <point x="611" y="445" type="line"/>
      <point x="611" y="308" type="line"/>
      <point x="323" y="308" type="line" smooth="yes"/>
      <point x="297" y="308"/>
      <point x="273" y="317"/>
      <point x="273" y="369" type="curve" smooth="yes"/>
      <point x="273" y="517" type="line" smooth="yes"/>
      <point x="273" y="542"/>
      <point x="262" y="553"/>
      <point x="237" y="553" type="curve" smooth="yes"/>
      <point x="116" y="553" type="line" smooth="yes"/>
      <point x="91" y="553"/>
      <point x="80" y="542"/>
      <point x="80" y="517" type="curve" smooth="yes"/>
      <point x="80" y="327" type="line" smooth="yes"/>
      <point x="80" y="138"/>
      <point x="163" y="81"/>
      <point x="284" y="81" type="curve"/>
      <point x="764" y="81" type="line"/>
      <point x="789" y="81"/>
      <point x="800" y="92"/>
      <point x="800" y="117" type="curve" smooth="yes"/>
    </contour>
    <contour>
      <point x="535" y="68" type="curve"/>
      <point x="535" y="356" type="line" smooth="yes"/>
      <point x="535" y="381"/>
      <point x="525" y="392"/>
      <point x="499" y="392" type="curve" smooth="yes"/>
      <point x="392" y="392" type="line" smooth="yes"/>
      <point x="366" y="392"/>
      <point x="356" y="381"/>
      <point x="356" y="356" type="curve" smooth="yes"/>
      <point x="356" y="68" type="line" smooth="yes"/>
      <point x="356" y="43"/>
      <point x="367" y="32"/>
      <point x="392" y="32" type="curve" smooth="yes"/>
      <point x="499" y="32" type="line" smooth="yes"/>
      <point x="525" y="32"/>
      <point x="535" y="43"/>
    </contour>
  </outline>
</glyph>
<glyph name="currency" format="1">
  <advance width="884"/>
  <unicode hex="00A4"/>
  <outline>
    <contour>
      <point x="381" y="545" type="line"/>
      <point x="215" y="711" type="line"/>
      <point x="199" y="729"/>
      <point x="185" y="730"/>
      <point x="167" y="711" type="curve" smooth="yes"/>
      <point x="91" y="635" type="line" smooth="yes"/>
      <point x="72" y="617"/>
      <point x="73" y="603"/>
      <point x="91" y="587" type="curve"/>
      <point x="244" y="434" type="line"/>
    </contour>
    <contour>
      <point x="530" y="147" type="line"/>
      <point x="669" y="8" type="line" smooth="yes"/>
      <point x="685" y="-9"/>
      <point x="700" y="-9"/>
      <point x="718" y="8" type="curve" smooth="yes"/>
      <point x="794" y="84" type="line" smooth="yes"/>
      <point x="812" y="103"/>
      <point x="811" y="117"/>
      <point x="794" y="133" type="curve" smooth="yes"/>
      <point x="656" y="271" type="line"/>
    </contour>
    <contour>
      <point x="657" y="450" type="line"/>
      <point x="794" y="587" type="line" smooth="yes"/>
      <point x="811" y="603"/>
      <point x="812" y="617"/>
      <point x="794" y="635" type="curve" smooth="yes"/>
      <point x="718" y="711" type="line" smooth="yes"/>
      <point x="699" y="730"/>
      <point x="685" y="729"/>
      <point x="669" y="711" type="curve"/>
      <point x="518" y="560" type="line"/>
    </contour>
    <contour>
      <point x="241" y="283" type="line"/>
      <point x="91" y="133" type="line"/>
      <point x="73" y="117"/>
      <point x="73" y="102"/>
      <point x="91" y="84" type="curve" smooth="yes"/>
      <point x="167" y="8" type="line" smooth="yes"/>
      <point x="185" y="-10"/>
      <point x="199" y="-9"/>
      <point x="215" y="8" type="curve" smooth="yes"/>
      <point x="369" y="162" type="line"/>
    </contour>
    <contour>
      <point x="542" y="623" type="curve"/>
      <point x="343" y="623" type="line" smooth="yes"/>
      <point x="233" y="623"/>
      <point x="158" y="573"/>
      <point x="158" y="362" type="curve" smooth="yes"/>
      <point x="158" y="151"/>
      <point x="233" y="100"/>
      <point x="343" y="100" type="curve" smooth="yes"/>
      <point x="542" y="100" type="line" smooth="yes"/>
      <point x="652" y="100"/>
      <point x="726" y="151"/>
      <point x="726" y="362" type="curve" smooth="yes"/>
      <point x="726" y="573"/>
      <point x="652" y="623"/>
    </contour>
    <contour>
      <point x="513" y="282" type="curve"/>
      <point x="372" y="282" type="line" smooth="yes"/>
      <point x="347" y="282"/>
      <point x="328" y="294"/>
      <point x="328" y="362" type="curve" smooth="yes"/>
      <point x="328" y="431"/>
      <point x="347" y="442"/>
      <point x="372" y="442" type="curve" smooth="yes"/>
      <point x="513" y="442" type="line" smooth="yes"/>
      <point x="539" y="442"/>
      <point x="558" y="431"/>
      <point x="558" y="362" type="curve" smooth="yes"/>
      <point x="558" y="294"/>
      <point x="539" y="282"/>
    </contour>
  </outline>
</glyph>
<glyph name="yen" format="1">
  <advance width="880"/>
  <unicode hex="00A5"/>
  <outline>
    <contour>
      <point x="587" y="462" type="line"/>
      <point x="359" y="638" type="line" smooth="yes"/>
      <point x="321" y="666"/>
      <point x="280" y="667"/>
      <point x="229" y="667" type="curve"/>
      <point x="116" y="667" type="line" smooth="yes"/>
      <point x="91" y="667"/>
      <point x="80" y="656"/>
      <point x="80" y="631" type="curve" smooth="yes"/>
      <point x="80" y="484" type="line" smooth="yes"/>
      <point x="80" y="458"/>
      <point x="91" y="448"/>
      <point x="116" y="448" type="curve" smooth="yes"/>
      <point x="261" y="448" type="line" smooth="yes"/>
      <point x="275" y="448"/>
      <point x="288" y="449"/>
      <point x="302" y="440" type="curve" smooth="yes"/>
      <point x="366" y="397" type="line" smooth="yes"/>
      <point x="378" y="389"/>
      <point x="383" y="382"/>
      <point x="383" y="371" type="curve" smooth="yes"/>
      <point x="383" y="359" type="line" smooth="yes"/>
      <point x="383" y="348"/>
      <point x="377" y="341"/>
      <point x="366" y="333" type="curve" smooth="yes"/>
      <point x="301" y="287" type="line" smooth="yes"/>
      <point x="286" y="280"/>
      <point x="274" y="279"/>
      <point x="260" y="279" type="curve" smooth="yes"/>
      <point x="116" y="279" type="line" smooth="yes"/>
      <point x="91" y="279"/>
      <point x="80" y="268"/>
      <point x="80" y="243" type="curve" smooth="yes"/>
      <point x="80" y="88" type="line" smooth="yes"/>
      <point x="80" y="63"/>
      <point x="91" y="52"/>
      <point x="116" y="52" type="curve" smooth="yes"/>
      <point x="228" y="52" type="line" smooth="yes"/>
      <point x="279" y="52"/>
      <point x="320" y="52"/>
      <point x="358" y="81" type="curve" smooth="yes"/>
      <point x="587" y="259" type="line"/>
    </contour>
    <contour>
      <point x="800" y="436" type="line" smooth="yes"/>
      <point x="800" y="461"/>
      <point x="789" y="472"/>
      <point x="764" y="472" type="curve" smooth="yes"/>
      <point x="546" y="472" type="line"/>
      <point x="546" y="248" type="line"/>
      <point x="764" y="248" type="line" smooth="yes"/>
      <point x="789" y="248"/>
      <point x="800" y="258"/>
      <point x="800" y="284" type="curve" smooth="yes"/>
    </contour>
    <contour>
      <point x="670" y="139" type="curve"/>
      <point x="670" y="581" type="line" smooth="yes"/>
      <point x="670" y="606"/>
      <point x="660" y="617"/>
      <point x="634" y="617" type="curve" smooth="yes"/>
      <point x="537" y="617" type="line" smooth="yes"/>
      <point x="511" y="617"/>
      <point x="501" y="606"/>
      <point x="501" y="581" type="curve" smooth="yes"/>
      <point x="501" y="139" type="line" smooth="yes"/>
      <point x="501" y="114"/>
      <point x="512" y="103"/>
      <point x="537" y="103" type="curve" smooth="yes"/>
      <point x="634" y="103" type="line" smooth="yes"/>
      <point x="660" y="103"/>
      <point x="670" y="114"/>
    </contour>
  </outline>
</glyph>
<glyph name="brokenbar" format="1">
  <advance width="1030"/>
  <unicode hex="00A6"/>
  <outline>
    <contour>
      <point x="101" y="468" type="line" smooth="yes"/>
      <point x="76" y="468"/>
      <point x="65" y="457"/>
      <point x="65" y="432" type="curve" smooth="yes"/>
      <point x="65" y="287" type="line" smooth="yes"/>
      <point x="65" y="262"/>
      <point x="76" y="251"/>
      <point x="101" y="251" type="curve" smooth="yes"/>
      <point x="439" y="251" type="line" smooth="yes"/>
      <point x="464" y="251"/>
      <point x="475" y="262"/>
      <point x="475" y="287" type="curve" smooth="yes"/>
      <point x="475" y="432" type="line" smooth="yes"/>
      <point x="475" y="457"/>
      <point x="464" y="468"/>
      <point x="439" y="468" type="curve"/>
    </contour>
    <contour>
      <point x="591" y="468" type="line" smooth="yes"/>
      <point x="566" y="468"/>
      <point x="555" y="457"/>
      <point x="555" y="432" type="curve" smooth="yes"/>
      <point x="555" y="287" type="line" smooth="yes"/>
      <point x="555" y="262"/>
      <point x="566" y="251"/>
      <point x="591" y="251" type="curve" smooth="yes"/>
      <point x="929" y="251" type="line" smooth="yes"/>
      <point x="954" y="251"/>
      <point x="965" y="262"/>
      <point x="965" y="287" type="curve" smooth="yes"/>
      <point x="965" y="432" type="line" smooth="yes"/>
      <point x="965" y="457"/>
      <point x="954" y="468"/>
      <point x="929" y="468" type="curve" smooth="yes"/>
    </contour>
  </outline>
</glyph>
<glyph name="section" format="1">
  <advance width="880"/>
  <unicode hex="00A7"/>
  <outline>
    <contour>
      <point x="595" y="517" type="line" smooth="yes"/>
      <point x="595" y="542"/>
      <point x="584" y="553"/>
      <point x="559" y="553" type="curve" smooth="yes"/>
      <point x="510" y="553" type="line" smooth="yes"/>
      <point x="485" y="553"/>
      <point x="474" y="542"/>
      <point x="474" y="517" type="curve" smooth="yes"/>
      <point x="474" y="366" type="line" smooth="yes"/>
      <point x="474" y="314"/>
      <point x="454" y="305"/>
      <point x="426" y="305" type="curve" smooth="yes"/>
      <point x="283" y="305" type="line" smooth="yes"/>
      <point x="257" y="305"/>
      <point x="233" y="314"/>
      <point x="233" y="366" type="curve" smooth="yes"/>
      <point x="233" y="573" type="line" smooth="yes"/>
      <point x="233" y="598"/>
      <point x="222" y="609"/>
      <point x="197" y="609" type="curve" smooth="yes"/>
      <point x="116" y="609" type="line" smooth="yes"/>
      <point x="91" y="609"/>
      <point x="80" y="598"/>
      <point x="80" y="573" type="curve" smooth="yes"/>
      <point x="80" y="333" type="line" smooth="yes"/>
      <point x="80" y="144"/>
      <point x="163" y="87"/>
      <point x="285" y="87" type="curve" smooth="yes"/>
      <point x="391" y="87" type="line" smooth="yes"/>
      <point x="512" y="87"/>
      <point x="595" y="144"/>
      <point x="595" y="333" type="curve" smooth="yes"/>
    </contour>
    <contour>
      <point x="285" y="215" type="line" smooth="yes"/>
      <point x="285" y="190"/>
      <point x="296" y="179"/>
      <point x="321" y="179" type="curve" smooth="yes"/>
      <point x="370" y="179" type="line" smooth="yes"/>
      <point x="395" y="179"/>
      <point x="406" y="190"/>
      <point x="406" y="215" type="curve" smooth="yes"/>
      <point x="406" y="366" type="line" smooth="yes"/>
      <point x="406" y="418"/>
      <point x="426" y="427"/>
      <point x="454" y="427" type="curve" smooth="yes"/>
      <point x="597" y="427" type="line" smooth="yes"/>
      <point x="623" y="427"/>
      <point x="647" y="418"/>
      <point x="647" y="366" type="curve" smooth="yes"/>
      <point x="647" y="133" type="line" smooth="yes"/>
      <point x="647" y="108"/>
      <point x="658" y="97"/>
      <point x="683" y="97" type="curve" smooth="yes"/>
      <point x="764" y="97" type="line" smooth="yes"/>
      <point x="789" y="97"/>
      <point x="800" y="108"/>
      <point x="800" y="133" type="curve" smooth="yes"/>
      <point x="800" y="399" type="line" smooth="yes"/>
      <point x="800" y="588"/>
      <point x="717" y="645"/>
      <point x="595" y="645" type="curve" smooth="yes"/>
      <point x="489" y="645" type="line" smooth="yes"/>
      <point x="368" y="645"/>
      <point x="285" y="588"/>
      <point x="285" y="399" type="curve" smooth="yes"/>
    </contour>
  </outline>
</glyph>
<glyph name="dieresis" format="1">
  <advance width="271"/>
  <unicode hex="00A8"/>
  <outline>
    <contour>
      <point x="229" y="298" type="line" smooth="yes"/>
      <point x="229" y="321"/>
      <point x="219" y="331"/>
      <point x="196" y="331" type="curve" smooth="yes"/>
      <point x="75" y="331" type="line" smooth="yes"/>
      <point x="52" y="331"/>
      <point x="42" y="321"/>
      <point x="42" y="298" type="curve" smooth="yes"/>
      <point x="42" y="160" type="line" smooth="yes"/>
      <point x="42" y="137"/>
      <point x="52" y="126"/>
      <point x="75" y="126" type="curve" smooth="yes"/>
      <point x="196" y="126" type="line" smooth="yes"/>
      <point x="219" y="126"/>
      <point x="229" y="137"/>
      <point x="229" y="160" type="curve" smooth="yes"/>
    </contour>
    <contour>
      <point x="229" y="556" type="line" smooth="yes"/>
      <point x="229" y="579"/>
      <point x="219" y="589"/>
      <point x="196" y="589" type="curve" smooth="yes"/>
      <point x="75" y="589" type="line" smooth="yes"/>
      <point x="52" y="589"/>
      <point x="42" y="579"/>
      <point x="42" y="556" type="curve" smooth="yes"/>
      <point x="42" y="418" type="line" smooth="yes"/>
      <point x="42" y="395"/>
      <point x="52" y="385"/>
      <point x="75" y="385" type="curve" smooth="yes"/>
      <point x="196" y="385" type="line" smooth="yes"/>
      <point x="219" y="385"/>
      <point x="229" y="395"/>
      <point x="229" y="418" type="curve" smooth="yes"/>
    </contour>
    <contour>
      <point x="242" y="360" type="move" name="_top"/>
    </contour>
    <contour>
      <point x="989" y="360" type="move" name="_bottom"/>
    </contour>
  </outline>
</glyph>
<glyph name="copyright" format="1">
  <advance width="1025"/>
  <unicode hex="00A9"/>
  <outline>
    <contour>
      <point x="719" y="733" type="curve" smooth="yes"/>
      <point x="309" y="733" type="line" smooth="yes"/>
      <point x="162" y="733"/>
      <point x="62" y="661"/>
      <point x="62" y="360" type="curve" smooth="yes"/>
      <point x="62" y="60"/>
      <point x="162" y="-14"/>
      <point x="309" y="-14" type="curve" smooth="yes"/>
      <point x="719" y="-14" type="line" smooth="yes"/>
      <point x="865" y="-14"/>
      <point x="964" y="60"/>
      <point x="964" y="360" type="curve" smooth="yes"/>
      <point x="964" y="661"/>
      <point x="865" y="733"/>
    </contour>
    <contour>
      <point x="723" y="633" type="line"/>
      <point x="809" y="633"/>
      <point x="868" y="580"/>
      <point x="868" y="360" type="curve" smooth="yes"/>
      <point x="868" y="140"/>
      <point x="809" y="86"/>
      <point x="723" y="86" type="curve"/>
      <point x="305" y="86" type="line"/>
      <point x="218" y="86"/>
      <point x="158" y="140"/>
      <point x="158" y="360" type="curve" smooth="yes"/>
      <point x="158" y="580"/>
      <point x="218" y="633"/>
      <point x="305" y="633" type="curve"/>
    </contour>
    <contour>
      <point x="763" y="515" type="line" smooth="yes"/>
      <point x="763" y="533"/>
      <point x="755" y="541"/>
      <point x="737" y="541" type="curve" smooth="yes"/>
      <point x="652" y="541" type="line" smooth="yes"/>
      <point x="634" y="541"/>
      <point x="626" y="533"/>
      <point x="626" y="515" type="curve" smooth="yes"/>
      <point x="626" y="371" type="line" smooth="yes"/>
      <point x="626" y="333"/>
      <point x="612" y="327"/>
      <point x="592" y="327" type="curve" smooth="yes"/>
      <point x="421" y="327" type="line" smooth="yes"/>
      <point x="403" y="327"/>
      <point x="385" y="333"/>
      <point x="385" y="371" type="curve" smooth="yes"/>
      <point x="385" y="515" type="line" smooth="yes"/>
      <point x="385" y="533"/>
      <point x="377" y="541"/>
      <point x="360" y="541" type="curve" smooth="yes"/>
      <point x="273" y="541" type="line" smooth="yes"/>
      <point x="255" y="541"/>
      <point x="247" y="533"/>
      <point x="247" y="515" type="curve" smooth="yes"/>
      <point x="247" y="340" type="line" smooth="yes"/>
      <point x="247" y="204"/>
      <point x="306" y="164"/>
      <point x="394" y="164" type="curve" smooth="yes"/>
      <point x="617" y="164" type="line" smooth="yes"/>
      <point x="704" y="164"/>
      <point x="763" y="204"/>
      <point x="763" y="340" type="curve" smooth="yes"/>
    </contour>
  </outline>
</glyph>
<glyph name="guillemotleft" format="1">
  <advance width="812"/>
  <unicode hex="00AB"/>
  <outline>
    <contour>
      <point x="356" y="118" type="line" smooth="yes"/>
      <point x="380" y="111"/>
      <point x="392" y="125"/>
      <point x="392" y="149" type="curve" smooth="yes"/>
      <point x="392" y="266" type="line" smooth="yes"/>
      <point x="392" y="292"/>
      <point x="380" y="308"/>
      <point x="356" y="315" type="curve" smooth="yes"/>
      <point x="261" y="342" type="line" smooth="yes"/>
      <point x="247" y="347"/>
      <point x="244" y="349"/>
      <point x="244" y="361" type="curve" smooth="yes"/>
      <point x="244" y="373"/>
      <point x="248" y="375"/>
      <point x="261" y="380" type="curve" smooth="yes"/>
      <point x="356" y="408" type="line" smooth="yes"/>
      <point x="379" y="417"/>
      <point x="392" y="431"/>
      <point x="392" y="457" type="curve" smooth="yes"/>
      <point x="392" y="574" type="line" smooth="yes"/>
      <point x="392" y="600"/>
      <point x="377" y="611"/>
      <point x="356" y="605" type="curve" smooth="yes"/>
      <point x="177" y="553" type="line" smooth="yes"/>
      <point x="94" y="528"/>
      <point x="50" y="497"/>
      <point x="50" y="398" type="curve" smooth="yes"/>
      <point x="50" y="324" type="line" smooth="yes"/>
      <point x="50" y="225"/>
      <point x="94" y="193"/>
      <point x="177" y="169" type="curve" smooth="yes"/>
    </contour>
    <contour>
      <point x="716" y="121" type="line" smooth="yes"/>
      <point x="740" y="114"/>
      <point x="752" y="128"/>
      <point x="752" y="152" type="curve" smooth="yes"/>
      <point x="752" y="266" type="line" smooth="yes"/>
      <point x="752" y="292"/>
      <point x="740" y="308"/>
      <point x="716" y="315" type="curve" smooth="yes"/>
      <point x="621" y="342" type="line"/>
      <point x="607" y="347"/>
      <point x="604" y="349"/>
      <point x="604" y="361" type="curve" smooth="yes"/>
      <point x="604" y="373"/>
      <point x="608" y="375"/>
      <point x="621" y="380" type="curve"/>
      <point x="716" y="408" type="line"/>
      <point x="739" y="417"/>
      <point x="752" y="431"/>
      <point x="752" y="457" type="curve" smooth="yes"/>
      <point x="752" y="571" type="line" smooth="yes"/>
      <point x="752" y="594"/>
      <point x="739" y="609"/>
      <point x="716" y="602" type="curve" smooth="yes"/>
      <point x="547" y="553" type="line" smooth="yes"/>
      <point x="463" y="529"/>
      <point x="420" y="497"/>
      <point x="420" y="398" type="curve" smooth="yes"/>
      <point x="420" y="324" type="line" smooth="yes"/>
      <point x="420" y="225"/>
      <point x="464" y="193"/>
      <point x="547" y="169" type="curve" smooth="yes"/>
    </contour>
  </outline>
</glyph>
<glyph name="logicalnot" format="1">
  <advance width="574"/>
  <unicode hex="00AC"/>
  <outline>
    <contour>
      <point x="502" y="621" type="line" smooth="yes"/>
      <point x="502" y="647"/>
      <point x="491" y="657"/>
      <point x="466" y="657" type="curve" smooth="yes"/>
      <point x="108" y="657" type="line" smooth="yes"/>
      <point x="82" y="657"/>
      <point x="72" y="646"/>
      <point x="72" y="621" type="curve" smooth="yes"/>
      <point x="72" y="99" type="line" smooth="yes"/>
      <point x="72" y="74"/>
      <point x="83" y="63"/>
      <point x="108" y="63" type="curve" smooth="yes"/>
      <point x="222" y="63" type="line" smooth="yes"/>
      <point x="248" y="63"/>
      <point x="258" y="74"/>
      <point x="258" y="99" type="curve"/>
      <point x="258" y="461" type="line"/>
      <point x="466" y="461" type="line" smooth="yes"/>
      <point x="491" y="461"/>
      <point x="502" y="471"/>
      <point x="502" y="497" type="curve" smooth="yes"/>
    </contour>
  </outline>
</glyph>
<glyph name="registered" format="1">
  <advance width="666"/>
  <unicode hex="00AE"/>
  <outline>
    <contour>
      <point x="476" y="314" type="line" smooth="yes"/>
      <point x="476" y="324"/>
      <point x="471" y="328"/>
      <point x="461" y="328" type="curve" smooth="yes"/>
      <point x="378" y="328" type="line"/>
      <point x="378" y="386" type="line" smooth="yes"/>
      <point x="378" y="397"/>
      <point x="383" y="401"/>
      <point x="395" y="401" type="curve" smooth="yes"/>
      <point x="461" y="401" type="line" smooth="yes"/>
      <point x="471" y="401"/>
      <point x="476" y="406"/>
      <point x="476" y="416" type="curve" smooth="yes"/>
      <point x="476" y="480" type="line" smooth="yes"/>
      <point x="476" y="490"/>
      <point x="471" y="494"/>
      <point x="461" y="494" type="curve" smooth="yes"/>
      <point x="374" y="494" type="line" smooth="yes"/>
      <point x="340" y="494"/>
      <point x="318" y="474"/>
      <point x="314" y="444" type="curve"/>
      <point x="307" y="462"/>
      <point x="291" y="468"/>
      <point x="268" y="468" type="curve" smooth="yes"/>
      <point x="249" y="468" type="line" smooth="yes"/>
      <point x="208" y="468"/>
      <point x="181" y="449"/>
      <point x="181" y="387" type="curve" smooth="yes"/>
      <point x="181" y="251" type="line" smooth="yes"/>
      <point x="181" y="240"/>
      <point x="185" y="236"/>
      <point x="196" y="236" type="curve"/>
      <point x="461" y="236" type="line"/>
      <point x="471" y="236"/>
      <point x="476" y="240"/>
      <point x="476" y="251" type="curve" smooth="yes"/>
    </contour>
    <contour>
      <point x="254" y="328" type="line"/>
      <point x="254" y="359" type="line" smooth="yes"/>
      <point x="254" y="374"/>
      <point x="263" y="377"/>
      <point x="274" y="377" type="curve" smooth="yes"/>
      <point x="287" y="377" type="line" smooth="yes"/>
      <point x="299" y="377"/>
      <point x="307" y="374"/>
      <point x="307" y="359" type="curve" smooth="yes"/>
      <point x="307" y="328" type="line"/>
    </contour>
    <contour>
      <point x="457" y="584" type="curve" smooth="yes"/>
      <point x="211" y="584" type="line" smooth="yes"/>
      <point x="122" y="584"/>
      <point x="62" y="541"/>
      <point x="62" y="360" type="curve" smooth="yes"/>
      <point x="62" y="180"/>
      <point x="122" y="136"/>
      <point x="211" y="136" type="curve" smooth="yes"/>
      <point x="457" y="136" type="line" smooth="yes"/>
      <point x="544" y="136"/>
      <point x="604" y="180"/>
      <point x="604" y="360" type="curve" smooth="yes"/>
      <point x="604" y="541"/>
      <point x="544" y="584"/>
    </contour>
    <contour>
      <point x="459" y="524" type="line"/>
      <point x="511" y="524"/>
      <point x="546" y="492"/>
      <point x="546" y="360" type="curve" smooth="yes"/>
      <point x="546" y="228"/>
      <point x="511" y="196"/>
      <point x="459" y="196" type="curve"/>
      <point x="208" y="196" type="line"/>
      <point x="156" y="196"/>
      <point x="120" y="228"/>
      <point x="120" y="360" type="curve" smooth="yes"/>
      <point x="120" y="492"/>
      <point x="156" y="524"/>
      <point x="208" y="524" type="curve"/>
    </contour>
  </outline>
</glyph>
<glyph name="macron" format="1">
  <advance width="249"/>
  <unicode hex="00AF"/>
  <unicode hex="0304"/>
  <outline>
    <contour>
      <point x="207" y="533" type="line" smooth="yes"/>
      <point x="207" y="558"/>
      <point x="196" y="569"/>
      <point x="171" y="569" type="curve" smooth="yes"/>
      <point x="78" y="569" type="line" smooth="yes"/>
      <point x="53" y="569"/>
      <point x="42" y="558"/>
      <point x="42" y="533" type="curve" smooth="yes"/>
      <point x="42" y="186" type="line" smooth="yes"/>
      <point x="42" y="161"/>
      <point x="53" y="150"/>
      <point x="78" y="150" type="curve" smooth="yes"/>
      <point x="171" y="150" type="line" smooth="yes"/>
      <point x="196" y="150"/>
      <point x="207" y="161"/>
      <point x="207" y="186" type="curve" smooth="yes"/>
    </contour>
    <contour>
      <point x="220" y="360" type="move" name="_top"/>
    </contour>
    <contour>
      <point x="967" y="360" type="move" name="_bottom"/>
    </contour>
  </outline>
</glyph>
<glyph name="degree" format="1">
  <advance width="540"/>
  <unicode hex="00B0"/>
  <outline>
    <contour>
      <point x="362" y="556" type="curve"/>
      <point x="178" y="556" type="line" smooth="yes"/>
      <point x="109" y="556"/>
      <point x="62" y="518"/>
      <point x="62" y="360" type="curve" smooth="yes"/>
      <point x="62" y="202"/>
      <point x="109" y="163"/>
      <point x="178" y="163" type="curve" smooth="yes"/>
      <point x="362" y="163" type="line" smooth="yes"/>
      <point x="431" y="163"/>
      <point x="478" y="202"/>
      <point x="478" y="360" type="curve" smooth="yes"/>
      <point x="478" y="518"/>
      <point x="431" y="556"/>
    </contour>
    <contour>
      <point x="313" y="310" type="curve"/>
      <point x="228" y="310" type="line" smooth="yes"/>
      <point x="213" y="310"/>
      <point x="200" y="318"/>
      <point x="200" y="360" type="curve" smooth="yes"/>
      <point x="200" y="404"/>
      <point x="213" y="410"/>
      <point x="228" y="410" type="curve" smooth="yes"/>
      <point x="313" y="410" type="line" smooth="yes"/>
      <point x="329" y="410"/>
      <point x="340" y="402"/>
      <point x="340" y="360" type="curve" smooth="yes"/>
      <point x="340" y="318"/>
      <point x="329" y="310"/>
    </contour>
  </outline>
</glyph>
<glyph name="twosuperior" format="1">
  <advance width="798"/>
  <unicode hex="00B2"/>
  <outline>
    <contour>
      <point x="658" y="525" type="line" smooth="yes"/>
      <point x="658" y="543"/>
      <point x="650" y="551"/>
      <point x="632" y="551" type="curve" smooth="yes"/>
      <point x="548" y="551" type="line" smooth="yes"/>
      <point x="530" y="551"/>
      <point x="522" y="543"/>
      <point x="522" y="525" type="curve"/>
      <point x="522" y="320" type="line"/>
      <point x="507" y="320" type="line" smooth="yes"/>
      <point x="491" y="320"/>
      <point x="490" y="324"/>
      <point x="485" y="339" type="curve" smooth="yes"/>
      <point x="454" y="437" type="line" smooth="yes"/>
      <point x="433" y="507"/>
      <point x="400" y="549"/>
      <point x="327" y="549" type="curve" smooth="yes"/>
      <point x="259" y="549" type="line" smooth="yes"/>
      <point x="182" y="549"/>
      <point x="140" y="504"/>
      <point x="140" y="422" type="curve" smooth="yes"/>
      <point x="140" y="210" type="line" smooth="yes"/>
      <point x="140" y="192"/>
      <point x="148" y="184"/>
      <point x="166" y="184" type="curve" smooth="yes"/>
      <point x="250" y="184" type="line" smooth="yes"/>
      <point x="268" y="184"/>
      <point x="276" y="192"/>
      <point x="276" y="210" type="curve" smooth="yes"/>
      <point x="276" y="366" type="line" smooth="yes"/>
      <point x="276" y="381"/>
      <point x="280" y="386"/>
      <point x="295" y="386" type="curve" smooth="yes"/>
      <point x="310" y="386"/>
      <point x="316" y="381"/>
      <point x="321" y="366" type="curve" smooth="yes"/>
      <point x="351" y="270" type="line" smooth="yes"/>
      <point x="371" y="204"/>
      <point x="397" y="157"/>
      <point x="508" y="157" type="curve" smooth="yes"/>
      <point x="632" y="157" type="line" smooth="yes"/>
      <point x="650" y="157"/>
      <point x="658" y="165"/>
      <point x="658" y="183" type="curve" smooth="yes"/>
    </contour>
  </outline>
</glyph>
<glyph name="threesuperior" format="1">
  <advance width="798"/>
  <unicode hex="00B3"/>
  <outline>
    <contour>
      <point x="522" y="193" type="line" smooth="yes"/>
      <point x="522" y="175"/>
      <point x="530" y="167"/>
      <point x="548" y="167" type="curve" smooth="yes"/>
      <point x="632" y="167" type="line" smooth="yes"/>
      <point x="650" y="167"/>
      <point x="658" y="175"/>
      <point x="658" y="193" type="curve" smooth="yes"/>
      <point x="658" y="421" type="line" smooth="yes"/>
      <point x="658" y="513"/>
      <point x="613" y="561"/>
      <point x="539" y="561" type="curve" smooth="yes"/>
      <point x="467" y="561" type="line" smooth="yes"/>
      <point x="403" y="561"/>
      <point x="370" y="538"/>
      <point x="362" y="470" type="curve"/>
      <point x="349" y="502"/>
      <point x="321" y="512"/>
      <point x="285" y="512" type="curve" smooth="yes"/>
      <point x="243" y="512" type="line" smooth="yes"/>
      <point x="179" y="512"/>
      <point x="140" y="474"/>
      <point x="140" y="394" type="curve" smooth="yes"/>
      <point x="140" y="193" type="line" smooth="yes"/>
      <point x="140" y="175"/>
      <point x="148" y="167"/>
      <point x="166" y="167" type="curve" smooth="yes"/>
      <point x="251" y="167" type="line" smooth="yes"/>
      <point x="269" y="167"/>
      <point x="277" y="175"/>
      <point x="277" y="193" type="curve" smooth="yes"/>
      <point x="277" y="327" type="line" smooth="yes"/>
      <point x="277" y="350"/>
      <point x="287" y="355"/>
      <point x="299" y="355" type="curve" smooth="yes"/>
      <point x="310" y="355" type="line" smooth="yes"/>
      <point x="321" y="355"/>
      <point x="331" y="350"/>
      <point x="331" y="327" type="curve" smooth="yes"/>
      <point x="331" y="252" type="line" smooth="yes"/>
      <point x="331" y="234"/>
      <point x="339" y="226"/>
      <point x="357" y="226" type="curve" smooth="yes"/>
      <point x="434" y="226" type="line" smooth="yes"/>
      <point x="452" y="226"/>
      <point x="460" y="234"/>
      <point x="460" y="252" type="curve" smooth="yes"/>
      <point x="460" y="374" type="line" smooth="yes"/>
      <point x="460" y="397"/>
      <point x="470" y="401"/>
      <point x="481" y="401" type="curve" smooth="yes"/>
      <point x="501" y="401" type="line" smooth="yes"/>
      <point x="512" y="401"/>
      <point x="522" y="397"/>
      <point x="522" y="374" type="curve" smooth="yes"/>
    </contour>
  </outline>
</glyph>
<glyph name="acute" format="1">
  <advance width="262"/>
  <unicode hex="00B4"/>
  <outline>
    <contour>
      <point x="192" y="533" type="line" smooth="yes"/>
      <point x="189" y="558"/>
      <point x="181" y="569"/>
      <point x="156" y="569" type="curve" smooth="yes"/>
      <point x="60" y="569" type="line" smooth="yes"/>
      <point x="37" y="569"/>
      <point x="24" y="558"/>
      <point x="27" y="535" type="curve"/>
      <point x="70" y="186" type="line" smooth="yes"/>
      <point x="73" y="161"/>
      <point x="81" y="150"/>
      <point x="106" y="150" type="curve" smooth="yes"/>
      <point x="202" y="150" type="line" smooth="yes"/>
      <point x="225" y="150"/>
      <point x="238" y="161"/>
      <point x="235" y="184" type="curve" smooth="yes"/>
    </contour>
    <contour>
      <point x="241" y="360" type="move" name="_top"/>
    </contour>
    <contour>
      <point x="988" y="360" type="move" name="_bottom"/>
    </contour>
  </outline>
</glyph>
<glyph name="mu" format="1">
  <advance width="794"/>
  <unicode hex="00B5"/>
  <outline>
    <contour>
      <point x="448" y="660" type="curve" smooth="yes"/>
      <point x="103" y="660" type="line" smooth="yes"/>
      <point x="78" y="660"/>
      <point x="67" y="649"/>
      <point x="67" y="624" type="curve" smooth="yes"/>
      <point x="67" y="472" type="line" smooth="yes"/>
      <point x="67" y="446"/>
      <point x="78" y="436"/>
      <point x="103" y="436" type="curve" smooth="yes"/>
      <point x="419" y="436" type="line" smooth="yes"/>
      <point x="446" y="436"/>
      <point x="466" y="425"/>
      <point x="466" y="363" type="curve" smooth="yes"/>
      <point x="466" y="302"/>
      <point x="446" y="291"/>
      <point x="419" y="291" type="curve" smooth="yes"/>
      <point x="103" y="291" type="line"/>
      <point x="103" y="142" type="line"/>
      <point x="448" y="142" type="line" smooth="yes"/>
      <point x="570" y="142"/>
      <point x="652" y="189"/>
      <point x="652" y="381" type="curve" smooth="yes"/>
      <point x="652" y="605"/>
      <point x="570" y="660"/>
    </contour>
    <contour>
      <point x="727" y="255" type="line" smooth="yes"/>
      <point x="727" y="280"/>
      <point x="716" y="291"/>
      <point x="691" y="291" type="curve" smooth="yes"/>
      <point x="103" y="291" type="line" smooth="yes"/>
      <point x="78" y="291"/>
      <point x="67" y="280"/>
      <point x="67" y="255" type="curve" smooth="yes"/>
      <point x="67" y="100" type="line" smooth="yes"/>
      <point x="67" y="75"/>
      <point x="78" y="64"/>
      <point x="103" y="64" type="curve" smooth="yes"/>
      <point x="691" y="64" type="line" smooth="yes"/>
      <point x="716" y="64"/>
      <point x="727" y="75"/>
      <point x="727" y="100" type="curve" smooth="yes"/>
    </contour>
  </outline>
</glyph>
<glyph name="paragraph" format="1">
  <advance width="880"/>
  <unicode hex="00B6"/>
  <outline>
    <contour>
      <point x="800" y="481" type="line" smooth="yes"/>
      <point x="800" y="456"/>
      <point x="789" y="445"/>
      <point x="764" y="445" type="curve" smooth="yes"/>
      <point x="598" y="445" type="line"/>
      <point x="598" y="290" type="line" smooth="yes"/>
      <point x="598" y="108"/>
      <point x="519" y="54"/>
      <point x="403" y="54" type="curve" smooth="yes"/>
      <point x="275" y="54" type="line" smooth="yes"/>
      <point x="159" y="54"/>
      <point x="80" y="108"/>
      <point x="80" y="290" type="curve" smooth="yes"/>
      <point x="80" y="596" type="line" smooth="yes"/>
      <point x="80" y="621"/>
      <point x="91" y="632"/>
      <point x="116" y="632" type="curve" smooth="yes"/>
      <point x="764" y="632" type="line" smooth="yes"/>
      <point x="789" y="632"/>
      <point x="800" y="621"/>
      <point x="800" y="596" type="curve" smooth="yes"/>
    </contour>
    <contour>
      <point x="518" y="394" type="line"/>
      <point x="764" y="394" type="line" smooth="yes"/>
      <point x="789" y="394"/>
      <point x="800" y="383"/>
      <point x="800" y="358" type="curve" smooth="yes"/>
      <point x="800" y="243" type="line" smooth="yes"/>
      <point x="800" y="218"/>
      <point x="789" y="207"/>
      <point x="764" y="207" type="curve" smooth="yes"/>
      <point x="518" y="207" type="line"/>
    </contour>
  </outline>
</glyph>
<glyph name="onesuperior" format="1">
  <advance width="798"/>
  <unicode hex="00B9"/>
  <outline>
    <contour>
      <point x="658" y="523" type="line" smooth="yes"/>
      <point x="658" y="541"/>
      <point x="650" y="549"/>
      <point x="632" y="549" type="curve"/>
      <point x="545" y="549" type="line" smooth="yes"/>
      <point x="527" y="549"/>
      <point x="519" y="541"/>
      <point x="519" y="523" type="curve"/>
      <point x="519" y="454" type="line"/>
      <point x="166" y="454" type="line" smooth="yes"/>
      <point x="148" y="454"/>
      <point x="140" y="446"/>
      <point x="140" y="428" type="curve" smooth="yes"/>
      <point x="140" y="219" type="line" smooth="yes"/>
      <point x="140" y="201"/>
      <point x="148" y="193"/>
      <point x="166" y="193" type="curve" smooth="yes"/>
      <point x="253" y="193" type="line" smooth="yes"/>
      <point x="271" y="193"/>
      <point x="279" y="201"/>
      <point x="279" y="219" type="curve" smooth="yes"/>
      <point x="279" y="286" type="line"/>
      <point x="519" y="286" type="line"/>
      <point x="519" y="205" type="line" smooth="yes"/>
      <point x="519" y="187"/>
      <point x="527" y="179"/>
      <point x="545" y="179" type="curve"/>
      <point x="632" y="179" type="line"/>
      <point x="650" y="179"/>
      <point x="658" y="187"/>
      <point x="658" y="205" type="curve" smooth="yes"/>
    </contour>
  </outline>
</glyph>
<glyph name="ordmasculine" format="1">
  <advance width="882"/>
  <unicode hex="00BA"/>
  <outline>
    <contour>
      <point x="462" y="583" type="curve"/>
      <point x="221" y="583" type="line"/>
      <point x="132" y="583"/>
      <point x="72" y="540"/>
      <point x="72" y="360" type="curve" smooth="yes"/>
      <point x="72" y="180"/>
      <point x="132" y="136"/>
      <point x="221" y="136" type="curve"/>
      <point x="462" y="136" type="line"/>
      <point x="550" y="136"/>
      <point x="610" y="180"/>
      <point x="610" y="360" type="curve" smooth="yes"/>
      <point x="610" y="540"/>
      <point x="550" y="583"/>
    </contour>
    <contour>
      <point x="437" y="305" type="curve"/>
      <point x="247" y="305" type="line"/>
      <point x="231" y="305"/>
      <point x="218" y="313"/>
      <point x="218" y="360" type="curve" smooth="yes"/>
      <point x="218" y="408"/>
      <point x="231" y="415"/>
      <point x="247" y="415" type="curve"/>
      <point x="437" y="415" type="line"/>
      <point x="453" y="415"/>
      <point x="465" y="408"/>
      <point x="465" y="360" type="curve" smooth="yes"/>
      <point x="465" y="313"/>
      <point x="453" y="305"/>
    </contour>
    <contour>
      <point x="802" y="172" type="curve"/>
      <point x="802" y="547" type="line" smooth="yes"/>
      <point x="802" y="572"/>
      <point x="792" y="583"/>
      <point x="766" y="583" type="curve" smooth="yes"/>
      <point x="699" y="583" type="line" smooth="yes"/>
      <point x="673" y="583"/>
      <point x="663" y="572"/>
      <point x="663" y="547" type="curve" smooth="yes"/>
      <point x="663" y="172" type="line" smooth="yes"/>
      <point x="663" y="147"/>
      <point x="674" y="136"/>
      <point x="699" y="136" type="curve" smooth="yes"/>
      <point x="766" y="136" type="line" smooth="yes"/>
      <point x="792" y="136"/>
      <point x="802" y="147"/>
    </contour>
    <contour>
      <point x="57" y="125" type="move" name="top"/>
    </contour>
    <contour>
      <point x="595" y="125" type="move" name="bottom"/>
    </contour>
  </outline>
</glyph>
<glyph name="guillemotright" format="1">
  <advance width="812"/>
  <unicode hex="00BB"/>
  <outline>
    <contour>
      <point x="456" y="117" type="curve" smooth="yes"/>
      <point x="635" y="168" type="line" smooth="yes"/>
      <point x="718" y="192"/>
      <point x="762" y="224"/>
      <point x="762" y="323" type="curve" smooth="yes"/>
      <point x="762" y="397" type="line" smooth="yes"/>
      <point x="762" y="496"/>
      <point x="718" y="528"/>
      <point x="635" y="552" type="curve" smooth="yes"/>
      <point x="456" y="604" type="line" smooth="yes"/>
      <point x="432" y="611"/>
      <point x="420" y="599"/>
      <point x="420" y="573" type="curve" smooth="yes"/>
      <point x="420" y="456" type="line" smooth="yes"/>
      <point x="420" y="430"/>
      <point x="433" y="416"/>
      <point x="456" y="407" type="curve"/>
      <point x="551" y="379" type="line"/>
      <point x="564" y="374"/>
      <point x="568" y="372"/>
      <point x="568" y="360" type="curve" smooth="yes"/>
      <point x="568" y="348"/>
      <point x="565" y="346"/>
      <point x="551" y="341" type="curve"/>
      <point x="456" y="314" type="line" smooth="yes"/>
      <point x="432" y="307"/>
      <point x="420" y="291"/>
      <point x="420" y="265" type="curve" smooth="yes"/>
      <point x="420" y="148" type="line" smooth="yes"/>
      <point x="420" y="122"/>
      <point x="432" y="110"/>
    </contour>
    <contour>
      <point x="265" y="168" type="line"/>
      <point x="348" y="192"/>
      <point x="392" y="224"/>
      <point x="392" y="323" type="curve" smooth="yes"/>
      <point x="392" y="397" type="line" smooth="yes"/>
      <point x="392" y="496"/>
      <point x="349" y="528"/>
      <point x="265" y="552" type="curve"/>
      <point x="96" y="601" type="line"/>
      <point x="72" y="609"/>
      <point x="60" y="596"/>
      <point x="60" y="570" type="curve" smooth="yes"/>
      <point x="60" y="456" type="line" smooth="yes"/>
      <point x="60" y="430"/>
      <point x="73" y="416"/>
      <point x="96" y="407" type="curve"/>
      <point x="191" y="379" type="line" smooth="yes"/>
      <point x="204" y="375"/>
      <point x="208" y="372"/>
      <point x="208" y="360" type="curve" smooth="yes"/>
      <point x="208" y="348"/>
      <point x="205" y="345"/>
      <point x="191" y="341" type="curve" smooth="yes"/>
      <point x="96" y="314" type="line" smooth="yes"/>
      <point x="72" y="307"/>
      <point x="60" y="291"/>
      <point x="60" y="265" type="curve" smooth="yes"/>
      <point x="60" y="151" type="line" smooth="yes"/>
      <point x="60" y="125"/>
      <point x="72" y="113"/>
      <point x="96" y="120" type="curve" smooth="yes"/>
    </contour>
  </outline>
</glyph>
<glyph name="questiondown" format="2">
  <advance width="847"/>
  <unicode hex="00BF"/>
  <outline>
    <contour>
      <point x="328" y="232" type="line" smooth="yes"/>
      <point x="341" y="137"/>
      <point x="382" y="77"/>
      <point x="494" y="77" type="curve" smooth="yes"/>
      <point x="599" y="77" type="line" smooth="yes"/>
      <point x="713" y="77"/>
      <point x="775" y="154"/>
      <point x="775" y="284" type="curve" smooth="yes"/>
      <point x="775" y="607" type="line" smooth="yes"/>
      <point x="775" y="632"/>
      <point x="764" y="643"/>
      <point x="739" y="643" type="curve"/>
      <point x="618" y="643" type="line" smooth="yes"/>
      <point x="592" y="643"/>
      <point x="582" y="632"/>
      <point x="582" y="607" type="curve" smooth="yes"/>
      <point x="582" y="331" type="line" smooth="yes"/>
      <point x="582" y="314"/>
      <point x="573" y="304"/>
      <point x="554" y="304" type="curve" smooth="yes"/>
      <point x="534" y="304"/>
      <point x="526" y="311"/>
      <point x="523" y="331" type="curve" smooth="yes"/>
      <point x="495" y="530" type="line" smooth="yes"/>
      <point x="492" y="555"/>
      <point x="480" y="567"/>
      <point x="454" y="563" type="curve" smooth="yes"/>
      <point x="322" y="542" type="line" smooth="yes"/>
      <point x="297" y="538"/>
      <point x="288" y="528"/>
      <point x="291" y="503" type="curve" smooth="yes"/>
    </contour>
    <contour>
      <point x="55" y="344" type="line" smooth="yes"/>
      <point x="55" y="319"/>
      <point x="66" y="308"/>
      <point x="91" y="308" type="curve" smooth="yes"/>
      <point x="222" y="308" type="line" smooth="yes"/>
      <point x="248" y="308"/>
      <point x="258" y="319"/>
      <point x="258" y="344" type="curve" smooth="yes"/>
      <point x="258" y="527" type="line" smooth="yes"/>
      <point x="258" y="553"/>
      <point x="248" y="563"/>
      <point x="222" y="563" type="curve" smooth="yes"/>
      <point x="91" y="563" type="line" smooth="yes"/>
      <point x="66" y="563"/>
      <point x="55" y="553"/>
      <point x="55" y="527" type="curve" smooth="yes"/>
    </contour>
  </outline>
</glyph>
<glyph name="Aring" format="1">
  <advance width="1011"/>
  <unicode hex="00C5"/>
  <outline>
    <contour>
      <point x="944" y="241" type="line" smooth="yes"/>
      <point x="944" y="266"/>
      <point x="933" y="277"/>
      <point x="908" y="277" type="curve" smooth="yes"/>
      <point x="636" y="277" type="line"/>
      <point x="470" y="329" type="line" smooth="yes"/>
      <point x="457" y="334"/>
      <point x="453" y="337"/>
      <point x="453" y="348" type="curve" smooth="yes"/>
      <point x="453" y="365" type="line" smooth="yes"/>
      <point x="453" y="376"/>
      <point x="457" y="379"/>
      <point x="470" y="384" type="curve" smooth="yes"/>
      <point x="636" y="435" type="line"/>
      <point x="908" y="435" type="line" smooth="yes"/>
      <point x="933" y="435"/>
      <point x="944" y="446"/>
      <point x="944" y="471" type="curve" smooth="yes"/>
      <point x="944" y="625" type="line" smooth="yes"/>
      <point x="944" y="651"/>
      <point x="933" y="661"/>
      <point x="908" y="661" type="curve" smooth="yes"/>
      <point x="674" y="661" type="line" smooth="yes"/>
      <point x="615" y="661"/>
      <point x="574" y="651"/>
      <point x="524" y="632" type="curve"/>
      <point x="351" y="572" type="line"/>
      <point x="321" y="560"/>
      <point x="310" y="544"/>
      <point x="310" y="511" type="curve" smooth="yes"/>
      <point x="310" y="210" type="line" smooth="yes"/>
      <point x="310" y="176"/>
      <point x="321" y="161"/>
      <point x="351" y="148" type="curve"/>
      <point x="524" y="88" type="line" smooth="yes"/>
      <point x="574" y="69"/>
      <point x="615" y="59"/>
      <point x="674" y="59" type="curve" smooth="yes"/>
      <point x="908" y="59" type="line" smooth="yes"/>
      <point x="933" y="59"/>
      <point x="944" y="70"/>
      <point x="944" y="95" type="curve" smooth="yes"/>
    </contour>
    <contour>
      <point x="788" y="476" type="line"/>
      <point x="606" y="476" type="line"/>
      <point x="606" y="237" type="line"/>
      <point x="788" y="237" type="line"/>
    </contour>
    <contour>
      <point x="155" y="577" type="line" smooth="yes"/>
      <point x="70" y="577"/>
      <point x="12" y="534"/>
      <point x="12" y="360" type="curve" smooth="yes"/>
      <point x="12" y="186"/>
      <point x="70" y="143"/>
      <point x="155" y="143" type="curve" smooth="yes"/>
      <point x="213" y="143" type="line" smooth="yes"/>
      <point x="298" y="143"/>
      <point x="356" y="186"/>
      <point x="356" y="360" type="curve" smooth="yes"/>
      <point x="356" y="534"/>
      <point x="298" y="577"/>
      <point x="213" y="577" type="curve" smooth="yes"/>
    </contour>
    <contour>
      <point x="220" y="420" type="line" smooth="yes"/>
      <point x="249" y="420"/>
      <point x="263" y="411"/>
      <point x="263" y="361" type="curve" smooth="yes"/>
      <point x="263" y="312"/>
      <point x="249" y="304"/>
      <point x="220" y="304" type="curve" smooth="yes"/>
      <point x="185" y="304" type="line" smooth="yes"/>
      <point x="159" y="304"/>
      <point x="145" y="312"/>
      <point x="145" y="361" type="curve" smooth="yes"/>
      <point x="145" y="411"/>
      <point x="159" y="420"/>
      <point x="185" y="420" type="curve" smooth="yes"/>
    </contour>
  </outline>
</glyph>
<glyph name="AE" format="1">
  <advance width="872"/>
  <unicode hex="00C6"/>
  <outline>
    <contour>
      <point x="72" y="384" type="line"/>
      <point x="72" y="215" type="line" smooth="yes"/>
      <point x="72" y="181"/>
      <point x="82" y="164"/>
      <point x="113" y="153" type="curve" smooth="yes"/>
      <point x="352" y="58" type="line" smooth="yes"/>
      <point x="402" y="39"/>
      <point x="443" y="29"/>
      <point x="502" y="29" type="curve" smooth="yes"/>
      <point x="756" y="29" type="line" smooth="yes"/>
      <point x="781" y="29"/>
      <point x="792" y="40"/>
      <point x="792" y="65" type="curve" smooth="yes"/>
      <point x="792" y="196" type="line" smooth="yes"/>
      <point x="792" y="221"/>
      <point x="781" y="232"/>
      <point x="756" y="232" type="curve" smooth="yes"/>
      <point x="464" y="232" type="line"/>
      <point x="278" y="302" type="line" smooth="yes"/>
      <point x="265" y="307"/>
      <point x="261" y="310"/>
      <point x="261" y="321" type="curve" smooth="yes"/>
      <point x="261" y="384" type="line"/>
    </contour>
    <contour>
      <point x="434" y="341" type="line"/>
      <point x="434" y="197" type="line"/>
      <point x="616" y="197" type="line"/>
      <point x="616" y="341" type="line"/>
    </contour>
    <contour>
      <point x="792" y="635" type="line" smooth="yes"/>
      <point x="792" y="660"/>
      <point x="781" y="671"/>
      <point x="756" y="671" type="curve" smooth="yes"/>
      <point x="639" y="671" type="line" smooth="yes"/>
      <point x="614" y="671"/>
      <point x="603" y="660"/>
      <point x="603" y="635" type="curve" smooth="yes"/>
      <point x="603" y="532" type="line"/>
      <point x="517" y="532" type="line"/>
      <point x="517" y="634" type="line" smooth="yes"/>
      <point x="517" y="659"/>
      <point x="506" y="670"/>
      <point x="481" y="670" type="curve" smooth="yes"/>
      <point x="374" y="670" type="line" smooth="yes"/>
      <point x="348" y="670"/>
      <point x="338" y="659"/>
      <point x="338" y="634" type="curve" smooth="yes"/>
      <point x="338" y="532" type="line"/>
      <point x="261" y="532" type="line"/>
      <point x="261" y="635" type="line" smooth="yes"/>
      <point x="261" y="660"/>
      <point x="250" y="671"/>
      <point x="225" y="671" type="curve" smooth="yes"/>
      <point x="108" y="671" type="line" smooth="yes"/>
      <point x="83" y="671"/>
      <point x="72" y="660"/>
      <point x="72" y="635" type="curve" smooth="yes"/>
      <point x="72" y="374" type="line" smooth="yes"/>
      <point x="72" y="349"/>
      <point x="83" y="330"/>
      <point x="108" y="330" type="curve"/>
      <point x="756" y="330" type="line"/>
      <point x="781" y="330"/>
      <point x="792" y="341"/>
      <point x="792" y="366" type="curve" smooth="yes"/>
    </contour>
  </outline>
</glyph>
<glyph name="AE" format="2">
  <advance width="872"/>
  <unicode hex="00C6"/>
  <outline>
    <contour>
      <point x="72" y="384" type="line"/>
      <point x="72" y="215" type="line" smooth="yes"/>
      <point x="72" y="181"/>
      <point x="82" y="164"/>
      <point x="113" y="153" type="curve" smooth="yes"/>
      <point x="352" y="58" type="line" smooth="yes"/>
      <point x="402" y="39"/>
      <point x="443" y="29"/>
      <point x="502" y="29" type="curve" smooth="yes"/>
      <point x="756" y="29" type="line" smooth="yes"/>
      <point x="781" y="29"/>
      <point x="792" y="40"/>
      <point x="792" y="65" type="curve" smooth="yes"/>
      <point x="792" y="196" type="line" smooth="yes"/>
      <point x="792" y="221"/>
      <point x="781" y="232"/>
      <point x="756" y="232" type="curve" smooth="yes"/>
      <point x="464" y="232" type="line"/>
      <point x="278" y="302" type="line" smooth="yes"/>
      <point x="265" y="307"/>
      <point x="261" y="310"/>
      <point x="261" y="321" type="curve" smooth="yes"/>
      <point x="261" y="384" type="line"/>
    </contour>
    <contour>
      <point x="434" y="341" type="line"/>
      <point x="434" y="197" type="line"/>
      <point x="616" y="197" type="line"/>
      <point x="616" y="341" type="line"/>
    </contour>
    <contour>
      <point x="792" y="635" type="line" smooth="yes"/>
      <point x="792" y="660"/>
      <point x="781" y="671"/>
      <point x="756" y="671" type="curve" smooth="yes"/>
      <point x="639" y="671" type="line" smooth="yes"/>
      <point x="614" y="671"/>
      <point x="603" y="660"/>
      <point x="603" y="635" type="curve" smooth="yes"/>
      <point x="603" y="532" type="line"/>
      <point x="517" y="532" type="line"/>
      <point x="517" y="634" type="line" smooth="yes"/>
      <point x="517" y="659"/>
      <point x="506" y="670"/>
      <point x="481" y="670" type="curve" smooth="yes"/>
      <point x="374" y="670" type="line" smooth="yes"/>
      <point x="348" y="670"/>
      <point x="338" y="659"/>
      <point x="338" y="634" type="curve" smooth="yes"/>
      <point x="338" y="532" type="line"/>
      <point x="261" y="532" type="line"/>
      <point x="261" y="635" type="line" smooth="yes"/>
      <point x="261" y="660"/>
      <point x="250" y="671"/>
      <point x="225" y="671" type="curve" smooth="yes"/>
      <point x="108" y="671" type="line" smooth="yes"/>
      <point x="83" y="671"/>
      <point x="72" y="660"/>
      <point x="72" y="635" type="curve" smooth="yes"/>
      <point x="72" y="374" type="line" smooth="yes"/>
      <point x="72" y="349"/>
      <point x="83" y="330"/>
      <point x="108" y="330" type="curve"/>
      <point x="756" y="330" type="line"/>
      <point x="781" y="330"/>
      <point x="792" y="341"/>
      <point x="792" y="366" type="curve" smooth="yes"/>
    </contour>
  </outline>
</glyph>
<glyph name="Eth" format="1">
  <advance width="880"/>
  <unicode hex="00D0"/>
  <outline>
    <contour>
      <point x="535" y="37" type="curve"/>
      <point x="535" y="326" type="line" smooth="yes"/>
      <point x="535" y="351"/>
      <point x="525" y="362"/>
      <point x="499" y="362" type="curve" smooth="yes"/>
      <point x="392" y="362" type="line" smooth="yes"/>
      <point x="366" y="362"/>
      <point x="356" y="351"/>
      <point x="356" y="326" type="curve" smooth="yes"/>
      <point x="356" y="37" type="line" smooth="yes"/>
      <point x="356" y="12"/>
      <point x="367" y="1"/>
      <point x="392" y="1" type="curve" smooth="yes"/>
      <point x="499" y="1" type="line" smooth="yes"/>
      <point x="525" y="1"/>
      <point x="535" y="12"/>
    </contour>
    <contour>
      <point x="800" y="414" type="line" smooth="yes"/>
      <point x="800" y="603"/>
      <point x="717" y="660"/>
      <point x="596" y="660" type="curve" smooth="yes"/>
      <point x="284" y="660" type="line" smooth="yes"/>
      <point x="163" y="660"/>
      <point x="80" y="603"/>
      <point x="80" y="414" type="curve" smooth="yes"/>
      <point x="80" y="96" type="line" smooth="yes"/>
      <point x="80" y="71"/>
      <point x="91" y="60"/>
      <point x="116" y="60" type="curve"/>
      <point x="764" y="60" type="line"/>
      <point x="789" y="60"/>
      <point x="800" y="71"/>
      <point x="800" y="96" type="curve" smooth="yes"/>
    </contour>
    <contour>
      <point x="271" y="284" type="line"/>
      <point x="271" y="387" type="line" smooth="yes"/>
      <point x="271" y="427"/>
      <point x="293" y="434"/>
      <point x="319" y="434" type="curve" smooth="yes"/>
      <point x="562" y="434" type="line" smooth="yes"/>
      <point x="589" y="434"/>
      <point x="611" y="427"/>
      <point x="611" y="387" type="curve" smooth="yes"/>
      <point x="611" y="284" type="line"/>
    </contour>
  </outline>
</glyph>
<glyph name="multiply" format="2">
  <advance width="692"/>
  <unicode hex="00D7"/>
  <outline>
    <contour>
      <point x="616" y="221" type="curve"/>
      <point x="207" y="630" type="line" smooth="yes"/>
      <point x="190" y="648"/>
      <point x="175" y="649"/>
      <point x="156" y="630" type="curve" smooth="yes"/>
      <point x="76" y="550" type="line" smooth="yes"/>
      <point x="57" y="531"/>
      <point x="58" y="516"/>
      <point x="76" y="499" type="curve" smooth="yes"/>
      <point x="485" y="90" type="line" smooth="yes"/>
      <point x="502" y="72"/>
      <point x="518" y="72"/>
      <point x="536" y="90" type="curve" smooth="yes"/>
      <point x="616" y="170" type="line" smooth="yes"/>
      <point x="635" y="189"/>
      <point x="634" y="204"/>
    </contour>
    <contour>
      <point x="207" y="90" type="curve"/>
      <point x="616" y="499" type="line" smooth="yes"/>
      <point x="634" y="516"/>
      <point x="635" y="531"/>
      <point x="616" y="550" type="curve" smooth="yes"/>
      <point x="536" y="630" type="line" smooth="yes"/>
      <point x="517" y="649"/>
      <point x="502" y="648"/>
      <point x="485" y="630" type="curve" smooth="yes"/>
      <point x="76" y="221" type="line" smooth="yes"/>
      <point x="58" y="204"/>
      <point x="58" y="188"/>
      <point x="76" y="170" type="curve" smooth="yes"/>
      <point x="156" y="90" type="line" smooth="yes"/>
      <point x="175" y="71"/>
      <point x="190" y="72"/>
    </contour>
  </outline>
</glyph>
<glyph name="Oslash" format="2">
  <advance width="884"/>
  <unicode hex="00D8"/>
  <outline>
    <contour>
      <point x="613" y="660" type="curve"/>
      <point x="272" y="660" type="line" smooth="yes"/>
      <point x="150" y="660"/>
      <point x="67" y="600"/>
      <point x="67" y="360" type="curve" smooth="yes"/>
      <point x="67" y="120"/>
      <point x="150" y="59"/>
      <point x="272" y="59" type="curve" smooth="yes"/>
      <point x="613" y="59" type="line" smooth="yes"/>
      <point x="735" y="59"/>
      <point x="817" y="120"/>
      <point x="817" y="360" type="curve" smooth="yes"/>
      <point x="817" y="600"/>
      <point x="735" y="660"/>
    </contour>
    <contour>
      <point x="577" y="266" type="curve"/>
      <point x="308" y="266" type="line" smooth="yes"/>
      <point x="276" y="266"/>
      <point x="252" y="280"/>
      <point x="252" y="360" type="curve" smooth="yes"/>
      <point x="252" y="441"/>
      <point x="276" y="454"/>
      <point x="308" y="454" type="curve" smooth="yes"/>
      <point x="577" y="454" type="line" smooth="yes"/>
      <point x="610" y="454"/>
      <point x="634" y="441"/>
      <point x="634" y="360" type="curve" smooth="yes"/>
      <point x="634" y="280"/>
      <point x="610" y="266"/>
    </contour>
    <contour>
      <point x="872" y="240" type="line" smooth="yes"/>
      <point x="872" y="265"/>
      <point x="858" y="274"/>
      <point x="836" y="286" type="curve"/>
      <point x="728" y="332" type="line"/>
      <point x="683" y="325" type="line"/>
      <point x="238" y="514" type="line"/>
      <point x="229" y="543" type="line"/>
      <point x="48" y="620" type="line"/>
      <point x="26" y="632"/>
      <point x="12" y="619"/>
      <point x="12" y="594" type="curve" smooth="yes"/>
      <point x="12" y="479" type="line" smooth="yes"/>
      <point x="12" y="454"/>
      <point x="26" y="445"/>
      <point x="48" y="433" type="curve"/>
      <point x="153" y="388" type="line"/>
      <point x="203" y="393" type="line"/>
      <point x="650" y="203" type="line"/>
      <point x="658" y="174" type="line"/>
      <point x="836" y="99" type="line"/>
      <point x="858" y="87"/>
      <point x="872" y="100"/>
      <point x="872" y="125" type="curve" smooth="yes"/>
    </contour>
  </outline>
</glyph>
<glyph name="Oslash" format="1">
  <advance width="884"/>
  <unicode hex="00D8"/>
  <outline>
    <contour>
      <point x="613" y="660" type="curve"/>
      <point x="272" y="660" type="line" smooth="yes"/>
      <point x="150" y="660"/>
      <point x="67" y="600"/>
      <point x="67" y="360" type="curve" smooth="yes"/>
      <point x="67" y="120"/>
      <point x="150" y="59"/>
      <point x="272" y="59" type="curve" smooth="yes"/>
      <point x="613" y="59" type="line" smooth="yes"/>
      <point x="735" y="59"/>
      <point x="817" y="120"/>
      <point x="817" y="360" type="curve" smooth="yes"/>
      <point x="817" y="600"/>
      <point x="735" y="660"/>
    </contour>
    <contour>
      <point x="577" y="266" type="curve"/>
      <point x="308" y="266" type="line" smooth="yes"/>
      <point x="276" y="266"/>
      <point x="252" y="280"/>
      <point x="252" y="360" type="curve" smooth="yes"/>
      <point x="252" y="441"/>
      <point x="276" y="454"/>
      <point x="308" y="454" type="curve" smooth="yes"/>
      <point x="577" y="454" type="line" smooth="yes"/>
      <point x="610" y="454"/>
      <point x="634" y="441"/>
      <point x="634" y="360" type="curve" smooth="yes"/>
      <point x="634" y="280"/>
      <point x="610" y="266"/>
    </contour>
    <contour>
      <point x="872" y="240" type="line" smooth="yes"/>
      <point x="872" y="265"/>
      <point x="858" y="274"/>
      <point x="836" y="286" type="curve"/>
      <point x="728" y="332" type="line"/>
      <point x="683" y="325" type="line"/>
      <point x="238" y="514" type="line"/>
      <point x="229" y="543" type="line"/>
      <point x="48" y="620" type="line"/>
      <point x="26" y="632"/>
      <point x="12" y="619"/>
      <point x="12" y="594" type="curve" smooth="yes"/>
      <point x="12" y="479" type="line" smooth="yes"/>
      <point x="12" y="454"/>
      <point x="26" y="445"/>
      <point x="48" y="433" type="curve"/>
      <point x="153" y="388" type="line"/>
      <point x="203" y="393" type="line"/>
      <point x="650" y="203" type="line"/>
      <point x="658" y="174" type="line"/>
      <point x="836" y="99" type="line"/>
      <point x="858" y="87"/>
      <point x="872" y="100"/>
      <point x="872" y="125" type="curve" smooth="yes"/>
    </contour>
  </outline>
</glyph>
<glyph name="Thorn" format="1">
  <advance width="850"/>
  <unicode hex="00DE"/>
  <outline>
    <contour>
      <point x="785" y="252" type="line" smooth="yes"/>
      <point x="785" y="277"/>
      <point x="774" y="288"/>
      <point x="749" y="288" type="curve" smooth="yes"/>
      <point x="680" y="288" type="line"/>
      <point x="680" y="427" type="line" smooth="yes"/>
      <point x="680" y="609"/>
      <point x="601" y="663"/>
      <point x="485" y="663" type="curve" smooth="yes"/>
      <point x="363" y="663" type="line" smooth="yes"/>
      <point x="247" y="663"/>
      <point x="168" y="609"/>
      <point x="168" y="427" type="curve" smooth="yes"/>
      <point x="168" y="288" type="line"/>
      <point x="101" y="288" type="line" smooth="yes"/>
      <point x="76" y="288"/>
      <point x="65" y="277"/>
      <point x="65" y="252" type="curve" smooth="yes"/>
      <point x="65" y="97" type="line" smooth="yes"/>
      <point x="65" y="72"/>
      <point x="76" y="61"/>
      <point x="101" y="61" type="curve" smooth="yes"/>
      <point x="749" y="61" type="line" smooth="yes"/>
      <point x="774" y="61"/>
      <point x="785" y="72"/>
      <point x="785" y="97" type="curve" smooth="yes"/>
    </contour>
    <contour>
      <point x="355" y="286" type="line"/>
      <point x="355" y="400" type="line" smooth="yes"/>
      <point x="355" y="439"/>
      <point x="378" y="447"/>
      <point x="404" y="447" type="curve" smooth="yes"/>
      <point x="451" y="447" type="line" smooth="yes"/>
      <point x="477" y="447"/>
      <point x="500" y="439"/>
      <point x="500" y="400" type="curve" smooth="yes"/>
      <point x="500" y="286" type="line"/>
    </contour>
  </outline>
</glyph>
<glyph name="divide" format="2">
  <advance width="738"/>
  <unicode hex="00F7"/>
  <outline>
    <contour>
      <point x="452" y="99" type="curve"/>
      <point x="452" y="621" type="line" smooth="yes"/>
      <point x="452" y="646"/>
      <point x="442" y="657"/>
      <point x="416" y="657" type="curve" smooth="yes"/>
      <point x="322" y="657" type="line" smooth="yes"/>
      <point x="296" y="657"/>
      <point x="286" y="646"/>
      <point x="286" y="621" type="curve" smooth="yes"/>
      <point x="286" y="99" type="line" smooth="yes"/>
      <point x="286" y="74"/>
      <point x="297" y="63"/>
      <point x="322" y="63" type="curve" smooth="yes"/>
      <point x="416" y="63" type="line" smooth="yes"/>
      <point x="442" y="63"/>
      <point x="452" y="74"/>
    </contour>
    <contour>
      <point x="246" y="441" type="line" smooth="yes"/>
      <point x="246" y="466"/>
      <point x="235" y="477"/>
      <point x="210" y="477" type="curve" smooth="yes"/>
      <point x="87" y="477" type="line" smooth="yes"/>
      <point x="61" y="477"/>
      <point x="51" y="466"/>
      <point x="51" y="441" type="curve" smooth="yes"/>
      <point x="51" y="279" type="line" smooth="yes"/>
      <point x="51" y="254"/>
      <point x="61" y="243"/>
      <point x="87" y="243" type="curve"/>
      <point x="210" y="243" type="line"/>
      <point x="235" y="243"/>
      <point x="246" y="254"/>
      <point x="246" y="279" type="curve" smooth="yes"/>
    </contour>
    <contour>
      <point x="687" y="441" type="line" smooth="yes"/>
      <point x="687" y="466"/>
      <point x="676" y="477"/>
      <point x="651" y="477" type="curve" smooth="yes"/>
      <point x="528" y="477" type="line" smooth="yes"/>
      <point x="502" y="477"/>
      <point x="492" y="466"/>
      <point x="492" y="441" type="curve" smooth="yes"/>
      <point x="492" y="279" type="line" smooth="yes"/>
      <point x="492" y="254"/>
      <point x="502" y="243"/>
      <point x="528" y="243" type="curve" smooth="yes"/>
      <point x="651" y="243" type="line" smooth="yes"/>
      <point x="676" y="243"/>
      <point x="687" y="254"/>
      <point x="687" y="279" type="curve" smooth="yes"/>
    </contour>
  </outline>
</glyph>
<glyph name="Hbar" format="1">
  <advance width="880"/>
  <unicode hex="0126"/>
  <outline>
    <contour>
      <point x="800" y="247" type="line" smooth="yes"/>
      <point x="800" y="272"/>
      <point x="789" y="283"/>
      <point x="764" y="283" type="curve" smooth="yes"/>
      <point x="652" y="283" type="line"/>
      <point x="652" y="436" type="line"/>
      <point x="764" y="436" type="line" smooth="yes"/>
      <point x="789" y="436"/>
      <point x="800" y="447"/>
      <point x="800" y="472" type="curve" smooth="yes"/>
      <point x="800" y="624" type="line" smooth="yes"/>
      <point x="800" y="649"/>
      <point x="789" y="660"/>
      <point x="764" y="660" type="curve" smooth="yes"/>
      <point x="116" y="660" type="line" smooth="yes"/>
      <point x="91" y="660"/>
      <point x="80" y="649"/>
      <point x="80" y="624" type="curve" smooth="yes"/>
      <point x="80" y="472" type="line" smooth="yes"/>
      <point x="80" y="447"/>
      <point x="91" y="436"/>
      <point x="116" y="436" type="curve" smooth="yes"/>
      <point x="453" y="436" type="line"/>
      <point x="453" y="283" type="line"/>
      <point x="116" y="283" type="line" smooth="yes"/>
      <point x="91" y="283"/>
      <point x="80" y="272"/>
      <point x="80" y="247" type="curve" smooth="yes"/>
      <point x="80" y="95" type="line" smooth="yes"/>
      <point x="80" y="70"/>
      <point x="91" y="59"/>
      <point x="116" y="59" type="curve" smooth="yes"/>
      <point x="764" y="59" type="line" smooth="yes"/>
      <point x="789" y="59"/>
      <point x="800" y="70"/>
      <point x="800" y="95" type="curve" smooth="yes"/>
    </contour>
    <contour>
      <point x="375" y="46" type="curve"/>
      <point x="375" y="673" type="line" smooth="yes"/>
      <point x="375" y="698"/>
      <point x="365" y="709"/>
      <point x="339" y="709" type="curve" smooth="yes"/>
      <point x="242" y="709" type="line" smooth="yes"/>
      <point x="216" y="709"/>
      <point x="206" y="698"/>
      <point x="206" y="673" type="curve" smooth="yes"/>
      <point x="206" y="46" type="line" smooth="yes"/>
      <point x="206" y="21"/>
      <point x="217" y="10"/>
      <point x="242" y="10" type="curve" smooth="yes"/>
      <point x="339" y="10" type="line" smooth="yes"/>
      <point x="365" y="10"/>
      <point x="375" y="21"/>
    </contour>
  </outline>
</glyph>
<glyph name="IJ" format="1">
  <advance width="859"/>
  <unicode hex="0132"/>
  <outline>
    <contour>
      <point x="751" y="60" type="line" smooth="yes"/>
      <point x="776" y="60"/>
      <point x="787" y="71"/>
      <point x="787" y="96" type="curve"/>
      <point x="787" y="447" type="line" smooth="yes"/>
      <point x="787" y="579"/>
      <point x="709" y="660"/>
      <point x="577" y="660" type="curve" smooth="yes"/>
      <point x="103" y="660" type="line" smooth="yes"/>
      <point x="78" y="660"/>
      <point x="67" y="649"/>
      <point x="67" y="624" type="curve" smooth="yes"/>
      <point x="67" y="469" type="line" smooth="yes"/>
      <point x="67" y="444"/>
      <point x="78" y="433"/>
      <point x="103" y="433" type="curve" smooth="yes"/>
      <point x="527" y="433" type="line" smooth="yes"/>
      <point x="575" y="433"/>
      <point x="594" y="408"/>
      <point x="594" y="360" type="curve" smooth="yes"/>
      <point x="594" y="96" type="line" smooth="yes"/>
      <point x="594" y="71"/>
      <point x="605" y="60"/>
      <point x="630" y="60" type="curve" smooth="yes"/>
    </contour>
    <contour>
      <point x="457" y="251" type="line" smooth="yes"/>
      <point x="457" y="276"/>
      <point x="446" y="287"/>
      <point x="421" y="287" type="curve" smooth="yes"/>
      <point x="103" y="287" type="line" smooth="yes"/>
      <point x="78" y="287"/>
      <point x="67" y="276"/>
      <point x="67" y="251" type="curve" smooth="yes"/>
      <point x="67" y="96" type="line" smooth="yes"/>
      <point x="67" y="71"/>
      <point x="78" y="60"/>
      <point x="103" y="60" type="curve" smooth="yes"/>
      <point x="421" y="60" type="line" smooth="yes"/>
      <point x="446" y="60"/>
      <point x="457" y="71"/>
      <point x="457" y="96" type="curve" smooth="yes"/>
    </contour>
  </outline>
</glyph>
<glyph name="IJ" format="2">
  <advance width="859"/>
  <unicode hex="0132"/>
  <guideline x="833" y="498" angle="90.0" identifier="nYmW7ST1pZ"/>
  <outline>
    <contour>
      <point x="751" y="60" type="line" smooth="yes"/>
      <point x="776" y="60"/>
      <point x="787" y="71"/>
      <point x="787" y="96" type="curve"/>
      <point x="787" y="447" type="line" smooth="yes"/>
      <point x="787" y="579"/>
      <point x="709" y="660"/>
      <point x="577" y="660" type="curve" smooth="yes"/>
      <point x="103" y="660" type="line" smooth="yes"/>
      <point x="78" y="660"/>
      <point x="67" y="649"/>
      <point x="67" y="624" type="curve" smooth="yes"/>
      <point x="67" y="469" type="line" smooth="yes"/>
      <point x="67" y="444"/>
      <point x="78" y="433"/>
      <point x="103" y="433" type="curve" smooth="yes"/>
      <point x="527" y="433" type="line" smooth="yes"/>
      <point x="575" y="433"/>
      <point x="594" y="408"/>
      <point x="594" y="360" type="curve" smooth="yes"/>
      <point x="594" y="96" type="line" smooth="yes"/>
      <point x="594" y="71"/>
      <point x="605" y="60"/>
      <point x="630" y="60" type="curve" smooth="yes"/>
    </contour>
    <contour>
      <point x="457" y="251" type="line" smooth="yes"/>
      <point x="457" y="276"/>
      <point x="446" y="287"/>
      <point x="421" y="287" type="curve" smooth="yes"/>
      <point x="103" y="287" type="line" smooth="yes"/>
      <point x="78" y="287"/>
      <point x="67" y="276"/>
      <point x="67" y="251" type="curve" smooth="yes"/>
      <point x="67" y="96" type="line" smooth="yes"/>
      <point x="67" y="71"/>
      <point x="78" y="60"/>
      <point x="103" y="60" type="curve" smooth="yes"/>
      <point x="421" y="60" type="line" smooth="yes"/>
      <point x="446" y="60"/>
      <point x="457" y="71"/>
      <point x="457" y="96" type="curve" smooth="yes"/>
    </contour>
  </outline>
</glyph>
<glyph name="Ldot" format="1">
  <advance width="1012"/>
  <unicode hex="013F"/>
  <outline>
    <contour>
      <point x="995" y="456" type="line" smooth="yes"/>
      <point x="995" y="481"/>
      <point x="984" y="492"/>
      <point x="959" y="492" type="curve" smooth="yes"/>
      <point x="832" y="492" type="line" smooth="yes"/>
      <point x="807" y="492"/>
      <point x="796" y="481"/>
      <point x="796" y="456" type="curve" smooth="yes"/>
      <point x="796" y="298" type="line" smooth="yes"/>
      <point x="796" y="273"/>
      <point x="807" y="262"/>
      <point x="832" y="262" type="curve" smooth="yes"/>
      <point x="959" y="262" type="line" smooth="yes"/>
      <point x="984" y="262"/>
      <point x="995" y="273"/>
      <point x="995" y="298" type="curve" smooth="yes"/>
    </contour>
    <component base="L.s"/>
  </outline>
</glyph>
<glyph name="Lslash" format="2">
  <advance width="855"/>
  <unicode hex="0141"/>
  <outline>
    <contour>
      <point x="349" y="2" type="curve" smooth="yes"/>
      <point x="456" y="2" type="line" smooth="yes"/>
      <point x="482" y="2"/>
      <point x="496" y="13"/>
      <point x="492" y="38" type="curve" smooth="yes"/>
      <point x="442" y="346" type="line" smooth="yes"/>
      <point x="438" y="371"/>
      <point x="432" y="382"/>
      <point x="406" y="382" type="curve" smooth="yes"/>
      <point x="299" y="382" type="line" smooth="yes"/>
      <point x="273" y="382"/>
      <point x="259" y="371"/>
      <point x="263" y="346" type="curve" smooth="yes"/>
      <point x="313" y="38" type="line" smooth="yes"/>
      <point x="317" y="13"/>
      <point x="324" y="2"/>
    </contour>
    <contour>
      <point x="775" y="625" type="line" smooth="yes"/>
      <point x="775" y="650"/>
      <point x="764" y="661"/>
      <point x="739" y="661" type="curve" smooth="yes"/>
      <point x="424" y="661" type="line" smooth="yes"/>
      <point x="399" y="661"/>
      <point x="388" y="650"/>
      <point x="388" y="625" type="curve" smooth="yes"/>
      <point x="388" y="480" type="line" smooth="yes"/>
      <point x="388" y="455"/>
      <point x="399" y="444"/>
      <point x="424" y="444" type="curve" smooth="yes"/>
      <point x="586" y="444" type="line"/>
      <point x="586" y="288" type="line"/>
      <point x="91" y="288" type="line" smooth="yes"/>
      <point x="66" y="288"/>
      <point x="55" y="277"/>
      <point x="55" y="252" type="curve" smooth="yes"/>
      <point x="55" y="97" type="line" smooth="yes"/>
      <point x="55" y="72"/>
      <point x="66" y="61"/>
      <point x="91" y="61" type="curve"/>
      <point x="739" y="61" type="line"/>
      <point x="764" y="61"/>
      <point x="775" y="72"/>
      <point x="775" y="97" type="curve" smooth="yes"/>
    </contour>
  </outline>
</glyph>
<glyph name="Lslash" format="1">
  <advance width="855"/>
  <unicode hex="0141"/>
  <outline>
    <contour>
      <point x="349" y="2" type="curve" smooth="yes"/>
      <point x="456" y="2" type="line" smooth="yes"/>
      <point x="482" y="2"/>
      <point x="496" y="13"/>
      <point x="492" y="38" type="curve" smooth="yes"/>
      <point x="442" y="346" type="line" smooth="yes"/>
      <point x="438" y="371"/>
      <point x="432" y="382"/>
      <point x="406" y="382" type="curve" smooth="yes"/>
      <point x="299" y="382" type="line" smooth="yes"/>
      <point x="273" y="382"/>
      <point x="259" y="371"/>
      <point x="263" y="346" type="curve" smooth="yes"/>
      <point x="313" y="38" type="line" smooth="yes"/>
      <point x="317" y="13"/>
      <point x="324" y="2"/>
    </contour>
    <contour>
      <point x="775" y="625" type="line" smooth="yes"/>
      <point x="775" y="650"/>
      <point x="764" y="661"/>
      <point x="739" y="661" type="curve" smooth="yes"/>
      <point x="424" y="661" type="line" smooth="yes"/>
      <point x="399" y="661"/>
      <point x="388" y="650"/>
      <point x="388" y="625" type="curve" smooth="yes"/>
      <point x="388" y="480" type="line" smooth="yes"/>
      <point x="388" y="455"/>
      <point x="399" y="444"/>
      <point x="424" y="444" type="curve" smooth="yes"/>
      <point x="586" y="444" type="line"/>
      <point x="586" y="288" type="line"/>
      <point x="91" y="288" type="line" smooth="yes"/>
      <point x="66" y="288"/>
      <point x="55" y="277"/>
      <point x="55" y="252" type="curve" smooth="yes"/>
      <point x="55" y="97" type="line" smooth="yes"/>
      <point x="55" y="72"/>
      <point x="66" y="61"/>
      <point x="91" y="61" type="curve"/>
      <point x="739" y="61" type="line"/>
      <point x="764" y="61"/>
      <point x="775" y="72"/>
      <point x="775" y="97" type="curve" smooth="yes"/>
    </contour>
  </outline>
</glyph>
